<?xml version="1.0" encoding="utf-8"?>
<svg version="1.1" xmlns:xlink="http://www.w3.org/1999/xlink" width="12px" height="17px" xmlns="http://www.w3.org/2000/svg">
  <g transform="matrix(1 0 0 1 -20 -17 )">
    <path d="M 9.03125 0.645089285714286  L 11.46875 3.60491071428571  C 11.6145833333333 3.78199404761905  11.7395833333333 4.02232142857143  11.84375 4.32589285714286  C 11.9479166666667 4.62946428571429  12 4.90773809523809  12 5.16071428571429  L 12 16.0892857142857  C 12 16.3422619047619  11.9270833333333 16.5572916666667  11.78125 16.734375  C 11.6354166666667 16.9114583333333  11.4583333333333 17  11.25 17  L 0.75 17  C 0.541666666666667 17  0.364583333333333 16.9114583333333  0.21875 16.734375  C 0.0729166666666667 16.5572916666667  0 16.3422619047619  0 16.0892857142857  L 0 0.910714285714286  C 0 0.657738095238095  0.0729166666666667 0.442708333333333  0.21875 0.265625  C 0.364583333333333 0.0885416666666673  0.541666666666667 0  0.75 0  L 7.75 0  C 7.95833333333333 0  8.1875 0.0632440476190483  8.4375 0.189732142857143  C 8.6875 0.316220238095238  8.88541666666667 0.468005952380952  9.03125 0.645089285714286  Z M 8.3203125 1.49888392857143  C 8.2578125 1.42299107142857  8.15104166666667 1.35342261904762  8 1.29017857142857  L 8 4.85714285714286  L 10.9375 4.85714285714286  C 10.8854166666667 4.67373511904762  10.828125 4.54408482142857  10.765625 4.46819196428571  L 8.3203125 1.49888392857143  Z M 1 15.7857142857143  L 11 15.7857142857143  L 11 6.07142857142857  L 7.75 6.07142857142857  C 7.54166666666667 6.07142857142857  7.36458333333333 5.9828869047619  7.21875 5.80580357142857  C 7.07291666666667 5.62872023809524  7 5.41369047619047  7 5.16071428571429  L 7 1.21428571428571  L 1 1.21428571428571  L 1 15.7857142857143  Z " fill-rule="nonzero" fill="#666666" stroke="none" transform="matrix(1 0 0 1 20 17 )" />
  </g>
</svg>