<?xml version="1.0" encoding="utf-8"?>
<svg version="1.1" xmlns:xlink="http://www.w3.org/1999/xlink" width="17px" height="14px" xmlns="http://www.w3.org/2000/svg">
  <g transform="matrix(1 0 0 1 -541 -339 )">
    <path d="M 8.097412109375 5.974609375  C 7.474853515625 6.658203125  6.7236328125 7  5.84375 7  C 4.9638671875 7  4.212646484375 6.658203125  3.590087890625 5.974609375  C 2.967529296875 5.291015625  2.65625 4.46614583333333  2.65625 3.5  C 2.65625 2.53385416666667  2.967529296875 1.708984375  3.590087890625 1.025390625  C 4.212646484375 0.341796875  4.9638671875 0  5.84375 0  C 6.7236328125 0  7.474853515625 0.341796875  8.097412109375 1.025390625  C 8.719970703125 1.708984375  9.03125 2.53385416666667  9.03125 3.5  C 9.03125 4.46614583333333  8.719970703125 5.291015625  8.097412109375 5.974609375  Z M 13.8125 4.95833333333333  L 13.8125 8.16666666666667  L 16.734375 8.16666666666667  C 16.8063151041667 8.16666666666667  16.8685709635417 8.19552951388889  16.921142578125 8.25325520833333  C 16.9737141927083 8.31098090277778  17 8.37934027777778  17 8.45833333333333  L 17 10.2083333333333  C 17 10.2873263888889  16.9737141927083 10.3556857638889  16.921142578125 10.4134114583333  C 16.8685709635417 10.4711371527778  16.8063151041667 10.5  16.734375 10.5  L 13.8125 10.5  L 13.8125 13.7083333333333  C 13.8125 13.7873263888889  13.7862141927083 13.8556857638889  13.733642578125 13.9134114583333  C 13.6810709635417 13.9711371527778  13.6188151041667 14  13.546875 14  L 11.953125 14  C 11.8811848958333 14  11.8189290364583 13.9711371527778  11.766357421875 13.9134114583333  C 11.7137858072917 13.8556857638889  11.6875 13.7873263888889  11.6875 13.7083333333333  L 11.6875 10.5  L 8.765625 10.5  C 8.69368489583333 10.5  8.63142903645833 10.4711371527778  8.578857421875 10.4134114583333  C 8.52628580729167 10.3556857638889  8.5 10.2873263888889  8.5 10.2083333333333  L 8.5 8.45833333333333  C 8.5 8.37934027777778  8.52628580729167 8.31098090277778  8.578857421875 8.25325520833333  C 8.63142903645833 8.19552951388889  8.69368489583333 8.16666666666667  8.765625 8.16666666666667  L 11.6875 8.16666666666667  L 11.6875 4.95833333333333  C 11.6875 4.87934027777778  11.7137858072917 4.81098090277778  11.766357421875 4.75325520833333  C 11.8189290364583 4.69552951388889  11.8811848958333 4.66666666666667  11.953125 4.66666666666667  L 13.546875 4.66666666666667  C 13.6188151041667 4.66666666666667  13.6810709635417 4.69552951388889  13.733642578125 4.75325520833333  C 13.7862141927083 4.81098090277778  13.8125 4.87934027777778  13.8125 4.95833333333333  Z M 7.703125 8.45833333333333  L 7.703125 10.2083333333333  C 7.703125 10.5243055555556  7.80826822916667 10.7977430555556  8.0185546875 11.0286458333333  C 8.22884114583333 11.2595486111111  8.47786458333333 11.375  8.765625 11.375  L 10.890625 11.375  L 10.890625 13.5442708333333  C 10.5143229166667 13.8480902777778  10.0411783854167 14  9.47119140625 14  L 2.21630859375 14  C 1.54671223958333 14  1.00992838541667 13.7903645833333  0.60595703125 13.37109375  C 0.201985677083333 12.9518229166667  0 12.3745659722222  0 11.6393229166667  C 0 11.3172743055556  0.00968424479166667 11.0028211805556  0.029052734375 10.6959635416667  C 0.0484212239583333 10.3891059027778  0.087158203125 10.0579427083333  0.145263671875 9.70247395833333  C 0.203369140625 9.34700520833333  0.276692708333333 9.01736111111111  0.365234375 8.71354166666667  C 0.453776041666667 8.40972222222222  0.57275390625 8.11349826388889  0.72216796875 7.82486979166667  C 0.87158203125 7.53624131944444  1.04313151041667 7.29014756944444  1.23681640625 7.08658854166667  C 1.43050130208333 6.88302951388889  1.66707356770833 6.72048611111111  1.946533203125 6.59895833333333  C 2.22599283854167 6.47743055555555  2.53450520833333 6.41666666666667  2.8720703125 6.41666666666667  C 2.97721354166667 6.41666666666667  3.08512369791667 6.46831597222222  3.19580078125 6.57161458333333  C 3.63297526041667 6.94227430555555  4.06046549479167 7.22026909722222  4.478271484375 7.40559895833333  C 4.89607747395833 7.59092881944444  5.35123697916667 7.68359375  5.84375 7.68359375  C 6.33626302083333 7.68359375  6.79142252604167 7.59092881944444  7.209228515625 7.40559895833333  C 7.62703450520833 7.22026909722222  8.05452473958333 6.94227430555555  8.49169921875 6.57161458333333  C 8.60237630208333 6.46831597222222  8.71028645833333 6.41666666666667  8.8154296875 6.41666666666667  C 9.5458984375 6.41666666666667  10.1463216145833 6.70833333333333  10.61669921875 7.29166666666667  L 8.765625 7.29166666666667  C 8.47786458333333 7.29166666666667  8.22884114583333 7.40711805555556  8.0185546875 7.63802083333333  C 7.80826822916667 7.86892361111111  7.703125 8.14236111111111  7.703125 8.45833333333333  Z " fill-rule="nonzero" fill="#aaaaaa" stroke="none" transform="matrix(1 0 0 1 541 339 )" />
  </g>
</svg>