<?xml version="1.0" encoding="utf-8"?>
<svg version="1.1" xmlns:xlink="http://www.w3.org/1999/xlink" width="30px" height="30px" xmlns="http://www.w3.org/2000/svg">
  <g transform="matrix(1 0 0 1 -534 -331 )">
    <path d="M 549 331  C 557.4 331  564 337.6  564 346  C 564 354.4  557.4 361  549 361  C 540.6 361  534 354.4  534 346  C 534 337.6  540.6 331  549 331  Z " fill-rule="nonzero" fill="#ffffff" stroke="none" />
    <path d="M 549 331.5  C 557.12 331.5  563.5 337.88  563.5 346  C 563.5 354.12  557.12 360.5  549 360.5  C 540.88 360.5  534.5 354.12  534.5 346  C 534.5 337.88  540.88 331.5  549 331.5  Z " stroke-width="1" stroke="#aaaaaa" fill="none" />
  </g>
</svg>