<?xml version="1.0" encoding="utf-8"?>
<svg version="1.1" xmlns:xlink="http://www.w3.org/1999/xlink" width="31px" height="31px" xmlns="http://www.w3.org/2000/svg">
  <g transform="matrix(1 0 0 1 -574 -331 )">
    <path d="M 589.5 331  C 598.18 331  605 337.82  605 346.5  C 605 355.18  598.18 362  589.5 362  C 580.82 362  574 355.18  574 346.5  C 574 337.82  580.82 331  589.5 331  Z " fill-rule="nonzero" fill="#ffffff" stroke="none" />
    <path d="M 589.5 331.5  C 597.9 331.5  604.5 338.1  604.5 346.5  C 604.5 354.9  597.9 361.5  589.5 361.5  C 581.1 361.5  574.5 354.9  574.5 346.5  C 574.5 338.1  581.1 331.5  589.5 331.5  Z " stroke-width="1" stroke="#aaaaaa" fill="none" />
  </g>
</svg>