<?xml version="1.0" encoding="utf-8"?>
<svg version="1.1" xmlns:xlink="http://www.w3.org/1999/xlink" width="12px" height="17px" xmlns="http://www.w3.org/2000/svg">
  <g transform="matrix(1 0 0 1 -20 -17 )">
    <path d="M 9.03125 0.6450892857142863  L 11.46875 3.6049107142857135  C 11.614583333333334 3.7819940476190466  11.739583333333334 4.02232142857143  11.84375 4.325892857142857  C 11.947916666666666 4.6294642857142865  12 4.907738095238095  12 5.1607142857142865  L 12 16.089285714285715  C 12 16.342261904761905  11.927083333333332 16.557291666666664  11.78125 16.734375  C 11.635416666666668 16.911458333333336  11.458333333333334 17  11.25 17  L 0.75 17  C 0.5416666666666667 17  0.36458333333333337 16.911458333333336  0.21875 16.734375  C 0.07291666666666666 16.557291666666664  0 16.342261904761905  0 16.089285714285715  L 0 0.9107142857142863  C 0 0.6577380952380948  0.07291666666666666 0.4427083333333327  0.21875 0.265625  C 0.36458333333333337 0.0885416666666673  0.5416666666666667 0  0.75 0  L 7.75 0  C 7.958333333333334 0  8.1875 0.06324404761904834  8.4375 0.18973214285714313  C 8.6875 0.3162202380952379  8.885416666666668 0.46800595238095166  9.03125 0.6450892857142863  Z M 8.3203125 1.4988839285714293  C 8.2578125 1.4229910714285707  8.151041666666668 1.353422619047617  8 1.2901785714285707  L 8 4.857142857142857  L 10.9375 4.857142857142857  C 10.885416666666668 4.673735119047617  10.828125 4.54408482142857  10.765625 4.4681919642857135  L 8.3203125 1.4988839285714293  Z M 1 15.785714285714286  L 11 15.785714285714286  L 11 6.07142857142857  L 7.75 6.07142857142857  C 7.541666666666666 6.07142857142857  7.364583333333334 5.982886904761903  7.21875 5.80580357142857  C 7.072916666666666 5.628720238095238  7 5.413690476190474  7 5.1607142857142865  L 7 1.2142857142857137  L 1 1.2142857142857137  L 1 15.785714285714286  Z " fill-rule="nonzero" fill="#666666" stroke="none" transform="matrix(1 0 0 1 20 17 )" />
  </g>
</svg>