<?xml version="1.0" encoding="utf-8"?>
<svg version="1.1" xmlns:xlink="http://www.w3.org/1999/xlink" width="15px" height="15px" xmlns="http://www.w3.org/2000/svg">
  <g transform="matrix(1 0 0 1 -69 -180 )">
    <path d="M 14.814453125 12.22265625  C 14.9381510416667 12.37109375  15 12.546875  15 12.75  L 15 14.25  C 15 14.453125  14.9381510416667 14.62890625  14.814453125 14.77734375  C 14.6907552083333 14.92578125  14.5442708333333 15  14.375 15  L 0.625 15  C 0.455729166666667 15  0.309244791666667 14.92578125  0.185546875 14.77734375  C 0.0618489583333333 14.62890625  0 14.453125  0 14.25  L 0 12.75  C 0 12.546875  0.0618489583333333 12.37109375  0.185546875 12.22265625  C 0.309244791666667 12.07421875  0.455729166666667 12  0.625 12  L 14.375 12  C 14.5442708333333 12  14.6907552083333 12.07421875  14.814453125 12.22265625  Z M 14.814453125 6.22265625  C 14.9381510416667 6.37109375  15 6.546875  15 6.75  L 15 8.25  C 15 8.453125  14.9381510416667 8.62890625  14.814453125 8.77734375  C 14.6907552083333 8.92578125  14.5442708333333 9  14.375 9  L 0.625 9  C 0.455729166666667 9  0.309244791666667 8.92578125  0.185546875 8.77734375  C 0.0618489583333333 8.62890625  0 8.453125  0 8.25  L 0 6.75  C 0 6.546875  0.0618489583333333 6.37109375  0.185546875 6.22265625  C 0.309244791666667 6.07421875  0.455729166666667 6  0.625 6  L 14.375 6  C 14.5442708333333 6  14.6907552083333 6.07421875  14.814453125 6.22265625  Z M 14.814453125 0.222656250000001  C 14.9381510416667 0.371093749999999  15 0.546874999999999  15 0.750000000000001  L 15 2.25  C 15 2.453125  14.9381510416667 2.62890625  14.814453125 2.77734375  C 14.6907552083333 2.92578125  14.5442708333333 3  14.375 3  L 0.625 3  C 0.455729166666667 3  0.309244791666667 2.92578125  0.185546875 2.77734375  C 0.0618489583333333 2.62890625  0 2.453125  0 2.25  L 0 0.750000000000001  C 0 0.546874999999999  0.0618489583333333 0.371093749999999  0.185546875 0.222656250000001  C 0.309244791666667 0.0742187499999991  0.455729166666667 0  0.625 0  L 14.375 0  C 14.5442708333333 0  14.6907552083333 0.0742187499999991  14.814453125 0.222656250000001  Z " fill-rule="nonzero" fill="#aaaaaa" stroke="none" transform="matrix(1 0 0 1 69 180 )" />
  </g>
</svg>