<?xml version="1.0" encoding="utf-8"?>
<svg version="1.1" xmlns:xlink="http://www.w3.org/1999/xlink" width="17px" height="14px" xmlns="http://www.w3.org/2000/svg">
  <g transform="matrix(1 0 0 1 -797 -179 )">
    <path d="M 7.928251121076233 10.5  L 8.461883408071749 10.5  L 9.56726457399103 9.346590909090908  L 8.11883408071749 7.835227272727272  L 7.013452914798207 8.988636363636363  L 7.013452914798207 9.545454545454547  L 7.928251121076233 9.545454545454547  L 7.928251121076233 10.5  Z M 12.64517937219731 3.669034090909091  C 12.75317638266069 3.5563446969696955  12.756352765321376 3.4469696969696955  12.654708520179373 3.340909090909091  C 12.55306427503737 3.2348484848484835  12.44824364723468 3.2381628787878776  12.3402466367713 3.3508522727272734  L 9.005044843049328 6.830965909090909  C 8.89704783258595 6.943655303030303  8.893871449925262 7.053030303030301  8.995515695067263 7.159090909090909  C 9.097159940209268 7.265151515151515  9.201980568011958 7.261837121212119  9.309977578475337 7.149147727272728  L 12.64517937219731 3.669034090909091  Z M 13.22645739910314 8.958806818181818  C 13.353512705530644 9.01183712121212  13.417040358744394 9.107954545454547  13.417040358744394 9.247159090909092  L 13.417040358744394 11.136363636363637  C 13.417040358744394 11.925189393939394  13.148636023916294 12.59966856060606  12.61182735426009 13.159801136363637  C 12.075018684603888 13.719933712121211  11.428624813153961 14  10.672645739910315 14  L 2.7443946188340806 14  C 1.9884155455904335 14  1.3420216741405082 13.719933712121211  0.8052130044843049 13.159801136363637  C 0.2684043348281016 12.59966856060606  0 11.925189393939394  0 11.136363636363637  L 0 2.863636363636364  C 0 2.0748106060606046  0.2684043348281016 1.4003314393939388  0.8052130044843049 0.8401988636363642  C 1.3420216741405082 0.2800662878787865  1.9884155455904335 0  2.7443946188340806 0  L 10.672645739910315 0  C 11.072869955156952 0  11.444506726457398 0.08285984848484773  11.78755605381166 0.24857954545454475  C 11.882847533632287 0.29498106060605966  11.940022421524663 0.3712121212121209  11.959080717488789 0.47727272727272685  C 11.978139013452914 0.5899621212121209  11.949551569506726 0.6860795454545447  11.873318385650224 0.765625  L 11.406390134529147 1.252840909090909  C 11.317451420029895 1.3456439393939388  11.215807174887892 1.372159090909091  11.10145739910314 1.3323863636363642  C 10.95534379671151 1.2926136363636358  10.812406576980568 1.2727272727272732  10.672645739910315 1.2727272727272732  L 2.7443946188340806 1.2727272727272732  C 2.3251121076233185 1.2727272727272732  1.9661808669656207 1.4285037878787865  1.6676008968609866 1.740056818181818  C 1.3690209267563531 2.0516098484848477  1.2197309417040358 2.426136363636364  1.2197309417040358 2.863636363636364  L 1.2197309417040358 11.136363636363637  C 1.2197309417040358 11.573863636363637  1.3690209267563531 11.948390151515149  1.6676008968609866 12.259943181818182  C 1.9661808669656207 12.571496212121211  2.3251121076233185 12.727272727272727  2.7443946188340806 12.727272727272727  L 10.672645739910315 12.727272727272727  C 11.091928251121075 12.727272727272727  11.450859491778774 12.571496212121211  11.749439461883409 12.259943181818182  C 12.048019431988044 11.948390151515149  12.197309417040358 11.573863636363637  12.197309417040358 11.136363636363637  L 12.197309417040358 9.883522727272728  C 12.197309417040358 9.797348484848484  12.225896860986548 9.724431818181818  12.283071748878925 9.664772727272728  L 12.89293721973094 9.028409090909092  C 12.988228699551568 8.928977272727272  13.099402092675637 8.905776515151516  13.22645739910314 8.958806818181818  Z M 6.098654708520179 8.590909090909092  L 12.502242152466367 1.909090909090909  L 15.24663677130045 4.772727272727273  L 8.84304932735426 11.454545454545453  L 6.098654708520179 11.454545454545453  L 6.098654708520179 8.590909090909092  Z M 17 2.545454545454545  C 17 2.8106060606060597  16.911061285500747 3.0359848484848477  16.73318385650224 3.221590909090909  L 15.856502242152466 4.136363636363636  L 13.112107623318385 1.2727272727272732  L 13.988789237668161 0.35795454545454475  C 14.166666666666668 0.17234848484848353  14.382660687593424 0.07954545454545525  14.636771300448432 0.07954545454545525  C 14.890881913303438 0.07954545454545525  15.106875934230196 0.17234848484848353  15.2847533632287 0.35795454545454475  L 16.73318385650224 1.869318181818182  C 16.911061285500747 2.0549242424242404  17 2.28030303030303  17 2.545454545454545  Z " fill-rule="nonzero" fill="#aaaaaa" stroke="none" transform="matrix(1 0 0 1 797 179 )" />
  </g>
</svg>