<svg t="1719199015375" class="icon" viewBox="0 0 1024 1024" version="1.1" xmlns="http://www.w3.org/2000/svg" p-id="5397" width="200" height="200"><path d="M358.3 597c0 11-9 20-20 20h-63.8c-11 0-20-9-20-20v-63.8c0-11 9-20 20-20h63.8c11 0 20 9 20 20V597zM358.3 804.6c0 11-9 20-20 20h-63.8c-11 0-20-9-20-20v-63.8c0-11 9-20 20-20h63.8c11 0 20 9 20 20v63.8zM564.9 597c0 11-9 20-20 20h-63.8c-11 0-20-9-20-20v-63.8c0-11 9-20 20-20h63.8c11 0 20 9 20 20V597zM564.9 804.6c0 11-9 20-20 20h-63.8c-11 0-20-9-20-20v-63.8c0-11 9-20 20-20h63.8c11 0 20 9 20 20v63.8zM772.2 597c0 11-9 20-20 20h-63.8c-11 0-20-9-20-20v-63.8c0-11 9-20 20-20h63.8c11 0 20 9 20 20V597zM772.2 804.6c0 11-9 20-20 20h-63.8c-11 0-20-9-20-20v-63.8c0-11 9-20 20-20h63.8c11 0 20 9 20 20v63.8zM361 344.9c0 11-9 20-20 20h-15c-11 0-20-9-20-20V119.3c0-11 9-20 20-20h15c11 0 20 9 20 20v225.6zM720 344.9c0 11-9 20-20 20h-15c-11 0-20-9-20-20V119.3c0-11 9-20 20-20h15c11 0 20 9 20 20v225.6z" fill="#2680F0" p-id="5398"></path><path d="M118 202.4c-11 0-20 9-20 20v685.5c0 11 9 20 20 20h790c11 0 20-9 20-20V222.4c0-11-9-20-20-20H118z m755 650.5c0 11-9 20-20 20H173c-11 0-20-9-20-20V277.3c0-11 9-20 20-20h680c11 0 20 9 20 20v575.6z" fill="#2680F0" p-id="5399"></path><path d="M118.7 410.5h790.5v55H118.7z" fill="#2680F0" p-id="5400"></path></svg>