<?xml version="1.0" encoding="utf-8"?>
<svg version="1.1" xmlns:xlink="http://www.w3.org/1999/xlink" width="27px" height="27px" xmlns="http://www.w3.org/2000/svg">
  <g transform="matrix(1 0 0 1 -1730 -5 )">
    <path d="M 26.46306818181818 10.355113636363637  C 26.821022727272727 10.713068181818178  27 11.147727272727272  27 11.659090909090908  L 27 15.34090909090909  C 27 15.852272727272728  26.821022727272727 16.286931818181817  26.46306818181818 16.644886363636363  C 26.105113636363637 17.002840909090907  25.670454545454547 17.18181818181818  25.159090909090907 17.18181818181818  L 17.18181818181818 17.18181818181818  L 17.18181818181818 25.15909090909091  C 17.18181818181818 25.670454545454547  17.00284090909091 26.105113636363633  16.644886363636363 26.46306818181818  C 16.286931818181824 26.821022727272727  15.852272727272728 27  15.340909090909092 27  L 11.65909090909091 27  C 11.147727272727273 27  10.713068181818183 26.821022727272727  10.355113636363637 26.46306818181818  C 9.997159090909092 26.105113636363633  9.818181818181818 25.670454545454547  9.818181818181818 25.15909090909091  L 9.818181818181818 17.18181818181818  L 1.8409090909090908 17.18181818181818  C 1.3295454545454546 17.18181818181818  0.8948863636363638 17.002840909090907  0.5369318181818181 16.644886363636363  C 0.1789772727272727 16.286931818181817  0 15.852272727272728  0 15.34090909090909  L 0 11.659090909090908  C 0 11.147727272727272  0.1789772727272727 10.713068181818178  0.5369318181818181 10.355113636363637  C 0.8948863636363638 9.99715909090909  1.3295454545454546 9.818181818181818  1.8409090909090908 9.818181818181818  L 9.818181818181818 9.818181818181818  L 9.818181818181818 1.8409090909090922  C 9.818181818181818 1.3295454545454533  9.997159090909092 0.8948863636363621  10.355113636363637 0.5369318181818185  C 10.713068181818183 0.17897727272727182  11.147727272727273 0  11.65909090909091 0  L 15.340909090909092 0  C 15.852272727272728 0  16.286931818181824 0.17897727272727182  16.644886363636363 0.5369318181818185  C 17.00284090909091 0.8948863636363621  17.18181818181818 1.3295454545454533  17.18181818181818 1.8409090909090922  L 17.18181818181818 9.818181818181818  L 25.159090909090907 9.818181818181818  C 25.670454545454547 9.818181818181818  26.105113636363637 9.99715909090909  26.46306818181818 10.355113636363637  Z " fill-rule="nonzero" fill="#ffffff" stroke="none" transform="matrix(1 0 0 1 1730 5 )" />
  </g>
</svg>