<?xml version="1.0" encoding="utf-8"?>
<svg version="1.1" xmlns:xlink="http://www.w3.org/1999/xlink" width="27px" height="7px" xmlns="http://www.w3.org/2000/svg">
  <g transform="matrix(1 0 0 1 -1782 -15 )">
    <path d="M 26.46306818181818 0.5104166666666664  C 26.821022727272727 0.8506944444444414  27 1.2638888888888875  27 1.75  L 27 5.25  C 27 5.73611111111111  26.821022727272727 6.149305555555554  26.46306818181818 6.489583333333334  C 26.105113636363637 6.82986111111111  25.670454545454547 7  25.159090909090907 7  L 1.8409090909090908 7  C 1.3295454545454546 7  0.8948863636363638 6.82986111111111  0.5369318181818181 6.489583333333334  C 0.1789772727272727 6.149305555555554  0 5.73611111111111  0 5.25  L 0 1.75  C 0 1.2638888888888875  0.1789772727272727 0.8506944444444414  0.5369318181818181 0.5104166666666664  C 0.8948863636363638 0.1701388888888875  1.3295454545454546 0  1.8409090909090908 0  L 25.159090909090907 0  C 25.670454545454547 0  26.105113636363637 0.1701388888888875  26.46306818181818 0.5104166666666664  Z " fill-rule="nonzero" fill="#ffffff" stroke="none" transform="matrix(1 0 0 1 1782 15 )" />
  </g>
</svg>