<?xml version="1.0" encoding="utf-8"?>
<svg version="1.1" xmlns:xlink="http://www.w3.org/1999/xlink" width="27px" height="7px" xmlns="http://www.w3.org/2000/svg">
  <g transform="matrix(1 0 0 1 -1782 -15 )">
    <path d="M 26.4630681818182 0.510416666666666  C 26.8210227272727 0.850694444444441  27 1.26388888888889  27 1.75  L 27 5.25  C 27 5.73611111111111  26.8210227272727 6.14930555555555  26.4630681818182 6.48958333333333  C 26.1051136363636 6.82986111111111  25.6704545454545 7  25.1590909090909 7  L 1.84090909090909 7  C 1.32954545454545 7  0.894886363636364 6.82986111111111  0.536931818181818 6.48958333333333  C 0.178977272727273 6.14930555555555  0 5.73611111111111  0 5.25  L 0 1.75  C 0 1.26388888888889  0.178977272727273 0.850694444444441  0.536931818181818 0.510416666666666  C 0.894886363636364 0.170138888888888  1.32954545454545 0  1.84090909090909 0  L 25.1590909090909 0  C 25.6704545454545 0  26.1051136363636 0.170138888888888  26.4630681818182 0.510416666666666  Z " fill-rule="nonzero" fill="#ffffff" stroke="none" transform="matrix(1 0 0 1 1782 15 )" />
  </g>
</svg>