<?xml version="1.0" encoding="utf-8"?>
<svg version="1.1" xmlns:xlink="http://www.w3.org/1999/xlink" width="153px" height="40px" xmlns="http://www.w3.org/2000/svg">
  <g transform="matrix(1 0 0 1 -1221 -882 )">
    <path d="M 1222 887  A 4 4 0 0 1 1226 883 L 1369 883  A 4 4 0 0 1 1373 887 L 1373 917  A 4 4 0 0 1 1369 921 L 1226 921  A 4 4 0 0 1 1222 917 L 1222 887  Z " fill-rule="nonzero" fill="#fef3f3" stroke="none" fill-opacity="0.996078431372549" />
    <path d="M 1221.5 887  A 4.5 4.5 0 0 1 1226 882.5 L 1369 882.5  A 4.5 4.5 0 0 1 1373.5 887 L 1373.5 917  A 4.5 4.5 0 0 1 1369 921.5 L 1226 921.5  A 4.5 4.5 0 0 1 1221.5 917 L 1221.5 887  Z " stroke-width="1" stroke="#f89898" fill="none" stroke-opacity="0.996078431372549" />
  </g>
</svg>