<?xml version="1.0" encoding="utf-8"?>
<svg version="1.1" xmlns:xlink="http://www.w3.org/1999/xlink" width="122px" height="40px" xmlns="http://www.w3.org/2000/svg">
  <g transform="matrix(1 0 0 1 -1397 -882 )">
    <path d="M 1397.5 887  A 4.5 4.5 0 0 1 1402 882.5 L 1514 882.5  A 4.5 4.5 0 0 1 1518.5 887 L 1518.5 917  A 4.5 4.5 0 0 1 1514 921.5 L 1402 921.5  A 4.5 4.5 0 0 1 1397.5 917 L 1397.5 887  Z " fill-rule="nonzero" fill="#dd6161" stroke="none" />
    <path d="M 1397.5 887  A 4.5 4.5 0 0 1 1402 882.5 L 1514 882.5  A 4.5 4.5 0 0 1 1518.5 887 L 1518.5 917  A 4.5 4.5 0 0 1 1514 921.5 L 1402 921.5  A 4.5 4.5 0 0 1 1397.5 917 L 1397.5 887  Z " stroke-width="1" stroke="#dd6161" fill="none" />
  </g>
</svg>