<?xml version="1.0" encoding="utf-8"?>
<svg version="1.1" xmlns:xlink="http://www.w3.org/1999/xlink" width="80px" height="35px" xmlns="http://www.w3.org/2000/svg">
  <g transform="matrix(1 0 0 1 -1369 -10 )">
    <path d="M 1369.5 15  A 4.5 4.5 0 0 1 1374 10.5 L 1444 10.5  A 4.5 4.5 0 0 1 1448.5 15 L 1448.5 40  A 4.5 4.5 0 0 1 1444 44.5 L 1374 44.5  A 4.5 4.5 0 0 1 1369.5 40 L 1369.5 15  Z " fill-rule="nonzero" fill="#dd6161" stroke="none" />
    <path d="M 1369.5 15  A 4.5 4.5 0 0 1 1374 10.5 L 1444 10.5  A 4.5 4.5 0 0 1 1448.5 15 L 1448.5 40  A 4.5 4.5 0 0 1 1444 44.5 L 1374 44.5  A 4.5 4.5 0 0 1 1369.5 40 L 1369.5 15  Z " stroke-width="1" stroke="#dd6161" fill="none" />
  </g>
</svg>