<?xml version="1.0" encoding="utf-8"?>
<svg version="1.1" xmlns:xlink="http://www.w3.org/1999/xlink" width="98px" height="40px" xmlns="http://www.w3.org/2000/svg">
  <g transform="matrix(1 0 0 1 -229 -374 )">
    <path d="M 230 379  A 4 4 0 0 1 234 375 L 322 375  A 4 4 0 0 1 326 379 L 326 409  A 4 4 0 0 1 322 413 L 234 413  A 4 4 0 0 1 230 409 L 230 379  Z " fill-rule="nonzero" fill="#409eff" stroke="none" fill-opacity="0.0784313725490196" />
    <path d="M 229.5 379  A 4.5 4.5 0 0 1 234 374.5 L 322 374.5  A 4.5 4.5 0 0 1 326.5 379 L 326.5 409  A 4.5 4.5 0 0 1 322 413.5 L 234 413.5  A 4.5 4.5 0 0 1 229.5 409 L 229.5 379  Z " stroke-width="1" stroke="#7abbff" fill="none" stroke-opacity="0.996078431372549" />
  </g>
</svg>