<?xml version="1.0" encoding="utf-8"?>
<svg version="1.1" xmlns:xlink="http://www.w3.org/1999/xlink" width="99px" height="40px" xmlns="http://www.w3.org/2000/svg">
  <g transform="matrix(1 0 0 1 -1421 -145 )">
    <path d="M 1421.5 150  A 4.5 4.5 0 0 1 1426 145.5 L 1515 145.5  A 4.5 4.5 0 0 1 1519.5 150 L 1519.5 180  A 4.5 4.5 0 0 1 1515 184.5 L 1426 184.5  A 4.5 4.5 0 0 1 1421.5 180 L 1421.5 150  Z " fill-rule="nonzero" fill="#f9f9f9" stroke="none" fill-opacity="0" />
    <path d="M 1421.5 150  A 4.5 4.5 0 0 1 1426 145.5 L 1515 145.5  A 4.5 4.5 0 0 1 1519.5 150 L 1519.5 180  A 4.5 4.5 0 0 1 1515 184.5 L 1426 184.5  A 4.5 4.5 0 0 1 1421.5 180 L 1421.5 150  Z " stroke-width="1" stroke="#e4e4e4" fill="none" />
  </g>
</svg>