<?xml version="1.0" encoding="utf-8"?>
<svg version="1.1" xmlns:xlink="http://www.w3.org/1999/xlink" width="139px" height="40px" xmlns="http://www.w3.org/2000/svg">
  <g transform="matrix(1 0 0 1 -1374 -1212 )">
    <path d="M 1375 1217  A 4 4 0 0 1 1379 1213 L 1508 1213  A 4 4 0 0 1 1512 1217 L 1512 1247  A 4 4 0 0 1 1508 1251 L 1379 1251  A 4 4 0 0 1 1375 1247 L 1375 1217  Z " fill-rule="nonzero" fill="#fef3f3" stroke="none" fill-opacity="0.996078431372549" />
    <path d="M 1374.5 1217  A 4.5 4.5 0 0 1 1379 1212.5 L 1508 1212.5  A 4.5 4.5 0 0 1 1512.5 1217 L 1512.5 1247  A 4.5 4.5 0 0 1 1508 1251.5 L 1379 1251.5  A 4.5 4.5 0 0 1 1374.5 1247 L 1374.5 1217  Z " stroke-width="1" stroke="#f89898" fill="none" stroke-opacity="0.996078431372549" />
  </g>
</svg>