<?xml version="1.0" encoding="utf-8"?>
<svg version="1.1" xmlns:xlink="http://www.w3.org/1999/xlink" width="173px" height="40px" xmlns="http://www.w3.org/2000/svg">
  <g transform="matrix(1 0 0 1 -1181 -1212 )">
    <path d="M 1181.5 1217  A 4.5 4.5 0 0 1 1186 1212.5 L 1349 1212.5  A 4.5 4.5 0 0 1 1353.5 1217 L 1353.5 1247  A 4.5 4.5 0 0 1 1349 1251.5 L 1186 1251.5  A 4.5 4.5 0 0 1 1181.5 1247 L 1181.5 1217  Z " fill-rule="nonzero" fill="#dd6161" stroke="none" />
    <path d="M 1181.5 1217  A 4.5 4.5 0 0 1 1186 1212.5 L 1349 1212.5  A 4.5 4.5 0 0 1 1353.5 1217 L 1353.5 1247  A 4.5 4.5 0 0 1 1349 1251.5 L 1186 1251.5  A 4.5 4.5 0 0 1 1181.5 1247 L 1181.5 1217  Z " stroke-width="1" stroke="#dd6161" fill="none" />
  </g>
</svg>