<?xml version="1.0" encoding="utf-8"?>
<svg version="1.1" xmlns:xlink="http://www.w3.org/1999/xlink" width="173px" height="40px" xmlns="http://www.w3.org/2000/svg">
  <g transform="matrix(1 0 0 1 -1181 -1212 )">
    <path d="M 1182 1217  A 4 4 0 0 1 1186 1213 L 1349 1213  A 4 4 0 0 1 1353 1217 L 1353 1247  A 4 4 0 0 1 1349 1251 L 1186 1251  A 4 4 0 0 1 1182 1247 L 1182 1217  Z " fill-rule="nonzero" fill="#fef3f3" stroke="none" fill-opacity="0.996078431372549" />
    <path d="M 1181.5 1217  A 4.5 4.5 0 0 1 1186 1212.5 L 1349 1212.5  A 4.5 4.5 0 0 1 1353.5 1217 L 1353.5 1247  A 4.5 4.5 0 0 1 1349 1251.5 L 1186 1251.5  A 4.5 4.5 0 0 1 1181.5 1247 L 1181.5 1217  Z " stroke-width="1" stroke="#f89898" fill="none" stroke-opacity="0.996078431372549" />
  </g>
</svg>