<?xml version="1.0" encoding="utf-8"?>
<svg version="1.1" xmlns:xlink="http://www.w3.org/1999/xlink" width="16px" height="16px" viewBox="1047 407.5  16 16" xmlns="http://www.w3.org/2000/svg">
  <path d="M 1055 407.5  C 1059.48 407.5  1063 411.02  1063 415.5  C 1063 419.98  1059.48 423.5  1055 423.5  C 1050.52 423.5  1047 419.98  1047 415.5  C 1047 411.02  1050.52 407.5  1055 407.5  Z " fill-rule="nonzero" fill="#f0f0f0" stroke="none" />
  <path d="M 1055 408  C 1059.2 408  1062.5 411.3  1062.5 415.5  C 1062.5 419.7  1059.2 423  1055 423  C 1050.8 423  1047.5 419.7  1047.5 415.5  C 1047.5 411.3  1050.8 408  1055 408  Z " stroke-width="1" stroke="#8c8c8c" fill="none" />
  <path d="M 1055 419.5  C 1052.76 419.5  1051 417.74  1051 415.5  C 1051 413.26  1052.76 411.5  1055 411.5  C 1057.24 411.5  1059 413.26  1059 415.5  C 1059 417.74  1057.24 419.5  1055 419.5  " fill-rule="nonzero" fill="#8c8c8c" stroke="none" />
</svg>