<?xml version="1.0" encoding="utf-8"?>
<svg version="1.1" xmlns:xlink="http://www.w3.org/1999/xlink" width="16px" height="16px" viewBox="1047 440.5  16 16" xmlns="http://www.w3.org/2000/svg">
  <path d="M 1055 440.5  C 1059.48 440.5  1063 444.02  1063 448.5  C 1063 452.98  1059.48 456.5  1055 456.5  C 1050.52 456.5  1047 452.98  1047 448.5  C 1047 444.02  1050.52 440.5  1055 440.5  Z " fill-rule="nonzero" fill="#f0f0f0" stroke="none" />
  <path d="M 1055 441  C 1059.2 441  1062.5 444.3  1062.5 448.5  C 1062.5 452.7  1059.2 456  1055 456  C 1050.8 456  1047.5 452.7  1047.5 448.5  C 1047.5 444.3  1050.8 441  1055 441  Z " stroke-width="1" stroke="#8c8c8c" fill="none" />
  <path d="M 1055 452.5  C 1052.76 452.5  1051 450.74  1051 448.5  C 1051 446.26  1052.76 444.5  1055 444.5  C 1057.24 444.5  1059 446.26  1059 448.5  C 1059 450.74  1057.24 452.5  1055 452.5  " fill-rule="nonzero" fill="#8c8c8c" stroke="none" />
</svg>