<?xml version="1.0" encoding="utf-8"?>
<svg version="1.1" xmlns:xlink="http://www.w3.org/1999/xlink" width="27px" height="20px" xmlns="http://www.w3.org/2000/svg">
  <g transform="matrix(1 0 0 1 -86 -897 )">
    <path d="M 12.5919282511211 15  L 13.4394618834081 15  L 15.195067264574 13.3522727272727  L 12.8946188340807 11.1931818181818  L 11.1390134529148 12.8409090909091  L 11.1390134529148 13.6363636363636  L 12.5919282511211 13.6363636363636  L 12.5919282511211 15  Z M 20.0835201793722 5.24147727272727  C 20.2550448430493 5.08049242424242  20.2600896860987 4.92424242424242  20.0986547085202 4.77272727272727  C 19.9372197309417 4.62121212121212  19.7707399103139 4.62594696969697  19.5992152466368 4.78693181818182  L 14.3021300448431 9.75852272727273  C 14.1306053811659 9.91950757575758  14.1255605381166 10.0757575757576  14.2869955156951 10.2272727272727  C 14.4484304932735 10.3787878787879  14.6149103139013 10.374053030303  14.7864349775785 10.2130681818182  L 20.0835201793722 5.24147727272727  Z M 21.0067264573991 12.7982954545455  C 21.2085201793722 12.874053030303  21.3094170403587 13.0113636363636  21.3094170403587 13.2102272727273  L 21.3094170403587 15.9090909090909  C 21.3094170403587 17.0359848484848  20.8831278026906 17.9995265151515  20.0305493273543 18.7997159090909  C 19.1779708520179 19.5999053030303  18.1513452914798 20  16.9506726457399 20  L 4.35874439461883 20  C 3.15807174887892 20  2.13144618834081 19.5999053030303  1.27886771300448 18.7997159090909  C 0.426289237668161 17.9995265151515  0 17.0359848484848  0 15.9090909090909  L 0 4.09090909090909  C 0 2.96401515151515  0.426289237668161 2.00047348484848  1.27886771300448 1.20028409090909  C 2.13144618834081 0.400094696969695  3.15807174887892 0  4.35874439461883 0  L 16.9506726457399 0  C 17.5863228699552 0  18.1765695067265 0.118371212121211  18.7214125560538 0.355113636363635  C 18.8727578475336 0.421401515151514  18.9635650224215 0.53030303030303  18.9938340807175 0.681818181818181  C 19.0241031390135 0.84280303030303  18.9786995515695 0.980113636363635  18.8576233183856 1.09375  L 18.1160313901345 1.78977272727273  C 17.9747757847534 1.92234848484848  17.8133408071749 1.96022727272727  17.6317264573991 1.90340909090909  C 17.39966367713 1.84659090909091  17.1726457399103 1.81818181818182  16.9506726457399 2  L 4.35874439461883 2  C 3.69282511210762 1.81818181818182  3.12275784753363 2.0407196969697  2.64854260089686 2.48579545454545  C 2.17432735426009 2.93087121212121  1.9372197309417 3.46590909090909  2 4.09090909090909  L 2 15.9090909090909  C 1.9372197309417 16.5340909090909  2.17432735426009 17.0691287878788  2.64854260089686 17.5142045454545  C 3.12275784753363 17.9592803030303  3.69282511210762 18.1818181818182  4.35874439461883 18  L 16.9506726457399 18  C 17.6165919282511 18.1818181818182  18.1866591928251 17.9592803030303  18.6608744394619 17.5142045454545  C 19.1350896860987 17.0691287878788  19.372197309417 16.5340909090909  19.372197309417 15.9090909090909  L 19.372197309417 14.1193181818182  C 19.372197309417 13.9962121212121  19.417600896861 13.8920454545455  19.5084080717489 13.8068181818182  L 20.4770179372197 12.8977272727273  C 20.6283632286996 12.7556818181818  20.804932735426 12.7225378787879  21.0067264573991 12.7982954545455  Z M 9.68609865470852 12.2727272727273  L 19.8565022421525 2.72727272727273  L 24.2152466367713 6.81818181818182  L 14.0448430493274 16.3636363636364  L 9.68609865470852 16.3636363636364  L 9.68609865470852 12.2727272727273  Z M 27 3.63636363636364  C 27 4.01515151515151  26.8587443946188 4.33712121212121  26.5762331838565 4.60227272727273  L 25.1838565022422 5.90909090909091  L 20.8251121076233 1.81818181818182  L 22.2174887892377 0.511363636363635  C 22.5 0.246212121212119  22.8430493273543 0.113636363636365  23.2466367713004 0.113636363636365  C 23.6502242152466 0.113636363636365  23.9932735426009 0.246212121212119  24.2757847533632 0.511363636363635  L 26.5762331838565 2.67045454545455  C 26.8587443946188 2.93560606060606  27 3.25757575757576  27 3.63636363636364  Z " fill-rule="nonzero" fill="#409eff" stroke="none" transform="matrix(1 0 0 1 86 897 )" />
  </g>
</svg>