<?xml version="1.0" encoding="utf-8"?>
<svg version="1.1" xmlns:xlink="http://www.w3.org/1999/xlink" width="92px" height="30px" xmlns="http://www.w3.org/2000/svg">
  <g transform="matrix(1 0 0 1 -569 -431 )">
    <path d="M 569.5 434  A 2.5 2.5 0 0 1 572 431.5 L 658 431.5  A 2.5 2.5 0 0 1 660.5 434 L 660.5 458  A 2.5 2.5 0 0 1 658 460.5 L 572 460.5  A 2.5 2.5 0 0 1 569.5 458 L 569.5 434  Z " fill-rule="nonzero" fill="#f9f9f9" stroke="none" />
    <path d="M 569.5 434  A 2.5 2.5 0 0 1 572 431.5 L 658 431.5  A 2.5 2.5 0 0 1 660.5 434 L 660.5 458  A 2.5 2.5 0 0 1 658 460.5 L 572 460.5  A 2.5 2.5 0 0 1 569.5 458 L 569.5 434  Z " stroke-width="1" stroke="#e4e4e4" fill="none" />
  </g>
</svg>