<?xml version="1.0" encoding="utf-8"?>
<svg version="1.1" xmlns:xlink="http://www.w3.org/1999/xlink" width="97px" height="40px" xmlns="http://www.w3.org/2000/svg">
  <g transform="matrix(1 0 0 1 -1304 -336 )">
    <path d="M 1305 341  A 4 4 0 0 1 1309 337 L 1396 337  A 4 4 0 0 1 1400 341 L 1400 371  A 4 4 0 0 1 1396 375 L 1309 375  A 4 4 0 0 1 1305 371 L 1305 341  Z " fill-rule="nonzero" fill="#f0f7ff" stroke="none" />
    <path d="M 1304.5 341  A 4.5 4.5 0 0 1 1309 336.5 L 1396 336.5  A 4.5 4.5 0 0 1 1400.5 341 L 1400.5 371  A 4.5 4.5 0 0 1 1396 375.5 L 1309 375.5  A 4.5 4.5 0 0 1 1304.5 371 L 1304.5 341  Z " stroke-width="1" stroke="#7abbff" fill="none" stroke-opacity="0.996078431372549" />
  </g>
</svg>