<?xml version="1.0" encoding="utf-8"?>
<svg version="1.1" xmlns:xlink="http://www.w3.org/1999/xlink" width="147px" height="40px" xmlns="http://www.w3.org/2000/svg">
  <g transform="matrix(1 0 0 1 -56 -336 )">
    <path d="M 57 341  A 4 4 0 0 1 61 337 L 198 337  A 4 4 0 0 1 202 341 L 202 371  A 4 4 0 0 1 198 375 L 61 375  A 4 4 0 0 1 57 371 L 57 341  Z " fill-rule="nonzero" fill="#409eff" stroke="none" fill-opacity="0.0784313725490196" />
    <path d="M 56.5 341  A 4.5 4.5 0 0 1 61 336.5 L 198 336.5  A 4.5 4.5 0 0 1 202.5 341 L 202.5 371  A 4.5 4.5 0 0 1 198 375.5 L 61 375.5  A 4.5 4.5 0 0 1 56.5 371 L 56.5 341  Z " stroke-width="1" stroke="#7abbff" fill="none" stroke-opacity="0.996078431372549" />
  </g>
</svg>