<?xml version="1.0" encoding="utf-8"?>
<svg version="1.1" xmlns:xlink="http://www.w3.org/1999/xlink" width="108px" height="40px" xmlns="http://www.w3.org/2000/svg">
  <g transform="matrix(1 0 0 1 -235 -336 )">
    <path d="M 235.5 341  A 4.5 4.5 0 0 1 240 336.5 L 338 336.5  A 4.5 4.5 0 0 1 342.5 341 L 342.5 371  A 4.5 4.5 0 0 1 338 375.5 L 240 375.5  A 4.5 4.5 0 0 1 235.5 371 L 235.5 341  Z " fill-rule="nonzero" fill="#409eff" stroke="none" fill-opacity="0.0784313725490196" />
    <path d="M 235.5 341  A 4.5 4.5 0 0 1 240 336.5 L 338 336.5  A 4.5 4.5 0 0 1 342.5 341 L 342.5 371  A 4.5 4.5 0 0 1 338 375.5 L 240 375.5  A 4.5 4.5 0 0 1 235.5 371 L 235.5 341  Z " stroke-width="1" stroke="#409eff" fill="none" />
  </g>
</svg>