<?xml version="1.0" encoding="utf-8"?>
<svg version="1.1" xmlns:xlink="http://www.w3.org/1999/xlink" width="15px" height="8px" xmlns="http://www.w3.org/2000/svg">
  <g transform="matrix(1 0 0 1 -747 -163 )">
    <path d="M 14.7216796875 0.2638888888888893  C 14.907226562500002 0.439814814814814  15 0.6481481481481461  15 0.8888888888888893  C 15 1.1296296296296289  14.907226562500002 1.337962962962962  14.7216796875 1.5138888888888893  L 8.1591796875 7.736111111111111  C 7.973632812500001 7.912037037037038  7.753906250000001 8  7.5 8  C 7.246093750000001 8  7.026367187500001 7.912037037037038  6.8408203125 7.736111111111111  L 0.2783203125 1.5138888888888893  C 0.0927734375 1.337962962962962  0 1.1296296296296289  0 0.8888888888888893  C 0 0.6481481481481461  0.0927734375 0.439814814814814  0.2783203125 0.2638888888888893  C 0.4638671875 0.08796296296296191  0.6835937500000001 0  0.9375 0  L 14.0625 0  C 14.31640625 0  14.5361328125 0.08796296296296191  14.7216796875 0.2638888888888893  Z " fill-rule="nonzero" fill="#666666" stroke="none" transform="matrix(1 0 0 1 747 163 )" />
  </g>
</svg>