<?xml version="1.0" encoding="utf-8"?>
<svg version="1.1" xmlns:xlink="http://www.w3.org/1999/xlink" width="94px" height="35px" xmlns="http://www.w3.org/2000/svg">
  <defs>
    <mask fill="white" id="clip87">
      <path d="M 0 32  L 0 3  C 0 1.32  1.31999999999999 0  3 0  L 43.0975609756098 0  L 91 0  C 92.68 0  94 1.32  94 3  L 94 32  C 94 33.68  92.68 35  91 35  L 3 35  C 1.31999999999999 35  0 33.68  0 32  Z " fill-rule="evenodd" />
    </mask>
  </defs>
  <g transform="matrix(1 0 0 1 -1382 -862 )">
    <path d="M 0 32  L 0 3  C 0 1.32  1.31999999999999 0  3 0  L 43.0975609756098 0  L 91 0  C 92.68 0  94 1.32  94 3  L 94 32  C 94 33.68  92.68 35  91 35  L 3 35  C 1.31999999999999 35  0 33.68  0 32  Z " fill-rule="nonzero" fill="#409eff" stroke="none" transform="matrix(1 0 0 1 1382 862 )" />
    <path d="M 0 32  L 0 3  C 0 1.32  1.31999999999999 0  3 0  L 43.0975609756098 0  L 91 0  C 92.68 0  94 1.32  94 3  L 94 32  C 94 33.68  92.68 35  91 35  L 3 35  C 1.31999999999999 35  0 33.68  0 32  Z " stroke-width="2" stroke="#409eff" fill="none" transform="matrix(1 0 0 1 1382 862 )" mask="url(#clip87)" />
  </g>
</svg>