<?xml version="1.0" encoding="utf-8"?>
<svg version="1.1" xmlns:xlink="http://www.w3.org/1999/xlink" width="94px" height="35px" xmlns="http://www.w3.org/2000/svg">
  <defs>
    <mask fill="white" id="clip97">
      <path d="M 0 32  L 0 3.0000000000000004  C 0 1.3200000000000003  1.3199999999999932 0  2.9999999999999996 0  L 43.09756097560978 0  L 91 0  C 92.68 0  94 1.3200000000000003  94 3.0000000000000004  L 94 32  C 94 33.68  92.68 35  91 35  L 2.9999999999999996 35  C 1.3199999999999932 35  0 33.68  0 32  Z " fill-rule="evenodd" />
    </mask>
  </defs>
  <g transform="matrix(1 0 0 1 -1382 -819 )">
    <path d="M 0 32  L 0 3.0000000000000004  C 0 1.3200000000000003  1.3199999999999932 0  2.9999999999999996 0  L 43.09756097560978 0  L 91 0  C 92.68 0  94 1.3200000000000003  94 3.0000000000000004  L 94 32  C 94 33.68  92.68 35  91 35  L 2.9999999999999996 35  C 1.3199999999999932 35  0 33.68  0 32  Z " fill-rule="nonzero" fill="#409eff" stroke="none" transform="matrix(1 0 0 1 1382 819 )" />
    <path d="M 0 32  L 0 3.0000000000000004  C 0 1.3200000000000003  1.3199999999999932 0  2.9999999999999996 0  L 43.09756097560978 0  L 91 0  C 92.68 0  94 1.3200000000000003  94 3.0000000000000004  L 94 32  C 94 33.68  92.68 35  91 35  L 2.9999999999999996 35  C 1.3199999999999932 35  0 33.68  0 32  Z " stroke-width="2" stroke="#409eff" fill="none" transform="matrix(1 0 0 1 1382 819 )" mask="url(#clip97)" />
  </g>
</svg>