<?xml version="1.0" encoding="utf-8"?>
<svg version="1.1" xmlns:xlink="http://www.w3.org/1999/xlink" width="206px" height="35px" xmlns="http://www.w3.org/2000/svg">
  <g transform="matrix(1 0 0 1 -265 -192 )">
    <path d="M 265.5 197  A 4.5 4.5 0 0 1 270 192.5 L 466 192.5  A 4.5 4.5 0 0 1 470.5 197 L 470.5 222  A 4.5 4.5 0 0 1 466 226.5 L 270 226.5  A 4.5 4.5 0 0 1 265.5 222 L 265.5 197  Z " fill-rule="nonzero" fill="#f9f9f9" stroke="none" fill-opacity="0" />
    <path d="M 265.5 197  A 4.5 4.5 0 0 1 270 192.5 L 466 192.5  A 4.5 4.5 0 0 1 470.5 197 L 470.5 222  A 4.5 4.5 0 0 1 466 226.5 L 270 226.5  A 4.5 4.5 0 0 1 265.5 222 L 265.5 197  Z " stroke-width="1" stroke="#e4e4e4" fill="none" />
  </g>
</svg>