<?xml version="1.0" encoding="utf-8"?>
<svg version="1.1" xmlns:xlink="http://www.w3.org/1999/xlink" width="206px" height="35px" xmlns="http://www.w3.org/2000/svg">
  <g transform="matrix(1 0 0 1 -265 -192 )">
    <path d="M 266 197  A 4 4 0 0 1 270 193 L 466 193  A 4 4 0 0 1 470 197 L 470 222  A 4 4 0 0 1 466 226 L 270 226  A 4 4 0 0 1 266 222 L 266 197  Z " fill-rule="nonzero" fill="#f0f7ff" stroke="none" />
    <path d="M 265.5 197  A 4.5 4.5 0 0 1 270 192.5 L 466 192.5  A 4.5 4.5 0 0 1 470.5 197 L 470.5 222  A 4.5 4.5 0 0 1 466 226.5 L 270 226.5  A 4.5 4.5 0 0 1 265.5 222 L 265.5 197  Z " stroke-width="1" stroke="#7abbff" fill="none" stroke-opacity="0.996078431372549" />
  </g>
</svg>