<?xml version="1.0" encoding="utf-8"?>
<svg version="1.1" xmlns:xlink="http://www.w3.org/1999/xlink" width="206px" height="35px" xmlns="http://www.w3.org/2000/svg">
  <g transform="matrix(1 0 0 1 -265 -193 )">
    <path d="M 265.5 198  A 4.5 4.5 0 0 1 270 193.5 L 466 193.5  A 4.5 4.5 0 0 1 470.5 198 L 470.5 223  A 4.5 4.5 0 0 1 466 227.5 L 270 227.5  A 4.5 4.5 0 0 1 265.5 223 L 265.5 198  Z " fill-rule="nonzero" fill="#f0f7ff" stroke="none" />
    <path d="M 265.5 198  A 4.5 4.5 0 0 1 270 193.5 L 466 193.5  A 4.5 4.5 0 0 1 470.5 198 L 470.5 223  A 4.5 4.5 0 0 1 466 227.5 L 270 227.5  A 4.5 4.5 0 0 1 265.5 223 L 265.5 198  Z " stroke-width="1" stroke="#409eff" fill="none" />
  </g>
</svg>