<?xml version="1.0" encoding="utf-8"?>
<svg version="1.1" xmlns:xlink="http://www.w3.org/1999/xlink" width="206px" height="35px" xmlns="http://www.w3.org/2000/svg">
  <g transform="matrix(1 0 0 1 -265 -235 )">
    <path d="M 265.5 240  A 4.5 4.5 0 0 1 270 235.5 L 466 235.5  A 4.5 4.5 0 0 1 470.5 240 L 470.5 265  A 4.5 4.5 0 0 1 466 269.5 L 270 269.5  A 4.5 4.5 0 0 1 265.5 265 L 265.5 240  Z " fill-rule="nonzero" fill="#f0f7ff" stroke="none" />
    <path d="M 265.5 240  A 4.5 4.5 0 0 1 270 235.5 L 466 235.5  A 4.5 4.5 0 0 1 470.5 240 L 470.5 265  A 4.5 4.5 0 0 1 466 269.5 L 270 269.5  A 4.5 4.5 0 0 1 265.5 265 L 265.5 240  Z " stroke-width="1" stroke="#409eff" fill="none" />
  </g>
</svg>