<?xml version="1.0" encoding="utf-8"?>
<svg version="1.1" xmlns:xlink="http://www.w3.org/1999/xlink" width="122px" height="40px" xmlns="http://www.w3.org/2000/svg">
  <g transform="matrix(1 0 0 1 -1397 -882 )">
    <path d="M 1398 887  A 4 4 0 0 1 1402 883 L 1514 883  A 4 4 0 0 1 1518 887 L 1518 917  A 4 4 0 0 1 1514 921 L 1402 921  A 4 4 0 0 1 1398 917 L 1398 887  Z " fill-rule="nonzero" fill="#fef3f3" stroke="none" fill-opacity="0.996078431372549" />
    <path d="M 1397.5 887  A 4.5 4.5 0 0 1 1402 882.5 L 1514 882.5  A 4.5 4.5 0 0 1 1518.5 887 L 1518.5 917  A 4.5 4.5 0 0 1 1514 921.5 L 1402 921.5  A 4.5 4.5 0 0 1 1397.5 917 L 1397.5 887  Z " stroke-width="1" stroke="#f89898" fill="none" stroke-opacity="0.996078431372549" />
  </g>
</svg>