<?xml version="1.0" encoding="utf-8"?>
<svg version="1.1" xmlns:xlink="http://www.w3.org/1999/xlink" width="71px" height="50px" xmlns="http://www.w3.org/2000/svg">
  <defs>
    <path d="M 0 0  L 1024 0  L 1024 1024  L 0 1024  Z " fill-rule="evenodd" fill="black" id="path48" />
    <clipPath id="clip49">
      <use xlink:href="#path48" />
    </clipPath>
    <filter x="-50.00%" y="-50.00%" width="200.00%" height="200.00%" filterUnits="objectBoundingBox" id="filter50">
      <feColorMatrix type="matrix" values="1 0 0 0 0  0 1 0 0 0  0 0 1 0 0  0 0 0 1 0  " in="SourceGraphic" />
    </filter>
    <filter x="695px" y="431px" width="71px" height="50px" filterUnits="userSpaceOnUse" id="filter51">
      <feOffset dx="5" dy="5" in="SourceAlpha" result="shadowOffsetInner" />
      <feGaussianBlur stdDeviation="2.5" in="shadowOffsetInner" result="shadowGaussian" />
      <feComposite in2="shadowGaussian" operator="atop" in="SourceAlpha" result="shadowComposite" />
      <feColorMatrix type="matrix" values="0 0 0 0 0.9490196078431372  0 0 0 0 0.9490196078431372  0 0 0 0 0.9490196078431372  0 0 0 0.34901960784313724 0  " in="shadowComposite" />
    </filter>
    <g id="widget52">
      <g transform="matrix(0.0390625 0 0 0.0390625 705.5 431 )" clip-path="url(#clip49)" filter="url(#filter50)">
        <path d="M465.67936 717.2864c-141.1584 0-256-114.8416-256-256s114.8416-256 256-256 256 114.8416 256 256-114.8416 256-256 256z m0-471.04c-118.57408 0-215.04 96.46592-215.04 215.04s96.46592 215.04 215.04 215.04 215.04-96.46592 215.04-215.04-96.46592-215.04-215.04-215.04z" fill="" p-id="4247"></path>
        <path d="M744.192 767.03744a20.41344 20.41344 0 0 1-14.47936-6.00064l-108.61056-108.61056a20.48 20.48 0 1 1 28.95872-28.95872l108.61056 108.61056a20.48 20.48 0 0 1-14.47936 34.95936z" fill="" p-id="4248"></path>
        <path d="M808.3456 791.01952l-21.72416 21.72416a20.53632 20.53632 0 0 1-28.96384 0l-79.64672-79.64672a20.53632 20.53632 0 0 1 0-28.96384l21.72416-21.72416a20.53632 20.53632 0 0 1 28.96384 0l79.64672 79.64672a20.53632 20.53632 0 0 1 0 28.96384z" fill="" p-id="4249"></path>
      </g>
      <path d="M 695.5 470.5  L 695.5 431.5  L 755.5 431.5  L 755.5 470.5  L 695.5 470.5  Z " stroke-width="1" stroke="#f2f2f2" fill="none" />
    </g>
  </defs>
  <g transform="matrix(1 0 0 1 -695 -431 )">
    <use xlink:href="#widget52" filter="url(#filter51)" />
    <use xlink:href="#widget52" />
  </g>
</svg>