<?xml version="1.0" encoding="utf-8"?>
<svg version="1.1" xmlns:xlink="http://www.w3.org/1999/xlink" width="50px" height="51px" xmlns="http://www.w3.org/2000/svg">
  <g transform="matrix(1 0 0 1 -88 -1656 )">
    <path d="M 113 1657  C 126.44 1657  137 1667.78  137 1681.5  C 137 1695.22  126.44 1706  113 1706  C 99.56 1706  89 1695.22  89 1681.5  C 89 1667.78  99.56 1657  113 1657  Z " fill-rule="nonzero" fill="#409eff" stroke="none" />
    <path d="M 113 1657  C 126.44 1657  137 1667.78  137 1681.5  C 137 1695.22  126.44 1706  113 1706  C 99.56 1706  89 1695.22  89 1681.5  C 89 1667.78  99.56 1657  113 1657  Z " stroke-width="2" stroke="#409eff" fill="none" />
  </g>
</svg>