<?xml version="1.0" encoding="utf-8"?>
<svg version="1.1" xmlns:xlink="http://www.w3.org/1999/xlink" width="50px" height="51px" xmlns="http://www.w3.org/2000/svg">
  <g transform="matrix(1 0 0 1 -88 -713 )">
    <path d="M 113 714  C 126.44 714  137 724.78  137 738.5  C 137 752.22  126.44 763  113 763  C 99.56 763  89 752.22  89 738.5  C 89 724.78  99.56 714  113 714  Z " fill-rule="nonzero" fill="#ffffff" stroke="none" />
    <path d="M 113 714  C 126.44 714  137 724.78  137 738.5  C 137 752.22  126.44 763  113 763  C 99.56 763  89 752.22  89 738.5  C 89 724.78  99.56 714  113 714  Z " stroke-width="2" stroke="#409eff" fill="none" />
  </g>
</svg>