<?xml version="1.0" encoding="utf-8"?>
<svg version="1.1" xmlns:xlink="http://www.w3.org/1999/xlink" width="50px" height="25px" xmlns="http://www.w3.org/2000/svg">
  <g transform="matrix(1 0 0 1 -375 -305 )">
    <path d="M 375.5 308  A 2.5 2.5 0 0 1 378 305.5 L 422 305.5  A 2.5 2.5 0 0 1 424.5 308 L 424.5 327  A 2.5 2.5 0 0 1 422 329.5 L 378 329.5  A 2.5 2.5 0 0 1 375.5 327 L 375.5 308  Z " fill-rule="nonzero" fill="#f0f7ff" stroke="none" />
    <path d="M 375.5 308  A 2.5 2.5 0 0 1 378 305.5 L 422 305.5  A 2.5 2.5 0 0 1 424.5 308 L 424.5 327  A 2.5 2.5 0 0 1 422 329.5 L 378 329.5  A 2.5 2.5 0 0 1 375.5 327 L 375.5 308  Z " stroke-width="1" stroke="#409eff" fill="none" />
  </g>
</svg>