<?xml version="1.0" encoding="utf-8"?>
<svg version="1.1" xmlns:xlink="http://www.w3.org/1999/xlink" width="115px" height="29px" xmlns="http://www.w3.org/2000/svg">
  <defs>
    <mask fill="white" id="clip82">
      <path d="M 0 23.2  L 0 5.8  C 0 2.552  2.72043010752702 0  6.18279569892486 0  L 38.6043599941081 0  L 41.992193253793 0  L 108.817204301075 0  C 112.279569892473 0  115 2.552  115 5.8  L 115 23.2  C 115 26.448  112.279569892473 29  108.817204301075 29  L 53.2780821917808 29  L 6.18279569892486 29  C 2.72043010752702 29  0 26.448  0 23.2  Z " fill-rule="evenodd" />
    </mask>
  </defs>
  <g transform="matrix(1 0 0 1 -1339 -6 )">
    <path d="M 0 23.2  L 0 5.8  C 0 2.552  2.72043010752702 0  6.18279569892486 0  L 38.6043599941081 0  L 41.992193253793 0  L 108.817204301075 0  C 112.279569892473 0  115 2.552  115 5.8  L 115 23.2  C 115 26.448  112.279569892473 29  108.817204301075 29  L 53.2780821917808 29  L 6.18279569892486 29  C 2.72043010752702 29  0 26.448  0 23.2  Z " fill-rule="nonzero" fill="#2b85e4" stroke="none" transform="matrix(1 0 0 1 1339 6 )" />
    <path d="M 0 23.2  L 0 5.8  C 0 2.552  2.72043010752702 0  6.18279569892486 0  L 38.6043599941081 0  L 41.992193253793 0  L 108.817204301075 0  C 112.279569892473 0  115 2.552  115 5.8  L 115 23.2  C 115 26.448  112.279569892473 29  108.817204301075 29  L 53.2780821917808 29  L 6.18279569892486 29  C 2.72043010752702 29  0 26.448  0 23.2  Z " stroke-width="2" stroke="#2b85e4" fill="none" transform="matrix(1 0 0 1 1339 6 )" mask="url(#clip82)" />
  </g>
</svg>