<?xml version="1.0" encoding="utf-8"?>
<svg version="1.1" xmlns:xlink="http://www.w3.org/1999/xlink" width="100px" height="35px" xmlns="http://www.w3.org/2000/svg">
  <g transform="matrix(1 0 0 1 -2277 95 )">
    <path d="M 2277.5 -90  A 4.5 4.5 0 0 1 2282 -94.5 L 2372 -94.5  A 4.5 4.5 0 0 1 2376.5 -90 L 2376.5 -65  A 4.5 4.5 0 0 1 2372 -60.5 L 2282 -60.5  A 4.5 4.5 0 0 1 2277.5 -65 L 2277.5 -90  Z " fill-rule="nonzero" fill="#f9f9f9" stroke="none" fill-opacity="0" />
    <path d="M 2277.5 -90  A 4.5 4.5 0 0 1 2282 -94.5 L 2372 -94.5  A 4.5 4.5 0 0 1 2376.5 -90 L 2376.5 -65  A 4.5 4.5 0 0 1 2372 -60.5 L 2282 -60.5  A 4.5 4.5 0 0 1 2277.5 -65 L 2277.5 -90  Z " stroke-width="1" stroke="#409eff" fill="none" />
  </g>
</svg>