<?xml version="1.0" encoding="utf-8"?>
<svg version="1.1" xmlns:xlink="http://www.w3.org/1999/xlink" width="115px" height="29px" xmlns="http://www.w3.org/2000/svg">
  <defs>
    <mask fill="white" id="clip66">
      <path d="M 0 23.200000000000003  L 0 5.800000000000001  C 0 2.551999999999999  2.7204301075270223 0  6.182795698924861 0  L 38.60435999410811 0  L 41.992193253792976 0  L 108.81720430107514 0  C 112.27956989247298 0  115 2.551999999999999  115 5.800000000000001  L 115 23.200000000000003  C 115 26.448  112.27956989247298 29  108.81720430107514 29  L 53.27808219178081 29  L 6.182795698924861 29  C 2.7204301075270223 29  0 26.448  0 23.200000000000003  Z " fill-rule="evenodd" />
    </mask>
  </defs>
  <g transform="matrix(1 0 0 1 -1339 -6 )">
    <path d="M 0 23.200000000000003  L 0 5.800000000000001  C 0 2.551999999999999  2.7204301075270223 0  6.182795698924861 0  L 38.60435999410811 0  L 41.992193253792976 0  L 108.81720430107514 0  C 112.27956989247298 0  115 2.551999999999999  115 5.800000000000001  L 115 23.200000000000003  C 115 26.448  112.27956989247298 29  108.81720430107514 29  L 53.27808219178081 29  L 6.182795698924861 29  C 2.7204301075270223 29  0 26.448  0 23.200000000000003  Z " fill-rule="nonzero" fill="#2b85e4" stroke="none" transform="matrix(1 0 0 1 1339 6 )" />
    <path d="M 0 23.200000000000003  L 0 5.800000000000001  C 0 2.551999999999999  2.7204301075270223 0  6.182795698924861 0  L 38.60435999410811 0  L 41.992193253792976 0  L 108.81720430107514 0  C 112.27956989247298 0  115 2.551999999999999  115 5.800000000000001  L 115 23.200000000000003  C 115 26.448  112.27956989247298 29  108.81720430107514 29  L 53.27808219178081 29  L 6.182795698924861 29  C 2.7204301075270223 29  0 26.448  0 23.200000000000003  Z " stroke-width="2" stroke="#2b85e4" fill="none" transform="matrix(1 0 0 1 1339 6 )" mask="url(#clip66)" />
  </g>
</svg>