<?xml version="1.0" encoding="utf-8"?>
<svg version="1.1" xmlns:xlink="http://www.w3.org/1999/xlink" width="110px" height="40px" xmlns="http://www.w3.org/2000/svg">
  <g transform="matrix(1 0 0 1 -235 -369 )">
    <path d="M 236 374  A 4 4 0 0 1 240 370 L 340 370  A 4 4 0 0 1 344 374 L 344 404  A 4 4 0 0 1 340 408 L 240 408  A 4 4 0 0 1 236 404 L 236 374  Z " fill-rule="nonzero" fill="#409eff" stroke="none" fill-opacity="0.0784313725490196" />
    <path d="M 235.5 374  A 4.5 4.5 0 0 1 240 369.5 L 340 369.5  A 4.5 4.5 0 0 1 344.5 374 L 344.5 404  A 4.5 4.5 0 0 1 340 408.5 L 240 408.5  A 4.5 4.5 0 0 1 235.5 404 L 235.5 374  Z " stroke-width="1" stroke="#7abbff" fill="none" stroke-opacity="0.996078431372549" />
  </g>
</svg>