<?xml version="1.0" encoding="utf-8"?>
<svg version="1.1" xmlns:xlink="http://www.w3.org/1999/xlink" width="26px" height="20px" xmlns="http://www.w3.org/2000/svg">
  <g transform="matrix(1 0 0 1 -14 -59 )">
    <path d="M 12.1255605381166 15  L 12.9417040358744 15  L 14.6322869955157 13.3522727272727  L 12.4170403587444 11.1931818181818  L 10.7264573991031 12.8409090909091  L 10.7264573991031 13.6363636363636  L 12.1255605381166 13.6363636363636  L 12.1255605381166 15  Z M 19.3396860986547 5.24147727272727  C 19.5048579970105 5.08049242424242  19.5097159940209 4.92424242424242  19.3542600896861 4.77272727272727  C 19.1988041853513 4.62121212121212  19.038490284006 4.62594696969697  18.8733183856502 4.78693181818182  L 13.7724215246637 9.75852272727273  C 13.6072496263079 9.91950757575758  13.6023916292975 10.0757575757576  13.7578475336323 10.2272727272727  C 13.9133034379671 10.3787878787879  14.0736173393124 10.374053030303  14.2387892376682 10.2130681818182  L 19.3396860986547 5.24147727272727  Z M 20.2286995515695 12.7982954545455  C 20.423019431988 12.874053030303  20.5201793721973 13.0113636363636  20.5201793721973 13.2102272727273  L 20.5201793721973 15.9090909090909  C 20.5201793721973 17.0359848484848  20.1096786248132 17.9995265151515  19.2886771300448 18.7997159090909  C 18.4676756352765 19.5999053030303  17.4790732436472 20  16.322869955157 20  L 4.19730941704036 20  C 3.04110612855008 20  2.05250373692078 19.5999053030303  1.23150224215247 18.7997159090909  C 0.410500747384155 17.9995265151515  0 17.0359848484848  0 15.9090909090909  L 0 4.09090909090909  C 0 2.96401515151515  0.410500747384155 2.00047348484848  1.23150224215247 1.20028409090909  C 2.05250373692078 0.400094696969695  3.04110612855008 0  4.19730941704036 0  L 16.322869955157 0  C 16.9349775784753 0  17.5033632286996 0.118371212121211  18.0280269058296 0.355113636363635  C 18.1737668161435 0.421401515151514  18.2612107623318 0.53030303030303  18.2903587443946 0.681818181818181  C 18.3195067264574 0.84280303030303  18.2757847533632 0.980113636363635  18.1591928251121 1.09375  L 17.445067264574 1.78977272727273  C 17.309043348281 1.92234848484848  17.1535874439462 1.96022727272727  16.9786995515695 1.90340909090909  C 16.7552316890882 1.84659090909091  16.5366218236173 1.81818181818182  16.322869955157 2  L 4.19730941704036 2  C 3.55605381165919 1.81818181818182  3.00710014947683 2.0407196969697  2.55044843049327 2.48579545454545  C 2.09379671150972 2.93087121212121  1.86547085201794 3.46590909090909  2 4.09090909090909  L 2 15.9090909090909  C 1.86547085201794 16.5340909090909  2.09379671150972 17.0691287878788  2.55044843049327 17.5142045454545  C 3.00710014947683 17.9592803030303  3.55605381165919 18.1818181818182  4.19730941704036 18  L 16.322869955157 18  C 16.9641255605381 18.1818181818182  17.5130792227205 17.9592803030303  17.969730941704 17.5142045454545  C 18.4263826606876 17.0691287878788  18.6547085201794 16.5340909090909  18.6547085201794 15.9090909090909  L 18.6547085201794 14.1193181818182  C 18.6547085201794 13.9962121212121  18.6984304932735 13.8920454545455  18.7858744394619 13.8068181818182  L 19.7186098654709 12.8977272727273  C 19.8643497757848 12.7556818181818  20.034379671151 12.7225378787879  20.2286995515695 12.7982954545455  Z M 9.32735426008969 12.2727272727273  L 19.1210762331839 2.72727272727273  L 23.3183856502242 6.81818181818182  L 13.52466367713 16.3636363636364  L 9.32735426008969 16.3636363636364  L 9.32735426008969 12.2727272727273  Z M 26 3.63636363636364  C 26 4.01515151515151  25.863976083707 4.33712121212121  25.5919282511211 4.60227272727273  L 24.2511210762332 5.90909090909091  L 20.0538116591928 1.81818181818182  L 21.3946188340807 0.511363636363635  C 21.6666666666667 0.246212121212119  21.9970104633782 0.113636363636365  22.3856502242152 0.113636363636365  C 22.7742899850523 0.113636363636365  23.1046337817638 0.246212121212119  23.3766816143498 0.511363636363635  L 25.5919282511211 2.67045454545455  C 25.863976083707 2.93560606060606  26 3.25757575757576  26 3.63636363636364  Z " fill-rule="nonzero" fill="#2b85e4" stroke="none" transform="matrix(1 0 0 1 14 59 )" />
  </g>
</svg>