<?xml version="1.0" encoding="utf-8"?>
<svg version="1.1" xmlns:xlink="http://www.w3.org/1999/xlink" width="26px" height="6px" xmlns="http://www.w3.org/2000/svg">
  <g transform="matrix(1 0 0 1 -12 -66 )">
    <path d="M 25.3180803571429 0.55078125  C 25.772693452381 0.917968749999999  26 1.359375  26 1.875  L 26 4.125  C 26 4.640625  25.772693452381 5.08203125  25.3180803571429 5.44921875  C 24.8634672619048 5.81640625  24.3169642857143 6  23.6785714285714 6  L 2.32142857142857 6  C 1.68303571428571 6  1.13653273809524 5.81640625  0.681919642857143 5.44921875  C 0.227306547619048 5.08203125  0 4.640625  0 4.125  L 0 1.875  C 0 1.359375  0.227306547619048 0.917968749999999  0.681919642857143 0.55078125  C 1.13653273809524 0.183593750000001  1.68303571428571 0  2.32142857142857 0  L 23.6785714285714 0  C 24.3169642857143 0  24.8634672619048 0.183593750000001  25.3180803571429 0.55078125  Z " fill-rule="nonzero" fill="#2b85e4" stroke="none" transform="matrix(1 0 0 1 12 66 )" />
  </g>
</svg>