<?xml version="1.0" encoding="utf-8"?>
<svg version="1.1" xmlns:xlink="http://www.w3.org/1999/xlink" width="26px" height="20px" xmlns="http://www.w3.org/2000/svg">
  <g transform="matrix(1 0 0 1 -14 -59 )">
    <path d="M 12.125560538116591 15  L 12.941704035874439 15  L 14.632286995515694 13.352272727272727  L 12.417040358744394 11.193181818181817  L 10.72645739910314 12.840909090909092  L 10.72645739910314 13.636363636363637  L 12.125560538116591 13.636363636363637  L 12.125560538116591 15  Z M 19.33968609865471 5.241477272727273  C 19.50485799701047 5.080492424242422  19.509715994020926 4.924242424242422  19.3542600896861 4.772727272727273  C 19.19880418535127 4.621212121212119  19.03849028400598 4.625946969696968  18.873318385650222 4.786931818181818  L 13.772421524663677 9.758522727272727  C 13.607249626307922 9.919507575757576  13.60239162929746 10.075757575757574  13.757847533632287 10.227272727272727  C 13.913303437967116 10.378787878787879  14.073617339312408 10.374053030303028  14.238789237668163 10.213068181818183  L 19.33968609865471 5.241477272727273  Z M 20.22869955156951 12.798295454545453  C 20.423019431988045 12.874053030303028  20.52017937219731 13.011363636363637  20.52017937219731 13.210227272727273  L 20.52017937219731 15.909090909090908  C 20.52017937219731 17.035984848484848  20.109678624813156 17.999526515151516  19.288677130044842 18.799715909090907  C 18.467675635276535 19.599905303030305  17.479073243647235 20  16.322869955156953 20  L 4.197309417040358 20  C 3.041106128550075 20  2.0525037369207775 19.599905303030305  1.2315022421524664 18.799715909090907  C 0.41050074738415543 17.999526515151516  0 17.035984848484848  0 15.909090909090908  L 0 4.090909090909092  C 0 2.964015151515149  0.41050074738415543 2.000473484848484  1.2315022421524664 1.2002840909090917  C 2.0525037369207775 0.400094696969695  3.041106128550075 0  4.197309417040358 0  L 16.322869955156953 0  C 16.934977578475337 0  17.503363228699552 0.11837121212121104  18.0280269058296 0.35511363636363535  C 18.173766816143498 0.4214015151515138  18.26121076233184 0.5303030303030298  18.29035874439462 0.6818181818181812  C 18.319506726457398 0.8428030303030298  18.27578475336323 0.9801136363636354  18.159192825112108 1.09375  L 17.44506726457399 1.789772727272727  C 17.309043348281016 1.922348484848484  17.15358744394619 1.960227272727273  16.97869955156951 1.9034090909090917  C 16.75523168908819 1.8465909090909083  16.536621823617338 1.8181818181818188  16.322869955156953 2  L 4.197309417040358 2  C 3.556053811659193 1.8181818181818188  3.0071001494768317 2.040719696969695  2.5504484304932737 2.485795454545454  C 2.0937967115097162 2.930871212121211  1.8654708520179373 3.4659090909090917  2 4.090909090909092  L 2 15.909090909090908  C 1.8654708520179373 16.534090909090907  2.0937967115097162 17.069128787878785  2.5504484304932737 17.514204545454547  C 3.0071001494768317 17.959280303030305  3.556053811659193 18.18181818181818  4.197309417040358 18  L 16.322869955156953 18  C 16.964125560538115 18.18181818181818  17.513079222720478 17.959280303030305  17.969730941704036 17.514204545454547  C 18.426382660687594 17.069128787878785  18.654708520179373 16.534090909090907  18.654708520179373 15.909090909090908  L 18.654708520179373 14.119318181818183  C 18.654708520179373 13.99621212121212  18.698430493273545 13.892045454545453  18.785874439461885 13.806818181818183  L 19.718609865470853 12.897727272727273  C 19.864349775784753 12.755681818181817  20.034379671150973 12.722537878787879  20.22869955156951 12.798295454545453  Z M 9.327354260089686 12.272727272727273  L 19.121076233183857 2.727272727272727  L 23.318385650224215 6.818181818181818  L 13.524663677130043 16.363636363636363  L 9.327354260089686 16.363636363636363  L 9.327354260089686 12.272727272727273  Z M 26 3.6363636363636354  C 26 4.015151515151514  25.863976083707026 4.337121212121211  25.591928251121075 4.602272727272727  L 24.251121076233183 5.909090909090908  L 20.053811659192824 1.8181818181818188  L 21.394618834080717 0.5113636363636354  C 21.666666666666668 0.24621212121211933  21.997010463378178 0.11363636363636465  22.385650224215247 0.11363636363636465  C 22.774289985052317 0.11363636363636465  23.104633781763827 0.24621212121211933  23.376681614349778 0.5113636363636354  L 25.591928251121075 2.670454545454546  C 25.863976083707026 2.9356060606060574  26 3.257575757575757  26 3.6363636363636354  Z " fill-rule="nonzero" fill="#2b85e4" stroke="none" transform="matrix(1 0 0 1 14 59 )" />
  </g>
</svg>