<?xml version="1.0" encoding="utf-8"?>
<svg version="1.1" xmlns:xlink="http://www.w3.org/1999/xlink" width="100px" height="33px" xmlns="http://www.w3.org/2000/svg">
  <g transform="matrix(1 0 0 1 -603 -680 )">
    <path d="M 603.5 683  A 2.5 2.5 0 0 1 606 680.5 L 700 680.5  A 2.5 2.5 0 0 1 702.5 683 L 702.5 710  A 2.5 2.5 0 0 1 700 712.5 L 606 712.5  A 2.5 2.5 0 0 1 603.5 710 L 603.5 683  Z " fill-rule="nonzero" fill="#f0f7ff" stroke="none" />
    <path d="M 603.5 683  A 2.5 2.5 0 0 1 606 680.5 L 700 680.5  A 2.5 2.5 0 0 1 702.5 683 L 702.5 710  A 2.5 2.5 0 0 1 700 712.5 L 606 712.5  A 2.5 2.5 0 0 1 603.5 710 L 603.5 683  Z " stroke-width="1" stroke="#409eff" fill="none" />
  </g>
</svg>