<?xml version="1.0" encoding="utf-8"?>
<svg version="1.1" xmlns:xlink="http://www.w3.org/1999/xlink" width="26px" height="6px" xmlns="http://www.w3.org/2000/svg">
  <g transform="matrix(1 0 0 1 -12 -66 )">
    <path d="M 25.318080357142858 0.55078125  C 25.772693452380956 0.9179687499999991  26 1.359375  26 1.875  L 26 4.125  C 26 4.640625  25.772693452380956 5.082031250000001  25.318080357142858 5.44921875  C 24.863467261904766 5.816406249999999  24.316964285714292 6  23.678571428571427 6  L 2.3214285714285716 6  C 1.6830357142857144 6  1.1365327380952381 5.816406249999999  0.6819196428571429 5.44921875  C 0.22730654761904762 5.082031250000001  0 4.640625  0 4.125  L 0 1.875  C 0 1.359375  0.22730654761904762 0.9179687499999991  0.6819196428571429 0.55078125  C 1.1365327380952381 0.1835937500000009  1.6830357142857144 0  2.3214285714285716 0  L 23.678571428571427 0  C 24.316964285714292 0  24.863467261904766 0.1835937500000009  25.318080357142858 0.55078125  Z " fill-rule="nonzero" fill="#2b85e4" stroke="none" transform="matrix(1 0 0 1 12 66 )" />
  </g>
</svg>