<?xml version="1.0" encoding="utf-8"?>
<svg version="1.1" xmlns:xlink="http://www.w3.org/1999/xlink" width="80px" height="35px" xmlns="http://www.w3.org/2000/svg">
  <g transform="matrix(1 0 0 1 -1347 -370 )">
    <path d="M 1347.5 375  A 4.5 4.5 0 0 1 1352 370.5 L 1422 370.5  A 4.5 4.5 0 0 1 1426.5 375 L 1426.5 400  A 4.5 4.5 0 0 1 1422 404.5 L 1352 404.5  A 4.5 4.5 0 0 1 1347.5 400 L 1347.5 375  Z " fill-rule="nonzero" fill="#f9f9f9" stroke="none" fill-opacity="0" />
    <path d="M 1347.5 375  A 4.5 4.5 0 0 1 1352 370.5 L 1422 370.5  A 4.5 4.5 0 0 1 1426.5 375 L 1426.5 400  A 4.5 4.5 0 0 1 1422 404.5 L 1352 404.5  A 4.5 4.5 0 0 1 1347.5 400 L 1347.5 375  Z " stroke-width="1" stroke="#e4e4e4" fill="none" />
  </g>
</svg>