<?xml version="1.0" encoding="utf-8"?>
<svg version="1.1" xmlns:xlink="http://www.w3.org/1999/xlink" width="87px" height="35px" xmlns="http://www.w3.org/2000/svg">
  <g transform="matrix(1 0 0 1 -349 -370 )">
    <path d="M 349.5 375  A 4.5 4.5 0 0 1 354 370.5 L 431 370.5  A 4.5 4.5 0 0 1 435.5 375 L 435.5 400  A 4.5 4.5 0 0 1 431 404.5 L 354 404.5  A 4.5 4.5 0 0 1 349.5 400 L 349.5 375  Z " fill-rule="nonzero" fill="#ffffff" stroke="none" />
    <path d="M 349.5 375  A 4.5 4.5 0 0 1 354 370.5 L 431 370.5  A 4.5 4.5 0 0 1 435.5 375 L 435.5 400  A 4.5 4.5 0 0 1 431 404.5 L 354 404.5  A 4.5 4.5 0 0 1 349.5 400 L 349.5 375  Z " stroke-width="1" stroke="#e4e4e4" fill="none" />
  </g>
</svg>