<?xml version="1.0" encoding="utf-8"?>
<svg version="1.1" xmlns:xlink="http://www.w3.org/1999/xlink" width="131px" height="35px" xmlns="http://www.w3.org/2000/svg">
  <g transform="matrix(1 0 0 1 -60 -370 )">
    <path d="M 0 30  L 0 5  C 0 2.1999999999999886  2.882000000000062 0  6.5499999999999545 0  L 48.25870967741935 0  L 49.47769230769222 0  L 60 0  L 76.84210526315789 0  L 124.45000000000005 0  C 128.11799999999994 0  131 2.1999999999999886  131 5  L 131 30  C 131 32.80000000000001  128.11799999999994 35  124.45000000000005 35  L 79.95225806451617 35  L 79.4736842105263 35  L 6.5499999999999545 35  C 2.882000000000062 35  0 32.80000000000001  0 30  Z " fill-rule="nonzero" fill="#2b85e4" stroke="none" transform="matrix(1 0 0 1 60 370 )" />
  </g>
</svg>