<?xml version="1.0" encoding="utf-8"?>
<svg version="1.1" xmlns:xlink="http://www.w3.org/1999/xlink" width="80px" height="35px" xmlns="http://www.w3.org/2000/svg">
  <g transform="matrix(1 0 0 1 -1347 -370 )">
    <path d="M 1348 375  A 4 4 0 0 1 1352 371 L 1422 371  A 4 4 0 0 1 1426 375 L 1426 400  A 4 4 0 0 1 1422 404 L 1352 404  A 4 4 0 0 1 1348 400 L 1348 375  Z " fill-rule="nonzero" fill="#f0f7ff" stroke="none" />
    <path d="M 1347.5 375  A 4.5 4.5 0 0 1 1352 370.5 L 1422 370.5  A 4.5 4.5 0 0 1 1426.5 375 L 1426.5 400  A 4.5 4.5 0 0 1 1422 404.5 L 1352 404.5  A 4.5 4.5 0 0 1 1347.5 400 L 1347.5 375  Z " stroke-width="1" stroke="#7abbff" fill="none" stroke-opacity="0.996078431372549" />
  </g>
</svg>