<?xml version="1.0" encoding="utf-8"?>
<svg version="1.1" xmlns:xlink="http://www.w3.org/1999/xlink" width="130px" height="35px" xmlns="http://www.w3.org/2000/svg">
  <g transform="matrix(1 0 0 1 -206 -370 )">
    <path d="M 207 375  A 4 4 0 0 1 211 371 L 331 371  A 4 4 0 0 1 335 375 L 335 400  A 4 4 0 0 1 331 404 L 211 404  A 4 4 0 0 1 207 400 L 207 375  Z " fill-rule="nonzero" fill="#409eff" stroke="none" fill-opacity="0.0784313725490196" />
    <path d="M 206.5 375  A 4.5 4.5 0 0 1 211 370.5 L 331 370.5  A 4.5 4.5 0 0 1 335.5 375 L 335.5 400  A 4.5 4.5 0 0 1 331 404.5 L 211 404.5  A 4.5 4.5 0 0 1 206.5 400 L 206.5 375  Z " stroke-width="1" stroke="#7abbff" fill="none" stroke-opacity="0.996078431372549" />
  </g>
</svg>