<?xml version="1.0" encoding="utf-8"?>
<svg version="1.1" xmlns:xlink="http://www.w3.org/1999/xlink" width="29px" height="30px" xmlns="http://www.w3.org/2000/svg">
  <g transform="matrix(1 0 0 1 -1520 -13 )">
    <path d="M 28.263671875 1.34765625  C 28.754557291666668 1.5690104166666663  29 1.953124999999999  29 2.500000000000001  L 29 11.25  C 29 11.588541666666666  28.88042534722222 11.881510416666666  28.641276041666668 12.12890625  C 28.402126736111114 12.376302083333334  28.118923611111114 12.499999999999998  27.791666666666668 12.499999999999998  L 19.333333333333332 12.499999999999998  C 18.8046875 12.499999999999998  18.43337673611111 12.239583333333336  18.219401041666668 11.71875  C 18.005425347222225 11.210937499999998  18.093532986111114 10.761718750000002  18.483723958333332 10.37109375  L 21.089192708333332 7.67578125  C 19.226345486111114 5.8919270833333295  17.029947916666668 4.999999999999999  14.5 4.999999999999999  C 13.190972222222223 4.999999999999999  11.941731770833334 5.263671874999999  10.752278645833334 5.791015624999999  C 9.562825520833334 6.318359374999999  8.533854166666666 7.03125  7.665364583333334 7.929687499999999  C 6.796875 8.828125000000002  6.107747395833333 9.892578124999998  5.597981770833333 11.123046874999998  C 5.088216145833333 12.353515624999998  4.833333333333333 13.645833333333332  4.833333333333333 15  C 4.833333333333333 16.354166666666664  5.088216145833333 17.646484374999996  5.597981770833333 18.876953124999996  C 6.107747395833333 20.107421874999996  6.796875 21.171875000000004  7.665364583333334 22.070312499999996  C 8.533854166666666 22.96875  9.562825520833334 23.681640625  10.752278645833334 24.208984375  C 11.941731770833334 24.736328125  13.190972222222223 25  14.5 25  C 15.997829861111112 25  17.41384548611111 24.661458333333336  18.748046875 23.984375  C 20.082248263888893 23.307291666666668  21.208767361111114 22.350260416666668  22.127604166666668 21.113281250000004  C 22.215711805555557 20.983072916666664  22.360460069444446 20.904947916666664  22.561848958333332 20.878906250000004  C 22.750651041666668 20.878906250000004  22.907986111111114 20.937500000000004  23.033854166666668 21.054687500000004  L 25.620442708333332 23.75  C 25.733723958333332 23.854166666666664  25.793511284722225 23.987630208333336  25.7998046875 24.150390625  C 25.80609809027778 24.313151041666664  25.758897569444446 24.459635416666664  25.658203125 24.58984375  C 24.286241319444446 26.30859375  22.624782986111114 27.639973958333332  20.673828125 28.583984375  C 18.722873263888893 29.527994791666664  16.664930555555557 30  14.5 30  C 12.536458333333334 30  10.661024305555557 29.602864583333332  8.873697916666666 28.80859375  C 7.086371527777779 28.014322916666664  5.544487847222223 26.946614583333336  4.248046875 25.60546875  C 2.951605902777778 24.264322916666664  1.9194878472222225 22.669270833333336  1.1516927083333335 20.820312500000004  C 0.38389756944444453 18.971354166666664  0 17.031249999999996  0 15  C 0 12.968749999999998  0.38389756944444453 11.028645833333334  1.1516927083333335 9.179687500000002  C 1.9194878472222225 7.330729166666665  2.951605902777778 5.735677083333331  4.248046875 4.39453125  C 5.544487847222223 3.053385416666665  7.086371527777779 1.9856770833333315  8.873697916666666 1.191406249999999  C 10.661024305555557 0.3971354166666663  12.536458333333334 0  14.5 0  C 16.350260416666668 0  18.140733506944446 0.3613281250000011  19.871419270833332 1.083984375  C 21.602105034722225 1.806640624999999  23.140842013888893 2.8255208333333304  24.487630208333332 4.140625000000001  L 26.942057291666668 1.621093750000001  C 27.30707465277778 1.2174479166666663  27.747612847222225 1.1263020833333304  28.263671875 1.34765625  Z " fill-rule="nonzero" fill="#ffffff" stroke="none" transform="matrix(1 0 0 1 1520 13 )" />
  </g>
</svg>