<?xml version="1.0" encoding="utf-8"?>
<svg version="1.1" xmlns:xlink="http://www.w3.org/1999/xlink" width="29px" height="30px" xmlns="http://www.w3.org/2000/svg">
  <g transform="matrix(1 0 0 1 -1520 -13 )">
    <path d="M 28.263671875 1.34765625  C 28.7545572916667 1.56901041666667  29 1.953125  29 2.5  L 29 11.25  C 29 11.5885416666667  28.8804253472222 11.8815104166667  28.6412760416667 12.12890625  C 28.4021267361111 12.3763020833333  28.1189236111111 12.5  27.7916666666667 12.5  L 19.3333333333333 12.5  C 18.8046875 12.5  18.4333767361111 12.2395833333333  18.2194010416667 11.71875  C 18.0054253472222 11.2109375  18.0935329861111 10.76171875  18.4837239583333 10.37109375  L 21.0891927083333 7.67578125  C 19.2263454861111 5.89192708333333  17.0299479166667 5  14.5 5  C 13.1909722222222 5  11.9417317708333 5.263671875  10.7522786458333 5.791015625  C 9.56282552083333 6.318359375  8.53385416666667 7.03125  7.66536458333333 7.9296875  C 6.796875 8.828125  6.10774739583333 9.892578125  5.59798177083333 11.123046875  C 5.08821614583333 12.353515625  4.83333333333333 13.6458333333333  4.83333333333333 15  C 4.83333333333333 16.3541666666667  5.08821614583333 17.646484375  5.59798177083333 18.876953125  C 6.10774739583333 20.107421875  6.796875 21.171875  7.66536458333333 22.0703125  C 8.53385416666667 22.96875  9.56282552083333 23.681640625  10.7522786458333 24.208984375  C 11.9417317708333 24.736328125  13.1909722222222 25  14.5 25  C 15.9978298611111 25  17.4138454861111 24.6614583333333  18.748046875 23.984375  C 20.0822482638889 23.3072916666667  21.2087673611111 22.3502604166667  22.1276041666667 21.11328125  C 22.2157118055556 20.9830729166667  22.3604600694444 20.9049479166667  22.5618489583333 20.87890625  C 22.7506510416667 20.87890625  22.9079861111111 20.9375  23.0338541666667 21.0546875  L 25.6204427083333 23.75  C 25.7337239583333 23.8541666666667  25.7935112847222 23.9876302083333  25.7998046875 24.150390625  C 25.8060980902778 24.3131510416667  25.7588975694444 24.4596354166667  25.658203125 24.58984375  C 24.2862413194444 26.30859375  22.6247829861111 27.6399739583333  20.673828125 28.583984375  C 18.7228732638889 29.5279947916667  16.6649305555556 30  14.5 30  C 12.5364583333333 30  10.6610243055556 29.6028645833333  8.87369791666667 28.80859375  C 7.08637152777778 28.0143229166667  5.54448784722222 26.9466145833333  4.248046875 25.60546875  C 2.95160590277778 24.2643229166667  1.91948784722222 22.6692708333333  1.15169270833333 20.8203125  C 0.383897569444445 18.9713541666667  0 17.03125  0 15  C 0 12.96875  0.383897569444445 11.0286458333333  1.15169270833333 9.1796875  C 1.91948784722222 7.33072916666667  2.95160590277778 5.73567708333333  4.248046875 4.39453125  C 5.54448784722222 3.05338541666667  7.08637152777778 1.98567708333333  8.87369791666667 1.19140625  C 10.6610243055556 0.397135416666666  12.5364583333333 0  14.5 0  C 16.3502604166667 0  18.1407335069444 0.361328125000001  19.8714192708333 1.083984375  C 21.6021050347222 1.806640625  23.1408420138889 2.82552083333333  24.4876302083333 4.140625  L 26.9420572916667 1.62109375  C 27.3070746527778 1.21744791666667  27.7476128472222 1.12630208333333  28.263671875 1.34765625  Z " fill-rule="nonzero" fill="#ffffff" stroke="none" transform="matrix(1 0 0 1 1520 13 )" />
  </g>
</svg>