<?xml version="1.0" encoding="utf-8"?>
<svg version="1.1" xmlns:xlink="http://www.w3.org/1999/xlink" width="149px" height="40px" xmlns="http://www.w3.org/2000/svg">
  <g transform="matrix(1 0 0 1 -1332 -1144 )">
    <path d="M 1332.5 1149  A 4.5 4.5 0 0 1 1337 1144.5 L 1476 1144.5  A 4.5 4.5 0 0 1 1480.5 1149 L 1480.5 1179  A 4.5 4.5 0 0 1 1476 1183.5 L 1337 1183.5  A 4.5 4.5 0 0 1 1332.5 1179 L 1332.5 1149  Z " fill-rule="nonzero" fill="#f56c6c" stroke="none" />
    <path d="M 1332.5 1149  A 4.5 4.5 0 0 1 1337 1144.5 L 1476 1144.5  A 4.5 4.5 0 0 1 1480.5 1149 L 1480.5 1179  A 4.5 4.5 0 0 1 1476 1183.5 L 1337 1183.5  A 4.5 4.5 0 0 1 1332.5 1179 L 1332.5 1149  Z " stroke-width="1" stroke="#f56c6c" fill="none" />
  </g>
</svg>