<?xml version="1.0" encoding="utf-8"?>
<svg version="1.1" xmlns:xlink="http://www.w3.org/1999/xlink" width="95px" height="30px" xmlns="http://www.w3.org/2000/svg">
  <g transform="matrix(1 0 0 1 -607 -294 )">
    <path d="M 608 297  A 2 2 0 0 1 610 295 L 699 295  A 2 2 0 0 1 701 297 L 701 321  A 2 2 0 0 1 699 323 L 610 323  A 2 2 0 0 1 608 321 L 608 297  Z " fill-rule="nonzero" fill="#f0f7ff" stroke="none" />
    <path d="M 607.5 297  A 2.5 2.5 0 0 1 610 294.5 L 699 294.5  A 2.5 2.5 0 0 1 701.5 297 L 701.5 321  A 2.5 2.5 0 0 1 699 323.5 L 610 323.5  A 2.5 2.5 0 0 1 607.5 321 L 607.5 297  Z " stroke-width="1" stroke="#7abbff" fill="none" stroke-opacity="0.996078431372549" />
  </g>
</svg>