<?xml version="1.0" encoding="utf-8"?>
<svg version="1.1" xmlns:xlink="http://www.w3.org/1999/xlink" width="100px" height="40px" xmlns="http://www.w3.org/2000/svg">
  <g transform="matrix(1 0 0 1 -1427 -150 )">
    <path d="M 1428 155  A 4 4 0 0 1 1432 151 L 1522 151  A 4 4 0 0 1 1526 155 L 1526 185  A 4 4 0 0 1 1522 189 L 1432 189  A 4 4 0 0 1 1428 185 L 1428 155  Z " fill-rule="nonzero" fill="#409eff" stroke="none" fill-opacity="0.0784313725490196" />
    <path d="M 1427.5 155  A 4.5 4.5 0 0 1 1432 150.5 L 1522 150.5  A 4.5 4.5 0 0 1 1526.5 155 L 1526.5 185  A 4.5 4.5 0 0 1 1522 189.5 L 1432 189.5  A 4.5 4.5 0 0 1 1427.5 185 L 1427.5 155  Z " stroke-width="1" stroke="#7abbff" fill="none" stroke-opacity="0.996078431372549" />
  </g>
</svg>