<?xml version="1.0" encoding="utf-8"?>
<svg version="1.1" xmlns:xlink="http://www.w3.org/1999/xlink" width="100px" height="40px" xmlns="http://www.w3.org/2000/svg">
  <g transform="matrix(1 0 0 1 -1427 -150 )">
    <path d="M 1427.5 155  A 4.5 4.5 0 0 1 1432 150.5 L 1522 150.5  A 4.5 4.5 0 0 1 1526.5 155 L 1526.5 185  A 4.5 4.5 0 0 1 1522 189.5 L 1432 189.5  A 4.5 4.5 0 0 1 1427.5 185 L 1427.5 155  Z " fill-rule="nonzero" fill="#ffffff" stroke="none" />
    <path d="M 1427.5 155  A 4.5 4.5 0 0 1 1432 150.5 L 1522 150.5  A 4.5 4.5 0 0 1 1526.5 155 L 1526.5 185  A 4.5 4.5 0 0 1 1522 189.5 L 1432 189.5  A 4.5 4.5 0 0 1 1427.5 185 L 1427.5 155  Z " stroke-width="1" stroke="#e4e4e4" fill="none" />
  </g>
</svg>