<?xml version="1.0" encoding="utf-8"?>
<svg version="1.1" xmlns:xlink="http://www.w3.org/1999/xlink" width="17px" height="15px" xmlns="http://www.w3.org/2000/svg">
  <g transform="matrix(1 0 0 1 -23 -18 )">
    <path d="M 9.714285714285714 12.272727272727272  L 9.714285714285714 13.636363636363637  L 15.785714285714286 13.636363636363637  L 15.785714285714286 12.272727272727272  L 9.714285714285714 12.272727272727272  Z M 6.071428571428571 6.818181818181818  L 6.071428571428571 8.181818181818182  L 15.785714285714286 8.181818181818182  L 15.785714285714286 6.818181818181818  L 6.071428571428571 6.818181818181818  Z M 12.142857142857142 1.3636363636363642  L 12.142857142857142 2.7272727272727266  L 15.785714285714286 2.7272727272727266  L 15.785714285714286 1.3636363636363642  L 12.142857142857142 1.3636363636363642  Z M 16.819754464285715 11.111505681818182  C 16.939918154761905 11.246448863636362  17 11.406249999999998  17 11.59090909090909  L 17 14.318181818181818  C 17 14.502840909090908  16.939918154761905 14.662642045454545  16.819754464285715 14.797585227272727  C 16.699590773809526 14.93252840909091  16.557291666666668 15  16.392857142857142 15  L 0.6071428571428571 15  C 0.44270833333333337 15  0.30040922619047616 14.93252840909091  0.18024553571428573 14.797585227272727  C 0.06008184523809524 14.662642045454545  0 14.502840909090908  0 14.318181818181818  L 0 11.59090909090909  C 0 11.406249999999998  0.06008184523809524 11.246448863636362  0.18024553571428573 11.111505681818182  C 0.30040922619047616 10.976562500000002  0.44270833333333337 10.90909090909091  0.6071428571428571 11  L 16.392857142857142 11  C 16.557291666666668 10.90909090909091  16.699590773809526 10.976562500000002  16.819754464285715 11.111505681818182  Z M 16.819754464285715 5.656960227272727  C 16.939918154761905 5.791903409090907  17 5.951704545454543  17 6.136363636363636  L 17 8.863636363636363  C 17 9.048295454545453  16.939918154761905 9.20809659090909  16.819754464285715 9.343039772727272  C 16.699590773809526 9.477982954545453  16.557291666666668 9.545454545454545  16.392857142857142 9.545454545454545  L 0.6071428571428571 9.545454545454545  C 0.44270833333333337 9.545454545454545  0.30040922619047616 9.477982954545453  0.18024553571428573 9.343039772727272  C 0.06008184523809524 9.20809659090909  0 9.048295454545453  0 8.863636363636363  L 0 6.136363636363636  C 0 5.951704545454543  0.06008184523809524 5.791903409090907  0.18024553571428573 5.656960227272727  C 0.30040922619047616 5.522017045454544  0.44270833333333337 5.454545454545455  0.6071428571428571 5.454545454545455  L 16.392857142857142 5.454545454545455  C 16.557291666666668 5.454545454545455  16.699590773809526 5.522017045454544  16.819754464285715 5.656960227272727  Z M 16.819754464285715 0.20241477272727348  C 16.939918154761905 0.3373579545454525  17 0.49715909090909005  17 0.6818181818181812  L 17 3.409090909090909  C 17 3.593749999999999  16.939918154761905 3.753551136363635  16.819754464285715 3.888494318181819  C 16.699590773809526 4.023437499999998  16.557291666666668 4.090909090909091  16.392857142857142 4  L 0.6071428571428571 4  C 0.44270833333333337 4.090909090909091  0.30040922619047616 4.023437499999998  0.18024553571428573 3.888494318181819  C 0.06008184523809524 3.753551136363635  0 3.593749999999999  0 3.409090909090909  L 0 0.6818181818181812  C 0 0.49715909090909005  0.06008184523809524 0.3373579545454525  0.18024553571428573 0.20241477272727348  C 0.30040922619047616 0.0674715909090895  0.44270833333333337 0  0.6071428571428571 0  L 16.392857142857142 0  C 16.557291666666668 0  16.699590773809526 0.0674715909090895  16.819754464285715 0.20241477272727348  Z " fill-rule="nonzero" fill="#666666" stroke="none" transform="matrix(1 0 0 1 23 18 )" />
  </g>
</svg>