<?xml version="1.0" encoding="utf-8"?>
<svg version="1.1" xmlns:xlink="http://www.w3.org/1999/xlink" width="17px" height="15px" xmlns="http://www.w3.org/2000/svg">
  <g transform="matrix(1 0 0 1 -23 -18 )">
    <path d="M 9.71428571428571 12.2727272727273  L 9.71428571428571 13.6363636363636  L 15.7857142857143 13.6363636363636  L 15.7857142857143 12.2727272727273  L 9.71428571428571 12.2727272727273  Z M 6.07142857142857 6.81818181818182  L 6.07142857142857 8.18181818181818  L 15.7857142857143 8.18181818181818  L 15.7857142857143 6.81818181818182  L 6.07142857142857 6.81818181818182  Z M 12.1428571428571 1.36363636363636  L 12.1428571428571 2.72727272727273  L 15.7857142857143 2.72727272727273  L 15.7857142857143 1.36363636363636  L 12.1428571428571 1.36363636363636  Z M 16.8197544642857 11.1115056818182  C 16.9399181547619 11.2464488636364  17 11.40625  17 11.5909090909091  L 17 14.3181818181818  C 17 14.5028409090909  16.9399181547619 14.6626420454545  16.8197544642857 14.7975852272727  C 16.6995907738095 14.9325284090909  16.5572916666667 15  16.3928571428571 15  L 0.607142857142857 15  C 0.442708333333333 15  0.300409226190476 14.9325284090909  0.180245535714286 14.7975852272727  C 0.0600818452380952 14.6626420454545  0 14.5028409090909  0 14.3181818181818  L 0 11.5909090909091  C 0 11.40625  0.0600818452380952 11.2464488636364  0.180245535714286 11.1115056818182  C 0.300409226190476 10.9765625  0.442708333333333 10.9090909090909  0.607142857142857 11  L 16.3928571428571 11  C 16.5572916666667 10.9090909090909  16.6995907738095 10.9765625  16.8197544642857 11.1115056818182  Z M 16.8197544642857 5.65696022727273  C 16.9399181547619 5.79190340909091  17 5.95170454545454  17 6.13636363636364  L 17 8.86363636363636  C 17 9.04829545454545  16.9399181547619 9.20809659090909  16.8197544642857 9.34303977272727  C 16.6995907738095 9.47798295454545  16.5572916666667 9.54545454545455  16.3928571428571 9.54545454545455  L 0.607142857142857 9.54545454545455  C 0.442708333333333 9.54545454545455  0.300409226190476 9.47798295454545  0.180245535714286 9.34303977272727  C 0.0600818452380952 9.20809659090909  0 9.04829545454545  0 8.86363636363636  L 0 6.13636363636364  C 0 5.95170454545454  0.0600818452380952 5.79190340909091  0.180245535714286 5.65696022727273  C 0.300409226190476 5.52201704545454  0.442708333333333 5.45454545454546  0.607142857142857 5.45454545454546  L 16.3928571428571 5.45454545454546  C 16.5572916666667 5.45454545454546  16.6995907738095 5.52201704545454  16.8197544642857 5.65696022727273  Z M 16.8197544642857 0.202414772727273  C 16.9399181547619 0.337357954545452  17 0.49715909090909  17 0.681818181818181  L 17 3.40909090909091  C 17 3.59375  16.9399181547619 3.75355113636363  16.8197544642857 3.88849431818182  C 16.6995907738095 4.0234375  16.5572916666667 4.09090909090909  16.3928571428571 4  L 0.607142857142857 4  C 0.442708333333333 4.09090909090909  0.300409226190476 4.0234375  0.180245535714286 3.88849431818182  C 0.0600818452380952 3.75355113636363  0 3.59375  0 3.40909090909091  L 0 0.681818181818181  C 0 0.49715909090909  0.0600818452380952 0.337357954545452  0.180245535714286 0.202414772727273  C 0.300409226190476 0.0674715909090895  0.442708333333333 0  0.607142857142857 0  L 16.3928571428571 0  C 16.5572916666667 0  16.6995907738095 0.0674715909090895  16.8197544642857 0.202414772727273  Z " fill-rule="nonzero" fill="#666666" stroke="none" transform="matrix(1 0 0 1 23 18 )" />
  </g>
</svg>