<?xml version="1.0" standalone="no"?><!DOCTYPE svg PUBLIC "-//W3C//DTD SVG 1.1//EN" "http://www.w3.org/Graphics/SVG/1.1/DTD/svg11.dtd"><svg t="1723451495990" class="icon" viewBox="0 0 1024 1024" version="1.1" xmlns="http://www.w3.org/2000/svg" p-id="27307" xmlns:xlink="http://www.w3.org/1999/xlink" width="200" height="200"><path d="M524.231111 456.419556L654.222222 369.777778 567.580444 499.768889a56.888889 56.888889 0 1 1-43.349333-43.349333zM512 1024A512 512 0 1 1 512 0a512 512 0 0 1 0 1024z m0-113.777778A398.222222 398.222222 0 1 0 512 113.777778a398.222222 398.222222 0 0 0 0 796.444444z m312.888889-398.222222h-56.888889a256 256 0 1 0-512 0h-56.888889a312.888889 312.888889 0 0 1 625.777778 0z m-341.333333 170.666667h56.888888v113.777777h-56.888888v-113.777777z m-123.164445-86.698667l35.84 44.202667-88.462222 71.623111-35.84-44.202667 88.462222-71.623111z m267.377778 44.202667l35.84-44.202667 88.405333 71.623111-35.84 44.202667-88.348444-71.623111z" fill="#666666" p-id="27308"></path></svg>