<?xml version="1.0" encoding="utf-8"?>
<svg version="1.1" xmlns:xlink="http://www.w3.org/1999/xlink" width="12px" height="12px" xmlns="http://www.w3.org/2000/svg">
  <g transform="matrix(1 0 0 1 -218 -9 )">
    <path d="M 11.518124999999998 10.784062500000001  L 6.879609374999999 6.145546875000001  L 11.518124999999998 1.5070312499999998  C 11.752265625 1.2728906249999996  11.752265625 0.8868750000000003  11.518124999999998 0.6527343750000001  L 11.4928125 0.6274218749999998  C 11.258671875000001 0.39328124999999986  10.872656249999999 0.39328124999999986  10.638515625 0.6274218749999998  L 6 5.272265624999999  L 1.3614843749999999 0.6274218749999998  C 1.1273437499999996 0.39328124999999986  0.7413281249999999 0.39328124999999986  0.5071874999999997 0.6274218749999998  L 0.48187499999999983 0.6527343750000001  C 0.2414062499999995 0.8868750000000003  0.2414062499999995 1.2728906249999996  0.48187499999999983 1.5070312499999998  L 5.120390624999999 6.145546875000001  L 0.48187499999999983 10.784062500000001  C 0.24773437499999984 11.018203125  0.24773437499999984 11.404218750000002  0.48187499999999983 11.638359375  L 0.5071874999999999 11.663671874999999  C 0.7413281249999999 11.8978125  1.12734375 11.8978125  1.3614843749999999 11.663671874999999  L 6 7.025156249999998  L 10.638515625 11.663671874999999  C 10.872656249999999 11.8978125  11.258671875000001 11.8978125  11.4928125 11.663671874999999  L 11.518124999999998 11.638359375  C 11.752265625 11.404218750000002  11.752265625 11.018203125  11.518124999999998 10.784062500000001  Z " fill-rule="nonzero" fill="#0000ff" stroke="none" transform="matrix(1 0 0 1 218 9 )" />
  </g>
</svg>