<?xml version="1.0" encoding="utf-8"?>
<svg version="1.1" xmlns:xlink="http://www.w3.org/1999/xlink" width="17px" height="17px" xmlns="http://www.w3.org/2000/svg">
  <g transform="matrix(1 0 0 1 -23 -17 )">
    <path d="M 13.4038461538462 8.92689732142857  C 13.4038461538462 9.00911458333333  13.3731971153846 9.08184523809524  13.3118990384615 9.14508928571429  L 8.08112980769231 14.0022321428571  C 8.01302083333333 14.0591517857143  7.93469551282051 14.0876116071429  7.84615384615385 14.0876116071429  C 7.75761217948718 14.0876116071429  7.67928685897436 14.0591517857143  7.61117788461538 14.0022321428571  L 4.66887019230769 11.2700892857143  C 4.60757211538462 11.2068452380952  4.57692307692308 11.1341145833333  4.57692307692308 11.0518973214286  C 4.57692307692308 10.9696800595238  4.60757211538462 10.9001116071429  4.66887019230769 10.8431919642857  L 5.13882211538462 10.4068080357143  C 5.20012019230769 10.3498883928571  5.27504006410256 10.3214285714286  5.36358173076923 10.3214285714286  C 5.4521233974359 10.3214285714286  5.53044871794872 10.3498883928571  5.59855769230769 10.4068080357143  L 7.84615384615385 12.4938616071429  L 12.3822115384615 8.28180803571429  C 12.4503205128205 8.22488839285714  12.5286458333333 8.19642857142857  12.6171875 8.19642857142857  C 12.7057291666667 8.19642857142857  12.7806490384615 8.22488839285714  12.8419471153846 8.28180803571429  L 13.3118990384615 8.71819196428571  C 13.3731971153846 8.77511160714286  13.4038461538462 8.84468005952381  13.4038461538462 8.92689732142857  Z M 1.30769230769231 6  L 1.30769230769231 15.7857142857143  L 15.6923076923077 15.7857142857143  L 15.6923076923077 6  L 1.30769230769231 6  Z M 5.13882211538462 4.46819196428571  C 5.20012019230769 4.41127232142857  5.23076923076923 4.33854166666667  5.23076923076923 4.25  L 5.23076923076923 1.51785714285714  C 5.23076923076923 1.42931547619047  5.20012019230769 1.35658482142857  5.13882211538462 1.29966517857143  C 5.07752403846154 1.24274553571429  4.99919871794872 1.21428571428571  4.90384615384615 1.21428571428571  L 4.25 1.21428571428571  C 4.15464743589744 1.21428571428571  4.07632211538462 1.24274553571429  4.01502403846154 1.29966517857143  C 3.95372596153846 1.35658482142857  3.92307692307692 1.42931547619047  3.92307692307692 1.51785714285714  L 3.92307692307692 4.25  C 3.92307692307692 4.33854166666667  3.95372596153846 4.41127232142857  4.01502403846154 4.46819196428571  C 4.07632211538462 4.52511160714286  4.15464743589744 4.55357142857143  4.25 4.55357142857143  L 4.90384615384615 4.55357142857143  C 4.99919871794872 4.55357142857143  5.07752403846154 4.52511160714286  5.13882211538462 4.46819196428571  Z M 12.9849759615385 4.46819196428571  C 13.0462740384615 4.41127232142857  13.0769230769231 4.33854166666667  13.0769230769231 4.25  L 13.0769230769231 1.51785714285714  C 13.0769230769231 1.42931547619047  13.0462740384615 1.35658482142857  12.9849759615385 1.29966517857143  C 12.9236778846154 1.24274553571429  12.8453525641026 1.21428571428571  12.75 1.21428571428571  L 12.0961538461538 1.21428571428571  C 12.0008012820513 1.21428571428571  11.9224759615385 1.24274553571429  11.8611778846154 1.29966517857143  C 11.7998798076923 1.35658482142857  11.7692307692308 1.42931547619047  11.7692307692308 1.51785714285714  L 11.7692307692308 4.25  C 11.7692307692308 4.33854166666667  11.7998798076923 4.41127232142857  11.8611778846154 4.46819196428571  C 11.9224759615385 4.52511160714286  12.0008012820513 4.55357142857143  12.0961538461538 4.55357142857143  L 12.75 4.55357142857143  C 12.8453525641026 4.55357142857143  12.9236778846154 4.52511160714286  12.9849759615385 4.46819196428571  Z M 16.6117788461538 2.7890625  C 16.8705929487179 3.02938988095238  17 3.31398809523809  17 3.64285714285714  L 17 15.7857142857143  C 17 16.1145833333333  16.8705929487179 16.399181547619  16.6117788461538 16.6395089285714  C 16.3529647435897 16.8798363095238  16.0464743589744 17  15.6923076923077 17  L 1.30769230769231 17  C 0.953525641025641 17  0.647035256410256 16.8798363095238  0.388221153846154 16.6395089285714  C 0.129407051282051 16.399181547619  0 16.1145833333333  0 15.7857142857143  L 0 3.64285714285714  C 0 3.31398809523809  0.129407051282051 3.02938988095238  0.388221153846154 2.7890625  C 0.647035256410256 2.54873511904762  0.953525641025641 2.42857142857143  1.30769230769231 2.42857142857143  L 2.61538461538462 2.42857142857143  L 2.61538461538462 1.51785714285714  C 2.61538461538462 1.10044642857143  2.77544070512821 0.743117559523809  3.09555288461538 0.445870535714286  C 3.41566506410256 0.148623511904762  3.80048076923077 0  4.25 0  L 4.90384615384615 0  C 5.35336538461538 0  5.73818108974359 0.148623511904762  6.05829326923077 0.445870535714286  C 6.37840544871795 0.743117559523809  6.53846153846154 1.10044642857143  6.53846153846154 1.51785714285714  L 6.53846153846154 2.42857142857143  L 10.4615384615385 2.42857142857143  L 10.4615384615385 1.51785714285714  C 10.4615384615385 1.10044642857143  10.6215945512821 0.743117559523809  10.9417067307692 0.445870535714286  C 11.2618189102564 0.148623511904762  11.6466346153846 0  12.0961538461538 0  L 12.75 0  C 13.1995192307692 0  13.5843349358974 0.148623511904762  13.9044471153846 0.445870535714286  C 14.2245592948718 0.743117559523809  14.3846153846154 1.10044642857143  14.3846153846154 1.51785714285714  L 14.3846153846154 2.42857142857143  L 15.6923076923077 2.42857142857143  C 16.0464743589744 2.42857142857143  16.3529647435897 2.54873511904762  16.6117788461538 2.7890625  Z " fill-rule="nonzero" fill="#666666" stroke="none" transform="matrix(1 0 0 1 23 17 )" />
  </g>
</svg>