<?xml version="1.0" encoding="utf-8"?>
<svg version="1.1" xmlns:xlink="http://www.w3.org/1999/xlink" width="17px" height="17px" xmlns="http://www.w3.org/2000/svg">
  <g transform="matrix(1 0 0 1 -23 -17 )">
    <path d="M 13.403846153846153 8.926897321428573  C 13.403846153846153 9.009114583333332  13.373197115384615 9.081845238095237  13.311899038461538 9.145089285714286  L 8.081129807692308 14.002232142857142  C 8.013020833333334 14.059151785714286  7.934695512820514 14.087611607142858  7.846153846153847 14.087611607142858  C 7.757612179487181 14.087611607142858  7.6792868589743595 14.059151785714286  7.611177884615384 14.002232142857142  L 4.6688701923076925 11.270089285714286  C 4.607572115384616 11.206845238095237  4.576923076923077 11.13411458333333  4.576923076923077 11.051897321428573  C 4.576923076923077 10.96968005952381  4.607572115384616 10.900111607142858  4.6688701923076925 10.843191964285714  L 5.138822115384616 10.406808035714286  C 5.2001201923076925 10.349888392857142  5.275040064102565 10.321428571428573  5.363581730769231 10.321428571428573  C 5.452123397435899 10.321428571428573  5.530448717948718 10.349888392857142  5.5985576923076925 10.406808035714286  L 7.846153846153847 12.493861607142858  L 12.382211538461538 8.281808035714286  C 12.450320512820515 8.224888392857142  12.528645833333334 8.196428571428571  12.6171875 8.196428571428571  C 12.705729166666668 8.196428571428571  12.780649038461538 8.224888392857142  12.841947115384615 8.281808035714286  L 13.311899038461538 8.718191964285714  C 13.373197115384615 8.775111607142858  13.403846153846153 8.844680059523808  13.403846153846153 8.926897321428573  Z M 1.3076923076923077 6  L 1.3076923076923077 15.785714285714286  L 15.692307692307693 15.785714285714286  L 15.692307692307693 6  L 1.3076923076923077 6  Z M 5.138822115384616 4.4681919642857135  C 5.2001201923076925 4.41127232142857  5.230769230769231 4.338541666666665  5.230769230769231 4.25  L 5.230769230769231 1.5178571428571432  C 5.230769230769231 1.429315476190474  5.2001201923076925 1.3565848214285707  5.138822115384616 1.2996651785714293  C 5.077524038461539 1.2427455357142863  4.999198717948718 1.2142857142857137  4.903846153846153 1.2142857142857137  L 4.25 1.2142857142857137  C 4.154647435897437 1.2142857142857137  4.076322115384616 1.2427455357142863  4.015024038461538 1.2996651785714293  C 3.9537259615384617 1.3565848214285707  3.9230769230769234 1.429315476190474  3.9230769230769234 1.5178571428571432  L 3.9230769230769234 4.25  C 3.9230769230769234 4.338541666666665  3.9537259615384617 4.41127232142857  4.015024038461538 4.4681919642857135  C 4.076322115384616 4.525111607142857  4.154647435897437 4.55357142857143  4.25 4.55357142857143  L 4.903846153846153 4.55357142857143  C 4.999198717948718 4.55357142857143  5.077524038461539 4.525111607142857  5.138822115384616 4.4681919642857135  Z M 12.984975961538462 4.4681919642857135  C 13.046274038461538 4.41127232142857  13.076923076923078 4.338541666666665  13.076923076923078 4.25  L 13.076923076923078 1.5178571428571432  C 13.076923076923078 1.429315476190474  13.046274038461538 1.3565848214285707  12.984975961538462 1.2996651785714293  C 12.923677884615385 1.2427455357142863  12.845352564102566 1.2142857142857137  12.75 1.2142857142857137  L 12.096153846153847 1.2142857142857137  C 12.000801282051283 1.2142857142857137  11.922475961538462 1.2427455357142863  11.861177884615385 1.2996651785714293  C 11.799879807692307 1.3565848214285707  11.769230769230768 1.429315476190474  11.769230769230768 1.5178571428571432  L 11.769230769230768 4.25  C 11.769230769230768 4.338541666666665  11.799879807692307 4.41127232142857  11.861177884615385 4.4681919642857135  C 11.922475961538462 4.525111607142857  12.000801282051283 4.55357142857143  12.096153846153847 4.55357142857143  L 12.75 4.55357142857143  C 12.845352564102566 4.55357142857143  12.923677884615385 4.525111607142857  12.984975961538462 4.4681919642857135  Z M 16.611778846153847 2.7890625  C 16.87059294871795 3.029389880952381  17 3.313988095238095  17 3.6428571428571432  L 17 15.785714285714286  C 17 16.114583333333336  16.87059294871795 16.399181547619047  16.611778846153847 16.63950892857143  C 16.352964743589745 16.87983630952381  16.04647435897436 17  15.692307692307693 17  L 1.3076923076923077 17  C 0.9535256410256412 17  0.6470352564102565 16.87983630952381  0.3882211538461538 16.63950892857143  C 0.12940705128205127 16.399181547619047  0 16.114583333333336  0 15.785714285714286  L 0 3.6428571428571432  C 0 3.313988095238095  0.12940705128205127 3.029389880952381  0.3882211538461538 2.7890625  C 0.6470352564102565 2.548735119047617  0.9535256410256412 2.4285714285714293  1.3076923076923077 2.4285714285714293  L 2.6153846153846154 2.4285714285714293  L 2.6153846153846154 1.5178571428571432  C 2.6153846153846154 1.1004464285714293  2.7754407051282053 0.7431175595238085  3.0955528846153846 0.44587053571428625  C 3.4156650641025648 0.14862351190476208  3.8004807692307696 0  4.25 0  L 4.903846153846153 0  C 5.353365384615384 0  5.73818108974359 0.14862351190476208  6.058293269230769 0.44587053571428625  C 6.378405448717949 0.7431175595238085  6.538461538461539 1.1004464285714293  6.538461538461539 1.5178571428571432  L 6.538461538461539 2.4285714285714293  L 10.461538461538462 2.4285714285714293  L 10.461538461538462 1.5178571428571432  C 10.461538461538462 1.1004464285714293  10.621594551282051 0.7431175595238085  10.941706730769232 0.44587053571428625  C 11.261818910256412 0.14862351190476208  11.646634615384615 0  12.096153846153847 0  L 12.75 0  C 13.199519230769232 0  13.584334935897436 0.14862351190476208  13.904447115384615 0.44587053571428625  C 14.224559294871797 0.7431175595238085  14.384615384615385 1.1004464285714293  14.384615384615385 1.5178571428571432  L 14.384615384615385 2.4285714285714293  L 15.692307692307693 2.4285714285714293  C 16.04647435897436 2.4285714285714293  16.352964743589745 2.548735119047617  16.611778846153847 2.7890625  Z " fill-rule="nonzero" fill="#666666" stroke="none" transform="matrix(1 0 0 1 23 17 )" />
  </g>
</svg>