<?xml version="1.0" encoding="utf-8"?>
<svg version="1.1" xmlns:xlink="http://www.w3.org/1999/xlink" width="268px" height="30px" viewBox="-144 15  268 30" xmlns="http://www.w3.org/2000/svg">
  <path d="M -143 30  A 14 14 0 0 1 -129 16 L 109 16  A 14 14 0 0 1 123 30 A 14 14 0 0 1 109 44 L -129 44  A 14 14 0 0 1 -143 30 Z " fill-rule="nonzero" fill="#ffffff" stroke="none" fill-opacity="0" />
  <path d="M -143.5 30  A 14.5 14.5 0 0 1 -129 15.5 L 109 15.5  A 14.5 14.5 0 0 1 123.5 30 A 14.5 14.5 0 0 1 109 44.5 L -129 44.5  A 14.5 14.5 0 0 1 -143.5 30 Z " stroke-width="1" stroke="#ffffff" fill="none" stroke-opacity="0.2" />
</svg>