<?xml version="1.0" encoding="utf-8"?>
<svg version="1.1" xmlns:xlink="http://www.w3.org/1999/xlink" width="18px" height="15px" xmlns="http://www.w3.org/2000/svg">
  <g transform="matrix(1 0 0 1 -1374 -20 )">
    <path d="M 3.48046875 10.5095880681818  C 3.73158482142857 10.2432528409091  3.85714285714286 9.921875  3.85714285714286 9.54545454545455  C 3.85714285714286 9.16903409090909  3.73158482142857 8.84765625  3.48046875 8.58132102272727  C 3.22935267857143 8.31498579545455  2.92633928571429 8.18181818181818  2.57142857142857 8.18181818181818  C 2.21651785714286 8.18181818181818  1.91350446428571 8.31498579545455  1.66238839285714 8.58132102272727  C 1.41127232142857 8.84765625  1.28571428571429 9.16903409090909  1.28571428571429 9.54545454545455  C 1.28571428571429 9.921875  1.41127232142857 10.2432528409091  1.66238839285714 10.5095880681818  C 1.91350446428571 10.7759232954545  2.21651785714286 10.9090909090909  2.57142857142857 10.9090909090909  C 2.92633928571429 10.9090909090909  3.22935267857143 10.7759232954545  3.48046875 10.5095880681818  Z M 5.40904017857143 5.73686079545455  C 5.66015625 5.47052556818182  5.78571428571429 5.14914772727273  5.78571428571429 4.77272727272727  C 5.78571428571429 4.39630681818182  5.66015625 4.07492897727273  5.40904017857143 3.80859375  C 5.15792410714286 3.54225852272727  4.85491071428571 3.40909090909091  4.5 3.40909090909091  C 4.14508928571429 3.40909090909091  3.84207589285714 3.54225852272727  3.59095982142857 3.80859375  C 3.33984375 4.07492897727273  3.21428571428571 4.39630681818182  3.21428571428571 4.77272727272727  C 3.21428571428571 5.14914772727273  3.33984375 5.47052556818182  3.59095982142857 5.73686079545455  C 3.84207589285714 6.00319602272727  4.14508928571429 6.13636363636364  4.5 6.13636363636364  C 4.85491071428571 6.13636363636364  5.15792410714286 6.00319602272727  5.40904017857143 5.73686079545455  Z M 10.8080357142857 10.8664772727273  C 10.6607142857143 10.4616477272727  10.4196428571429 10.1384943181818  10.0848214285714 9.89701704545455  L 11.0993303571429 5.82741477272727  C 11.1395089285714 5.64275568181818  11.1143973214286 5.47052556818182  11.0239955357143 5.31072443181818  C 10.93359375 5.15092329545454  10.8046875 5.04616477272727  10.6372767857143 4.99644886363636  C 10.4698660714286 4.94673295454545  10.3091517857143 4.96981534090909  10.1551339285714 5.06569602272727  C 10.0011160714286 5.16157670454546  9.90066964285714 5.30184659090909  9.85379464285714 5.48650568181818  L 8.83928571428571 9.55610795454546  C 8.4375 9.59161931818182  8.07924107142857 9.74609375  7.76450892857143 10.01953125  C 7.44977678571429 10.29296875  7.23883928571429 10.6427556818182  7.13169642857143 11.0688920454545  C 6.99776785714286 11.6157670454545  7.06473214285714 12.1342329545455  7.33258928571429 12.6242897727273  C 7.60044642857143 13.1143465909091  7.9921875 13.4303977272727  8.5078125 13.5724431818182  C 9.0234375 13.7144886363636  9.51227678571429 13.6434659090909  9.97433035714286 13.359375  C 10.4363839285714 13.0752840909091  10.734375 12.6598011363636  10.8683035714286 12.1129261363636  C 10.9754464285714 11.6867897727273  10.9553571428571 11.2713068181818  10.8080357142857 10.8664772727273  Z M 16.3376116071429 10.5095880681818  C 16.5887276785714 10.2432528409091  16.7142857142857 9.921875  16.7142857142857 9.54545454545455  C 16.7142857142857 9.16903409090909  16.5887276785714 8.84765625  16.3376116071429 8.58132102272727  C 16.0864955357143 8.31498579545455  15.7834821428571 8.18181818181818  15.4285714285714 8.18181818181818  C 15.0736607142857 8.18181818181818  14.7706473214286 8.31498579545455  14.51953125 8.58132102272727  C 14.2684151785714 8.84765625  14.1428571428571 9.16903409090909  14.1428571428571 9.54545454545455  C 14.1428571428571 9.921875  14.2684151785714 10.2432528409091  14.51953125 10.5095880681818  C 14.7706473214286 10.7759232954545  15.0736607142857 10.9090909090909  15.4285714285714 10.9090909090909  C 15.7834821428571 10.9090909090909  16.0864955357143 10.7759232954545  16.3376116071429 10.5095880681818  Z M 9.90904017857143 3.69140625  C 10.16015625 3.42507102272727  10.2857142857143 3.10369318181818  10.2857142857143 2.72727272727273  C 10.2857142857143 2.35085227272727  10.16015625 2.02947443181818  9.90904017857143 1.76313920454545  C 9.65792410714286 1.49680397727273  9.35491071428572 1.36363636363636  9 1.36363636363636  C 8.64508928571429 1.36363636363636  8.34207589285714 1.49680397727273  8.09095982142857 1.76313920454545  C 7.83984375 2.02947443181818  7.71428571428571 2.35085227272727  7.71428571428571 2.72727272727273  C 7.71428571428571 3.10369318181818  7.83984375 3.42507102272727  8.09095982142857 3.69140625  C 8.34207589285714 3.95774147727273  8.64508928571429 4.09090909090909  9 4.09090909090909  C 9.35491071428572 4.09090909090909  9.65792410714286 3.95774147727273  9.90904017857143 3.69140625  Z M 14.4090401785714 5.73686079545455  C 14.66015625 5.47052556818182  14.7857142857143 5.14914772727273  14.7857142857143 4.77272727272727  C 14.7857142857143 4.39630681818182  14.66015625 4.07492897727273  14.4090401785714 3.80859375  C 14.1579241071429 3.54225852272727  13.8549107142857 3.40909090909091  13.5 3.40909090909091  C 13.1450892857143 3.40909090909091  12.8420758928571 3.54225852272727  12.5909598214286 3.80859375  C 12.33984375 4.07492897727273  12.2142857142857 4.39630681818182  12.2142857142857 4.77272727272727  C 12.2142857142857 5.14914772727273  12.33984375 5.47052556818182  12.5909598214286 5.73686079545455  C 12.8420758928571 6.00319602272727  13.1450892857143 6.13636363636364  13.5 6.13636363636364  C 13.8549107142857 6.13636363636364  14.1579241071429 6.00319602272727  14.4090401785714 5.73686079545455  Z M 17.2868303571429 5.83806818181818  C 17.7622767857143 7.01704545454545  18 8.25284090909091  18 9.54545454545455  C 18 11.3991477272727  17.5279017857143 13.1143465909091  16.5837053571429 14.6910511363636  C 16.4564732142857 14.8970170454545  16.2756696428571 15  16.0412946428571 15  L 1.95870535714286 15  C 1.72433035714286 15  1.54352678571429 14.8970170454545  1.41629464285714 14.6910511363636  C 0.472098214285714 13.1214488636364  0 11.40625  0 9.54545454545455  C 0 8.25284090909091  0.237723214285714 7.01704545454545  0.713169642857143 5.83806818181818  C 1.18861607142857 4.65909090909091  1.828125 3.64346590909091  2.63169642857143 2.79119318181818  C 3.43526785714286 1.93892045454545  4.39285714285714 1.26065340909091  5.50446428571429 0.756392045454545  C 6.61607142857143 0.252130681818181  7.78125 0  9 0  C 10.21875 0  11.3839285714286 0.252130681818181  12.4955357142857 0.756392045454545  C 13.6071428571429 1.26065340909091  14.5647321428571 1.93892045454545  15.3683035714286 2.79119318181818  C 16.171875 3.64346590909091  16.8113839285714 4.65909090909091  17.2868303571429 5.83806818181818  Z " fill-rule="nonzero" fill="#ffffff" stroke="none" transform="matrix(1 0 0 1 1374 20 )" />
  </g>
</svg>