<?xml version="1.0" encoding="utf-8"?>
<svg version="1.1" xmlns:xlink="http://www.w3.org/1999/xlink" width="68px" height="25px" xmlns="http://www.w3.org/2000/svg">
  <defs>
    <mask fill="white" id="clip63">
      <path d="M 0 20  L 0 5  C 0 2.20000000000005  2.45245901639349 0  5.57377049180328 0  L 38.8925318761385 0  L 62.4262295081967 0  C 65.5475409836065 0  68 2.20000000000005  68 5  L 68 20  C 68 22.8  65.5475409836065 25  62.4262295081967 25  L 5.57377049180328 25  C 2.45245901639349 25  0 22.8  0 20  Z " fill-rule="evenodd" />
    </mask>
  </defs>
  <g transform="matrix(1 0 0 1 -919 -15 )">
    <path d="M 0 20  L 0 5  C 0 2.20000000000005  2.45245901639349 0  5.57377049180328 0  L 38.8925318761385 0  L 62.4262295081967 0  C 65.5475409836065 0  68 2.20000000000005  68 5  L 68 20  C 68 22.8  65.5475409836065 25  62.4262295081967 25  L 5.57377049180328 25  C 2.45245901639349 25  0 22.8  0 20  Z " fill-rule="nonzero" fill="#f0f7ff" stroke="none" transform="matrix(1 0 0 1 919 15 )" />
    <path d="M 0 20  L 0 5  C 0 2.20000000000005  2.45245901639349 0  5.57377049180328 0  L 38.8925318761385 0  L 62.4262295081967 0  C 65.5475409836065 0  68 2.20000000000005  68 5  L 68 20  C 68 22.8  65.5475409836065 25  62.4262295081967 25  L 5.57377049180328 25  C 2.45245901639349 25  0 22.8  0 20  Z " stroke-width="2" stroke="#7abbff" fill="none" transform="matrix(1 0 0 1 919 15 )" mask="url(#clip63)" />
  </g>
</svg>