<?xml version="1.0" encoding="utf-8"?>
<svg version="1.1" xmlns:xlink="http://www.w3.org/1999/xlink" width="68px" height="25px" xmlns="http://www.w3.org/2000/svg">
  <defs>
    <mask fill="white" id="clip22">
      <path d="M 0 20  L 0 5  C 0 2.2000000000000455  2.4524590163934934 0  5.573770491803279 0  L 38.892531876138456 0  L 62.42622950819672 0  C 65.54754098360651 0  68 2.2000000000000455  68 5  L 68 20  C 68 22.799999999999955  65.54754098360651 25  62.42622950819672 25  L 5.573770491803279 25  C 2.4524590163934934 25  0 22.799999999999955  0 20  Z " fill-rule="evenodd" />
    </mask>
  </defs>
  <g transform="matrix(1 0 0 1 -919 -15 )">
    <path d="M 0 20  L 0 5  C 0 2.2000000000000455  2.4524590163934934 0  5.573770491803279 0  L 38.892531876138456 0  L 62.42622950819672 0  C 65.54754098360651 0  68 2.2000000000000455  68 5  L 68 20  C 68 22.799999999999955  65.54754098360651 25  62.42622950819672 25  L 5.573770491803279 25  C 2.4524590163934934 25  0 22.799999999999955  0 20  Z " fill-rule="nonzero" fill="#409eff" stroke="none" transform="matrix(1 0 0 1 919 15 )" />
    <path d="M 0 20  L 0 5  C 0 2.2000000000000455  2.4524590163934934 0  5.573770491803279 0  L 38.892531876138456 0  L 62.42622950819672 0  C 65.54754098360651 0  68 2.2000000000000455  68 5  L 68 20  C 68 22.799999999999955  65.54754098360651 25  62.42622950819672 25  L 5.573770491803279 25  C 2.4524590163934934 25  0 22.799999999999955  0 20  Z " stroke-width="2" stroke="#409eff" fill="none" transform="matrix(1 0 0 1 919 15 )" mask="url(#clip22)" />
  </g>
</svg>