<?xml version="1.0" encoding="utf-8"?>
<svg version="1.1" xmlns:xlink="http://www.w3.org/1999/xlink" width="80px" height="25px" xmlns="http://www.w3.org/2000/svg">
  <defs>
    <mask fill="white" id="clip26">
      <path d="M 0 20  L 0 5  C 0 2.2000000000000455  2.885245901639404 0  6.557377049180327 0  L 45.75591985428054 0  L 73.44262295081967 0  C 77.11475409836059 0  80 2.2000000000000455  80 5  L 80 20  C 80 22.799999999999955  77.11475409836059 25  73.44262295081967 25  L 6.557377049180327 25  C 2.885245901639404 25  0 22.799999999999955  0 20  Z " fill-rule="evenodd" />
    </mask>
  </defs>
  <g transform="matrix(1 0 0 1 -992 -15 )">
    <path d="M 0 20  L 0 5  C 0 2.2000000000000455  2.885245901639404 0  6.557377049180327 0  L 45.75591985428054 0  L 73.44262295081967 0  C 77.11475409836059 0  80 2.2000000000000455  80 5  L 80 20  C 80 22.799999999999955  77.11475409836059 25  73.44262295081967 25  L 6.557377049180327 25  C 2.885245901639404 25  0 22.799999999999955  0 20  Z " fill-rule="nonzero" fill="#2b85e4" stroke="none" transform="matrix(1 0 0 1 992 15 )" />
    <path d="M 0 20  L 0 5  C 0 2.2000000000000455  2.885245901639404 0  6.557377049180327 0  L 45.75591985428054 0  L 73.44262295081967 0  C 77.11475409836059 0  80 2.2000000000000455  80 5  L 80 20  C 80 22.799999999999955  77.11475409836059 25  73.44262295081967 25  L 6.557377049180327 25  C 2.885245901639404 25  0 22.799999999999955  0 20  Z " stroke-width="2" stroke="#2b85e4" fill="none" transform="matrix(1 0 0 1 992 15 )" mask="url(#clip26)" />
  </g>
</svg>