<?xml version="1.0" encoding="utf-8"?>
<svg version="1.1" xmlns:xlink="http://www.w3.org/1999/xlink" width="80px" height="25px" xmlns="http://www.w3.org/2000/svg">
  <defs>
    <mask fill="white" id="clip113">
      <path d="M 0 20  L 0 5  C 0 2.20000000000005  2.8852459016394 0  6.55737704918033 0  L 45.7559198542805 0  L 73.4426229508197 0  C 77.1147540983606 0  80 2.20000000000005  80 5  L 80 20  C 80 22.8  77.1147540983606 25  73.4426229508197 25  L 6.55737704918033 25  C 2.8852459016394 25  0 22.8  0 20  Z " fill-rule="evenodd" />
    </mask>
  </defs>
  <g transform="matrix(1 0 0 1 -992 -15 )">
    <path d="M 0 20  L 0 5  C 0 2.20000000000005  2.8852459016394 0  6.55737704918033 0  L 45.7559198542805 0  L 73.4426229508197 0  C 77.1147540983606 0  80 2.20000000000005  80 5  L 80 20  C 80 22.8  77.1147540983606 25  73.4426229508197 25  L 6.55737704918033 25  C 2.8852459016394 25  0 22.8  0 20  Z " fill-rule="nonzero" fill="#f0f7ff" stroke="none" transform="matrix(1 0 0 1 992 15 )" />
    <path d="M 0 20  L 0 5  C 0 2.20000000000005  2.8852459016394 0  6.55737704918033 0  L 45.7559198542805 0  L 73.4426229508197 0  C 77.1147540983606 0  80 2.20000000000005  80 5  L 80 20  C 80 22.8  77.1147540983606 25  73.4426229508197 25  L 6.55737704918033 25  C 2.8852459016394 25  0 22.8  0 20  Z " stroke-width="2" stroke="#7abbff" fill="none" transform="matrix(1 0 0 1 992 15 )" mask="url(#clip113)" />
  </g>
</svg>