<?xml version="1.0" encoding="utf-8"?>
<svg version="1.1" xmlns:xlink="http://www.w3.org/1999/xlink" width="60px" height="25px" xmlns="http://www.w3.org/2000/svg">
  <defs>
    <mask fill="white" id="clip90">
      <path d="M 0 20  L 0 5  C 0 2.1999999999999993  2.2000000000000455 0  5 0  L 34.66666666666674 0  L 55 0  C 57.799999999999955 0  60 2.1999999999999993  60 5  L 60 20  C 60 22.799999999999997  57.799999999999955 25  55 25  L 5 25  C 2.2000000000000455 25  0 22.799999999999997  0 20  Z " fill-rule="evenodd" />
    </mask>
  </defs>
  <g transform="matrix(1 0 0 1 -1176 -16 )">
    <path d="M 0 20  L 0 5  C 0 2.1999999999999993  2.2000000000000455 0  5 0  L 34.66666666666674 0  L 55 0  C 57.799999999999955 0  60 2.1999999999999993  60 5  L 60 20  C 60 22.799999999999997  57.799999999999955 25  55 25  L 5 25  C 2.2000000000000455 25  0 22.799999999999997  0 20  Z " fill-rule="nonzero" fill="#dd6161" stroke="none" transform="matrix(1 0 0 1 1176 16 )" />
    <path d="M 0 20  L 0 5  C 0 2.1999999999999993  2.2000000000000455 0  5 0  L 34.66666666666674 0  L 55 0  C 57.799999999999955 0  60 2.1999999999999993  60 5  L 60 20  C 60 22.799999999999997  57.799999999999955 25  55 25  L 5 25  C 2.2000000000000455 25  0 22.799999999999997  0 20  Z " stroke-width="2" stroke="#dd6161" fill="none" transform="matrix(1 0 0 1 1176 16 )" mask="url(#clip90)" />
  </g>
</svg>