<?xml version="1.0" encoding="utf-8"?>
<svg version="1.1" xmlns:xlink="http://www.w3.org/1999/xlink" width="60px" height="25px" xmlns="http://www.w3.org/2000/svg">
  <defs>
    <mask fill="white" id="clip118">
      <path d="M 0 20  L 0 5  C 0 2.2  2.20000000000005 0  5 0  L 34.6666666666667 0  L 55 0  C 57.8 0  60 2.2  60 5  L 60 20  C 60 22.8  57.8 25  55 25  L 5 25  C 2.20000000000005 25  0 22.8  0 20  Z " fill-rule="evenodd" />
    </mask>
  </defs>
  <g transform="matrix(1 0 0 1 -1176 -16 )">
    <path d="M 0 20  L 0 5  C 0 2.2  2.20000000000005 0  5 0  L 34.6666666666667 0  L 55 0  C 57.8 0  60 2.2  60 5  L 60 20  C 60 22.8  57.8 25  55 25  L 5 25  C 2.20000000000005 25  0 22.8  0 20  Z " fill-rule="nonzero" fill="#dd6161" stroke="none" transform="matrix(1 0 0 1 1176 16 )" />
    <path d="M 0 20  L 0 5  C 0 2.2  2.20000000000005 0  5 0  L 34.6666666666667 0  L 55 0  C 57.8 0  60 2.2  60 5  L 60 20  C 60 22.8  57.8 25  55 25  L 5 25  C 2.20000000000005 25  0 22.8  0 20  Z " stroke-width="2" stroke="#dd6161" fill="none" transform="matrix(1 0 0 1 1176 16 )" mask="url(#clip118)" />
  </g>
</svg>