<?xml version="1.0" encoding="utf-8"?>
<svg version="1.1" xmlns:xlink="http://www.w3.org/1999/xlink" width="15px" height="13px" xmlns="http://www.w3.org/2000/svg">
  <g transform="matrix(1 0 0 1 -745 -79 )">
    <path d="M 1.896701388888889 0.3173828125  C 2.1137152777777777 0.5289713541666662  2.2222222222222223 0.7842881944444436  2.2222222222222223 1.083333333333334  C 2.2222222222222223 1.489583333333334  2.037037037037037 1.7999131944444438  1.6666666666666665 2.014322916666666  L 1.6666666666666665 12.729166666666666  C 1.6666666666666665 12.80251736111111  1.639178240740741 12.86599392361111  1.5842013888888888 12.919596354166666  C 1.5292245370370372 12.973198784722221  1.4641203703703707 13  1.3888888888888888 13  L 0.8333333333333333 13  C 0.7581018518518519 13  0.6929976851851852 12.973198784722221  0.6380208333333334 12.919596354166666  C 0.5830439814814816 12.86599392361111  0.5555555555555556 12.80251736111111  0.5555555555555556 12.729166666666666  L 0.5555555555555556 2.014322916666666  C 0.18518518518518529 1.7999131944444438  0 1.489583333333334  0 1.083333333333334  C 0 0.7842881944444436  0.10850694444444445 0.5289713541666662  0.3255208333333333 0.3173828125  C 0.5425347222222222 0.10579427083333381  0.8043981481481483 0  1.1111111111111112 0  C 1.4178240740740742 0  1.6796875 0.10579427083333381  1.896701388888889 0.3173828125  Z M 14.835069444444445 1.244140625  C 14.945023148148149 1.3513454861111098  15 1.4782986111111098  15 1.625  L 15 8.082682291666668  C 15 8.223741319444443  14.963831018518519 8.332356770833332  14.891493055555555 8.408528645833332  C 14.819155092592595 8.484700520833332  14.704861111111112 8.56228298611111  14.54861111111111 8.641276041666668  C 13.304398148148149 9.295789930555555  12.236689814814815 9.623046875  11.34548611111111 9.623046875  C 10.992476851851853 9.623046875  10.635127314814815 9.560980902777777  10.2734375 9.436848958333332  C 9.911747685185187 9.312717013888888  9.597800925925927 9.177300347222223  9.331597222222223 9.030598958333332  C 9.06539351851852 8.883897569444443  8.73119212962963 8.748480902777777  8.328993055555555 8.624348958333332  C 7.926793981481481 8.500217013888888  7.514467592592593 8.438151041666668  7.092013888888889 8.438151041666668  C 5.980902777777778 8.438151041666668  4.638310185185185 8.850043402777777  3.064236111111111 9.673828125  C 2.9658564814814814 9.724609375  2.8703703703703707 9.75  2.7777777777777777 9.75  C 2.627314814814815 9.75  2.4971064814814814 9.696397569444443  2.3871527777777777 9.589192708333332  C 2.2771990740740744 9.481987847222223  2.2222222222222223 9.355034722222223  2.2222222222222223 9.208333333333332  L 2.2222222222222223 2.928385416666666  C 2.2222222222222223 2.74782986111111  2.3119212962962967 2.592664930555555  2.4913194444444446 2.462890625  C 2.6128472222222223 2.3838975694444438  2.841435185185185 2.262586805555555  3.1770833333333335 2.098958333333334  C 4.542824074074074 1.421875  5.760995370370371 1.083333333333334  6.831597222222222 1.083333333333334  C 7.450810185185185 1.083333333333334  8.02951388888889 1.1651475694444438  8.567708333333334 1.328776041666666  C 9.105902777777779 1.4924045138888888  9.739583333333334 1.740668402777776  10.46875 2.073567708333334  C 10.688657407407408 2.1807725694444438  10.943287037037038 2.234375  11.23263888888889 2.234375  C 11.54513888888889 2.234375  11.885127314814815 2.175130208333334  12.252604166666666 2.056640625  C 12.620081018518519 1.938151041666666  12.938368055555557 1.805555555555555  13.207465277777779 1.658854166666666  C 13.476562500000002 1.512152777777776  13.731192129629632 1.379557291666666  13.971354166666668 1.261067708333334  C 14.211516203703704 1.142578125  14.369212962962964 1.083333333333334  14.444444444444443 1.083333333333334  C 14.594907407407408 1.083333333333334  14.725115740740742 1.1369357638888888  14.835069444444445 1.244140625  Z " fill-rule="nonzero" fill="#d9001b" stroke="none" fill-opacity="0.6980392156862745" transform="matrix(1 0 0 1 745 79 )" />
  </g>
</svg>