<?xml version="1.0" encoding="utf-8"?>
<svg version="1.1" xmlns:xlink="http://www.w3.org/1999/xlink" width="15px" height="13px" xmlns="http://www.w3.org/2000/svg">
  <g transform="matrix(1 0 0 1 -745 -79 )">
    <path d="M 1.89670138888889 0.3173828125  C 2.11371527777778 0.528971354166666  2.22222222222222 0.784288194444444  2.22222222222222 1.08333333333333  C 2.22222222222222 1.48958333333333  2.03703703703704 1.79991319444444  1.66666666666667 2.01432291666667  L 1.66666666666667 12.7291666666667  C 1.66666666666667 12.8025173611111  1.63917824074074 12.8659939236111  1.58420138888889 12.9195963541667  C 1.52922453703704 12.9731987847222  1.46412037037037 13  1.38888888888889 13  L 0.833333333333333 13  C 0.758101851851852 13  0.692997685185185 12.9731987847222  0.638020833333333 12.9195963541667  C 0.583043981481482 12.8659939236111  0.555555555555556 12.8025173611111  0.555555555555556 12.7291666666667  L 0.555555555555556 2.01432291666667  C 0.185185185185185 1.79991319444444  0 1.48958333333333  0 1.08333333333333  C 0 0.784288194444444  0.108506944444444 0.528971354166666  0.325520833333333 0.3173828125  C 0.542534722222222 0.105794270833334  0.804398148148148 0  1.11111111111111 0  C 1.41782407407407 0  1.6796875 0.105794270833334  1.89670138888889 0.3173828125  Z M 14.8350694444444 1.244140625  C 14.9450231481481 1.35134548611111  15 1.47829861111111  15 1.625  L 15 8.08268229166667  C 15 8.22374131944444  14.9638310185185 8.33235677083333  14.8914930555556 8.40852864583333  C 14.8191550925926 8.48470052083333  14.7048611111111 8.56228298611111  14.5486111111111 8.64127604166667  C 13.3043981481481 9.29578993055556  12.2366898148148 9.623046875  11.3454861111111 9.623046875  C 10.9924768518519 9.623046875  10.6351273148148 9.56098090277778  10.2734375 9.43684895833333  C 9.91174768518519 9.31271701388889  9.59780092592593 9.17730034722222  9.33159722222222 9.03059895833333  C 9.06539351851852 8.88389756944444  8.73119212962963 8.74848090277778  8.32899305555556 8.62434895833333  C 7.92679398148148 8.50021701388889  7.51446759259259 8.43815104166667  7.09201388888889 8.43815104166667  C 5.98090277777778 8.43815104166667  4.63831018518519 8.85004340277778  3.06423611111111 9.673828125  C 2.96585648148148 9.724609375  2.87037037037037 9.75  2.77777777777778 9.75  C 2.62731481481481 9.75  2.49710648148148 9.69639756944444  2.38715277777778 9.58919270833333  C 2.27719907407407 9.48198784722222  2.22222222222222 9.35503472222222  2.22222222222222 9.20833333333333  L 2.22222222222222 2.92838541666667  C 2.22222222222222 2.74782986111111  2.3119212962963 2.59266493055555  2.49131944444444 2.462890625  C 2.61284722222222 2.38389756944444  2.84143518518519 2.26258680555555  3.17708333333333 2.09895833333333  C 4.54282407407407 1.421875  5.76099537037037 1.08333333333333  6.83159722222222 1.08333333333333  C 7.45081018518519 1.08333333333333  8.02951388888889 1.16514756944444  8.56770833333333 1.32877604166667  C 9.10590277777778 1.49240451388889  9.73958333333333 1.74066840277778  10.46875 2.07356770833333  C 10.6886574074074 2.18077256944444  10.943287037037 2.234375  11.2326388888889 2.234375  C 11.5451388888889 2.234375  11.8851273148148 2.17513020833333  12.2526041666667 2.056640625  C 12.6200810185185 1.93815104166667  12.9383680555556 1.80555555555555  13.2074652777778 1.65885416666667  C 13.4765625 1.51215277777778  13.7311921296296 1.37955729166667  13.9713541666667 1.26106770833333  C 14.2115162037037 1.142578125  14.369212962963 1.08333333333333  14.4444444444444 1.08333333333333  C 14.5949074074074 1.08333333333333  14.7251157407407 1.13693576388889  14.8350694444444 1.244140625  Z " fill-rule="nonzero" fill="#d9001b" stroke="none" fill-opacity="0.698039215686274" transform="matrix(1 0 0 1 745 79 )" />
  </g>
</svg>