<?xml version="1.0" encoding="utf-8"?>
<svg version="1.1" xmlns:xlink="http://www.w3.org/1999/xlink" width="25px" height="20px" xmlns="http://www.w3.org/2000/svg">
  <g transform="matrix(1 0 0 1 -20 -15 )">
    <path d="M 24.5483870967742 2.76094276094276  C 24.8494623655914 3.07519640852974  25 3.45679012345679  25 3.90572390572391  C 25 4.35465768799102  24.8494623655914 4.73625140291807  24.5483870967742 5.05050505050505  L 12.8709677419355 17.2390572390572  L 10.6774193548387 19.5286195286195  C 10.3763440860215 19.8428731762065  10.010752688172 20  9.58064516129032 20  C 9.1505376344086 20  8.78494623655914 19.8428731762065  8.48387096774194 19.5286195286195  L 6.29032258064516 17.2390572390572  L 0.451612903225806 11.1447811447811  C 0.150537634408602 10.8305274971942  0 10.4489337822671  0 10  C 0 9.55106621773288  0.150537634408602 9.16947250280584  0.451612903225806 8.85521885521886  L 2.64516129032258 6.56565656565657  C 2.94623655913978 6.25140291806958  3.31182795698925 6.09427609427609  3.74193548387097 6.09427609427609  C 4.17204301075269 6.09427609427609  4.53763440860215 6.25140291806958  4.83870967741935 6.56565656565657  L 9.58064516129032 11.5319865319865  L 20.1612903225806 0.471380471380471  C 20.4623655913979 0.15712682379349  20.8279569892473 0  21.258064516129 0  C 21.6881720430108 0  22.0537634408602 0.15712682379349  22.3548387096774 0.471380471380471  L 24.5483870967742 2.76094276094276  Z " fill-rule="nonzero" fill="#3c763d" stroke="none" transform="matrix(1 0 0 1 20 15 )" />
  </g>
</svg>