<?xml version="1.0" encoding="utf-8"?>
<svg version="1.1" xmlns:xlink="http://www.w3.org/1999/xlink" width="25px" height="20px" xmlns="http://www.w3.org/2000/svg">
  <g transform="matrix(1 0 0 1 -20 -15 )">
    <path d="M 24.548387096774192 2.7609427609427617  C 24.8494623655914 3.075196408529741  25.000000000000007 3.45679012345679  25 3.9057239057239057  C 25.000000000000007 4.354657687991019  24.8494623655914 4.736251402918068  24.548387096774192 5.05050505050505  L 12.870967741935486 17.23905723905724  L 10.67741935483871 19.52861952861953  C 10.376344086021506 19.84287317620651  10.010752688172046 20  9.580645161290322 20  C 9.150537634408602 20  8.78494623655914 19.84287317620651  8.483870967741936 19.52861952861953  L 6.290322580645161 17.23905723905724  L 0.4516129032258065 11.144781144781145  C 0.1505376344086023 10.830527497194161  0 10.448933782267114  0 10  C 0 9.551066217732885  0.1505376344086023 9.169472502805835  0.4516129032258065 8.855218855218856  L 2.6451612903225805 6.565656565656566  C 2.946236559139785 6.251402918069584  3.311827956989248 6.094276094276092  3.741935483870968 6.094276094276094  C 4.172043010752689 6.094276094276092  4.537634408602151 6.251402918069584  4.838709677419355 6.565656565656566  L 9.580645161290322 11.531986531986531  L 20.161290322580644 0.47138047138047146  C 20.46236559139785 0.15712682379348974  20.827956989247316 0  21.258064516129032 0  C 21.688172043010752 0  22.053763440860216 0.15712682379348974  22.35483870967742 0.47138047138047146  L 24.548387096774192 2.7609427609427617  Z " fill-rule="nonzero" fill="#3c763d" stroke="none" transform="matrix(1 0 0 1 20 15 )" />
  </g>
</svg>