<?xml version="1.0" encoding="utf-8"?>
<svg version="1.1" xmlns:xlink="http://www.w3.org/1999/xlink" width="1530px" height="1271px" xmlns="http://www.w3.org/2000/svg">
  <defs>
    <filter x="-5px" y="-2px" width="1530px" height="1271px" filterUnits="userSpaceOnUse" id="filter281">
      <feOffset dx="0" dy="0" in="SourceAlpha" result="shadowOffsetInner" />
      <feGaussianBlur stdDeviation="2.5" in="shadowOffsetInner" result="shadowGaussian" />
      <feComposite in2="shadowGaussian" operator="atop" in="SourceAlpha" result="shadowComposite" />
      <feColorMatrix type="matrix" values="0 0 0 0 0  0 0 0 0 0  0 0 0 0 0  0 0 0 0.0470588235294118 0  " in="shadowComposite" />
    </filter>
    <g id="widget282">
      <path d="M 0.5 13  A 9.5 9.5 0 0 1 10 3.5 L 1510 3.5  A 9.5 9.5 0 0 1 1519.5 13 L 1519.5 1254  A 9.5 9.5 0 0 1 1510 1263.5 L 10 1263.5  A 9.5 9.5 0 0 1 0.5 1254 L 0.5 13  Z " fill-rule="nonzero" fill="#ffffff" stroke="none" fill-opacity="0" />
      <path d="M 0.5 13  A 9.5 9.5 0 0 1 10 3.5 L 1510 3.5  A 9.5 9.5 0 0 1 1519.5 13 L 1519.5 1254  A 9.5 9.5 0 0 1 1510 1263.5 L 10 1263.5  A 9.5 9.5 0 0 1 0.5 1254 L 0.5 13  Z " stroke-width="1" stroke="#e9e9e9" fill="none" />
    </g>
  </defs>
  <g transform="matrix(1 0 0 1 5 2 )">
    <use xlink:href="#widget282" filter="url(#filter281)" />
    <use xlink:href="#widget282" />
  </g>
</svg>