<?xml version="1.0" encoding="utf-8"?>
<svg version="1.1" xmlns:xlink="http://www.w3.org/1999/xlink" width="20px" height="15px" xmlns="http://www.w3.org/2000/svg">
  <g transform="matrix(1 0 0 1 -1362 -506 )">
    <path d="M 9.327354260089686 11.25  L 9.955156950672645 11.25  L 11.255605381165918 10.014204545454545  L 9.551569506726457 8.394886363636363  L 8.251121076233185 9.630681818181818  L 8.251121076233185 10.227272727272728  L 9.327354260089686 10.227272727272728  L 9.327354260089686 11.25  Z M 14.876681614349776 3.9311079545454546  C 15.003736920777282 3.8103693181818166  15.00747384155456 3.6931818181818166  14.887892376681615 3.5795454545454546  C 14.76831091180867 3.4659090909090895  14.644992526158447 3.4694602272727257  14.51793721973094 3.590198863636364  L 10.594170403587444 7.318892045454545  C 10.46711509715994 7.439630681818182  10.46337817638266 7.55681818181818  10.582959641255606 7.670454545454545  C 10.702541106128551 7.784090909090909  10.825859491778775 7.780539772727271  10.95291479820628 7.659801136363638  L 14.876681614349776 3.9311079545454546  Z M 15.560538116591928 9.59872159090909  C 15.71001494768311 9.65553977272727  15.784753363228699 9.758522727272728  15.784753363228699 9.907670454545455  L 15.784753363228699 11.931818181818182  C 15.784753363228699 12.776988636363637  15.468983557548581 13.499644886363637  14.83744394618834 14.099786931818182  C 14.205904334828103 14.699928977272727  13.44544095665172 15  12.556053811659194 15  L 3.2286995515695067 15  C 2.3393124065769806 15  1.5788490284005978 14.699928977272727  0.9473094170403586 14.099786931818182  C 0.31576980568011953 13.499644886363637  0 12.776988636363637  0 11.931818181818182  L 0 3.068181818181819  C 0 2.223011363636362  0.31576980568011953 1.5003551136363629  0.9473094170403586 0.9002130681818188  C 1.5788490284005978 0.30007102272727126  2.3393124065769806 0  3.2286995515695067 0  L 12.556053811659194 0  C 13.026905829596414 0  13.464125560538116 0.08877840909090828  13.867713004484305 0.2663352272727265  C 13.97982062780269 0.31605113636363535  14.04708520179372 0.3977272727272724  14.0695067264574 0.5113636363636359  C 14.091928251121075 0.6321022727272724  14.05829596412556 0.7350852272727265  13.968609865470851 0.8203125  L 13.419282511210762 1.3423295454545454  C 13.314648729446937 1.4417613636363629  13.195067264573993 1.4701704545454546  13.060538116591928 1.4275568181818188  C 12.888639760837071 1.3849431818181812  12.720478325859492 1.3636363636363642  12.556053811659194 1.3636363636363642  L 3.2286995515695067 1.3636363636363642  C 2.73542600896861 1.3636363636363642  2.3131539611360243 1.5305397727272712  1.961883408071749 1.8643465909090906  C 1.610612855007474 2.1981534090909083  1.4349775784753362 2.599431818181819  1.4349775784753362 3.068181818181819  L 1.4349775784753362 11.931818181818182  C 1.4349775784753362 12.400568181818182  1.610612855007474 12.801846590909088  1.961883408071749 13.13565340909091  C 2.3131539611360243 13.469460227272727  2.73542600896861 13.636363636363637  3.2286995515695067 13.636363636363637  L 12.556053811659194 13.636363636363637  C 13.04932735426009 13.636363636363637  13.471599402092675 13.469460227272727  13.822869955156952 13.13565340909091  C 14.174140508221226 12.801846590909088  14.349775784753362 12.400568181818182  14.349775784753362 11.931818181818182  L 14.349775784753362 10.589488636363637  C 14.349775784753362 10.49715909090909  14.38340807174888 10.41903409090909  14.45067264573991 10.355113636363637  L 15.168161434977579 9.673295454545455  C 15.280269058295964 9.566761363636363  15.411061285500748 9.541903409090908  15.560538116591928 9.59872159090909  Z M 7.174887892376681 9.204545454545455  L 14.708520179372197 2.0454545454545454  L 17.937219730941706 5.113636363636364  L 10.403587443946186 12.272727272727272  L 7.174887892376681 12.272727272727272  L 7.174887892376681 9.204545454545455  Z M 20 2.7272727272727266  C 20 3.0113636363636354  19.895366218236173 3.2528409090909083  19.68609865470852 3.4517045454545454  L 18.654708520179373 4.431818181818182  L 15.426008968609866 1.3636363636363642  L 16.457399103139014 0.3835227272727265  C 16.666666666666668 0.1846590909090895  16.920777279521676 0.08522727272727348  17.219730941704036 0.08522727272727348  C 17.5186846038864 0.08522727272727348  17.772795216741407 0.1846590909090895  17.98206278026906 0.3835227272727265  L 19.68609865470852 2.002840909090909  C 19.895366218236173 2.201704545454543  20 2.4431818181818175  20 2.7272727272727266  Z " fill-rule="nonzero" fill="#ffffff" stroke="none" transform="matrix(1 0 0 1 1362 506 )" />
  </g>
</svg>