<?xml version="1.0" encoding="utf-8"?>
<svg version="1.1" xmlns:xlink="http://www.w3.org/1999/xlink" width="20px" height="15px" xmlns="http://www.w3.org/2000/svg">
  <g transform="matrix(1 0 0 1 -1362 -506 )">
    <path d="M 9.32735426008969 11.25  L 9.95515695067265 11.25  L 11.2556053811659 10.0142045454545  L 9.55156950672646 8.39488636363636  L 8.25112107623318 9.63068181818182  L 8.25112107623318 10.2272727272727  L 9.32735426008969 10.2272727272727  L 9.32735426008969 11.25  Z M 14.8766816143498 3.93110795454545  C 15.0037369207773 3.81036931818182  15.0074738415546 3.69318181818182  14.8878923766816 3.57954545454545  C 14.7683109118087 3.46590909090909  14.6449925261584 3.46946022727273  14.5179372197309 3.59019886363636  L 10.5941704035874 7.31889204545454  C 10.4671150971599 7.43963068181818  10.4633781763827 7.55681818181818  10.5829596412556 7.67045454545454  C 10.7025411061286 7.78409090909091  10.8258594917788 7.78053977272727  10.9529147982063 7.65980113636364  L 14.8766816143498 3.93110795454545  Z M 15.5605381165919 9.59872159090909  C 15.7100149476831 9.65553977272727  15.7847533632287 9.75852272727273  15.7847533632287 9.90767045454546  L 15.7847533632287 11.9318181818182  C 15.7847533632287 12.7769886363636  15.4689835575486 13.4996448863636  14.8374439461883 14.0997869318182  C 14.2059043348281 14.6999289772727  13.4454409566517 15  12.5560538116592 15  L 3.22869955156951 15  C 2.33931240657698 15  1.5788490284006 14.6999289772727  0.947309417040359 14.0997869318182  C 0.31576980568012 13.4996448863636  0 12.7769886363636  0 11.9318181818182  L 0 3.06818181818182  C 0 2.22301136363636  0.31576980568012 1.50035511363636  0.947309417040359 0.900213068181819  C 1.5788490284006 0.300071022727271  2.33931240657698 0  3.22869955156951 0  L 12.5560538116592 0  C 13.0269058295964 0  13.4641255605381 0.0887784090909083  13.8677130044843 0.266335227272727  C 13.9798206278027 0.316051136363635  14.0470852017937 0.397727272727272  14.0695067264574 0.511363636363636  C 14.0919282511211 0.632102272727272  14.0582959641256 0.735085227272727  13.9686098654709 0.8203125  L 13.4192825112108 1.34232954545455  C 13.3146487294469 1.44176136363636  13.195067264574 1.47017045454545  13.0605381165919 1.42755681818182  C 12.8886397608371 1.38494318181818  12.7204783258595 1.36363636363636  12.5560538116592 1.36363636363636  L 3.22869955156951 1.36363636363636  C 2.73542600896861 1.36363636363636  2.31315396113602 1.53053977272727  1.96188340807175 1.86434659090909  C 1.61061285500747 2.19815340909091  1.43497757847534 2.59943181818182  1.43497757847534 3.06818181818182  L 1.43497757847534 11.9318181818182  C 1.43497757847534 12.4005681818182  1.61061285500747 12.8018465909091  1.96188340807175 13.1356534090909  C 2.31315396113602 13.4694602272727  2.73542600896861 13.6363636363636  3.22869955156951 13.6363636363636  L 12.5560538116592 13.6363636363636  C 13.0493273542601 13.6363636363636  13.4715994020927 13.4694602272727  13.822869955157 13.1356534090909  C 14.1741405082212 12.8018465909091  14.3497757847534 12.4005681818182  14.3497757847534 11.9318181818182  L 14.3497757847534 10.5894886363636  C 14.3497757847534 10.4971590909091  14.3834080717489 10.4190340909091  14.4506726457399 10.3551136363636  L 15.1681614349776 9.67329545454546  C 15.280269058296 9.56676136363636  15.4110612855007 9.54190340909091  15.5605381165919 9.59872159090909  Z M 7.17488789237668 9.20454545454546  L 14.7085201793722 2.04545454545455  L 17.9372197309417 5.11363636363636  L 10.4035874439462 12.2727272727273  L 7.17488789237668 12.2727272727273  L 7.17488789237668 9.20454545454546  Z M 20 2.72727272727273  C 20 3.01136363636364  19.8953662182362 3.25284090909091  19.6860986547085 3.45170454545455  L 18.6547085201794 4.43181818181818  L 15.4260089686099 1.36363636363636  L 16.457399103139 0.383522727272727  C 16.6666666666667 0.184659090909089  16.9207772795217 0.0852272727272735  17.219730941704 0.0852272727272735  C 17.5186846038864 0.0852272727272735  17.7727952167414 0.184659090909089  17.9820627802691 0.383522727272727  L 19.6860986547085 2.00284090909091  C 19.8953662182362 2.20170454545454  20 2.44318181818182  20 2.72727272727273  Z " fill-rule="nonzero" fill="#ffffff" stroke="none" transform="matrix(1 0 0 1 1362 506 )" />
  </g>
</svg>