<?xml version="1.0" encoding="utf-8"?>
<svg version="1.1" xmlns:xlink="http://www.w3.org/1999/xlink" width="15px" height="15px" xmlns="http://www.w3.org/2000/svg">
  <g transform="matrix(1 0 0 1 -1322 -20 )">
    <path d="M 3.75 10.000000000000002  L 3.75 13.75  L 11.25 13.75  L 11.25 10.000000000000002  L 3.75 10.000000000000002  Z M 12.5 9.687499999999998  L 12.5 13.75  L 13.75 13.75  L 13.75 5.000000000000001  C 13.75 4.908854166666664  13.717447916666666 4.783528645833333  13.65234375 4.624023437499999  C 13.587239583333336 4.464518229166666  13.522135416666668 4.352213541666664  13.45703125 4.287109374999999  L 10.712890625 1.5429687500000004  C 10.647786458333336 1.4778645833333321  10.537109375 1.4127604166666652  10.380859375 1.34765625  C 10.224609375 1.282552083333333  10.09765625 1.2500000000000004  10 1.2500000000000004  L 10 5.312499999999999  C 10 5.572916666666667  9.908854166666666 5.794270833333333  9.7265625 5.9765625  C 9.544270833333334 6.158854166666667  9.322916666666666 6.249999999999999  9.0625 6.249999999999999  L 3.4375 6.249999999999999  C 3.177083333333334 6.249999999999999  2.955729166666667 6.158854166666667  2.7734375 5.9765625  C 2.591145833333334 5.794270833333333  2.5 5.572916666666667  2.5 5.312499999999999  L 2.5 1.2500000000000004  L 1.25 1.2500000000000004  L 1.25 13.75  L 2.5 13.75  L 2.5 9.687499999999998  C 2.5 9.427083333333332  2.591145833333334 9.205729166666664  2.7734375 9.0234375  C 2.955729166666667 8.841145833333332  3.177083333333334 8.749999999999998  3.4375 8.749999999999998  L 11.5625 8.749999999999998  C 11.822916666666668 8.749999999999998  12.044270833333334 8.841145833333332  12.2265625 9.0234375  C 12.408854166666668 9.205729166666664  12.5 9.427083333333332  12.5 9.687499999999998  Z M 8.6572265625 4.9072265625  C 8.719075520833334 4.845377604166666  8.75 4.772135416666666  8.75 4.6875  L 8.75 1.5624999999999996  C 8.75 1.4778645833333321  8.719075520833334 1.4046223958333321  8.6572265625 1.3427734374999996  C 8.595377604166668 1.2809244791666652  8.522135416666668 1.2500000000000004  8.4375 1.2500000000000004  L 6.5625 1.2500000000000004  C 6.477864583333333 1.2500000000000004  6.404622395833333 1.2809244791666652  6.3427734375 1.3427734374999996  C 6.280924479166668 1.4046223958333321  6.25 1.4778645833333321  6.25 1.5624999999999996  L 6.25 4.6875  C 6.25 4.772135416666666  6.280924479166668 4.845377604166666  6.3427734375 4.9072265625  C 6.404622395833333 4.969075520833332  6.477864583333333 5.000000000000001  6.5625 5.000000000000001  L 8.4375 5.000000000000001  C 8.522135416666668 5.000000000000001  8.595377604166668 4.969075520833332  8.6572265625 4.9072265625  Z M 14.8046875 4.140624999999999  C 14.934895833333334 4.453125  15 4.739583333333333  15 5.000000000000001  L 15 14.0625  C 15 14.322916666666668  14.908854166666666 14.544270833333332  14.7265625 14.7265625  C 14.544270833333336 14.908854166666668  14.322916666666668 15  14.0625 15  L 0.9375 15  C 0.6770833333333335 15  0.45572916666666674 14.908854166666668  0.2734375 14.7265625  C 0.09114583333333331 14.544270833333332  0 14.322916666666668  0 14.0625  L 0 0.9375  C 0 0.6770833333333326  0.09114583333333331 0.45572916666666463  0.2734375 0.27343749999999944  C 0.45572916666666674 0.0911458333333326  0.6770833333333335 0  0.9375 0  L 10 0  C 10.260416666666666 0  10.546875 0.06510416666666519  10.859375 0.19531250000000056  C 11.171875 0.3255208333333326  11.419270833333336 0.48177083333333204  11.6015625 0.6640625000000006  L 14.3359375 3.3984375  C 14.518229166666668 3.580729166666665  14.674479166666668 3.8281250000000004  14.8046875 4.140624999999999  Z " fill-rule="nonzero" fill="#ffffff" stroke="none" transform="matrix(1 0 0 1 1322 20 )" />
  </g>
</svg>