<?xml version="1.0" encoding="utf-8"?>
<svg version="1.1" xmlns:xlink="http://www.w3.org/1999/xlink" width="18px" height="15px" xmlns="http://www.w3.org/2000/svg">
  <g transform="matrix(1 0 0 1 -1374 -20 )">
    <path d="M 3.48046875 10.509588068181818  C 3.731584821428571 10.24325284090909  3.8571428571428568 9.921874999999998  3.8571428571428568 9.545454545454545  C 3.8571428571428568 9.169034090909088  3.731584821428571 8.84765625  3.48046875 8.581321022727272  C 3.229352678571429 8.314985795454545  2.9263392857142865 8.181818181818182  2.571428571428571 8.181818181818182  C 2.216517857142857 8.181818181818182  1.9135044642857144 8.314985795454545  1.6623883928571428 8.581321022727272  C 1.4112723214285716 8.84765625  1.2857142857142856 9.169034090909088  1.2857142857142856 9.545454545454545  C 1.2857142857142856 9.921874999999998  1.4112723214285716 10.24325284090909  1.6623883928571428 10.509588068181818  C 1.9135044642857144 10.775923295454545  2.216517857142857 10.90909090909091  2.571428571428571 10.90909090909091  C 2.9263392857142865 10.90909090909091  3.229352678571429 10.775923295454545  3.48046875 10.509588068181818  Z M 5.409040178571429 5.736860795454545  C 5.66015625 5.470525568181818  5.7857142857142865 5.149147727272727  5.7857142857142865 4.772727272727273  C 5.7857142857142865 4.396306818181817  5.66015625 4.074928977272727  5.409040178571429 3.80859375  C 5.157924107142858 3.5422585227272734  4.854910714285714 3.409090909090909  4.5 3.409090909090909  C 4.145089285714286 3.409090909090909  3.8420758928571432 3.5422585227272734  3.590959821428571 3.80859375  C 3.33984375 4.074928977272727  3.2142857142857144 4.396306818181817  3.2142857142857144 4.772727272727273  C 3.2142857142857144 5.149147727272727  3.33984375 5.470525568181818  3.590959821428571 5.736860795454545  C 3.8420758928571432 6.003196022727273  4.145089285714286 6.136363636363636  4.5 6.136363636363636  C 4.854910714285714 6.136363636363636  5.157924107142858 6.003196022727273  5.409040178571429 5.736860795454545  Z M 10.808035714285715 10.866477272727272  C 10.660714285714288 10.461647727272728  10.419642857142858 10.138494318181817  10.084821428571427 9.897017045454545  L 11.099330357142858 5.827414772727273  C 11.139508928571427 5.642755681818181  11.114397321428573 5.470525568181818  11.023995535714285 5.310724431818182  C 10.93359375 5.150923295454543  10.804687500000002 5.046164772727272  10.637276785714285 4.996448863636364  C 10.469866071428573 4.946732954545453  10.309151785714288 4.969815340909091  10.155133928571427 5.065696022727273  C 10.001116071428571 5.161576704545455  9.900669642857144 5.30184659090909  9.853794642857142 5.486505681818182  L 8.839285714285714 9.556107954545455  C 8.4375 9.591619318181818  8.079241071428571 9.746093749999998  7.764508928571429 10.01953125  C 7.4497767857142865 10.292968749999998  7.2388392857142865 10.642755681818182  7.131696428571429 11.068892045454545  C 6.997767857142858 11.615767045454545  7.064732142857143 12.134232954545455  7.3325892857142865 12.624289772727272  C 7.600446428571429 13.11434659090909  7.9921875 13.430397727272728  8.5078125 13.572443181818182  C 9.0234375 13.714488636363637  9.512276785714286 13.64346590909091  9.974330357142858 13.359375  C 10.436383928571427 13.07528409090909  10.734375000000002 12.659801136363637  10.868303571428573 12.112926136363637  C 10.975446428571429 11.686789772727272  10.955357142857144 11.271306818181818  10.808035714285715 10.866477272727272  Z M 16.337611607142858 10.509588068181818  C 16.588727678571427 10.24325284090909  16.714285714285715 9.921874999999998  16.714285714285715 9.545454545454545  C 16.714285714285715 9.169034090909088  16.588727678571427 8.84765625  16.337611607142858 8.581321022727272  C 16.086495535714285 8.314985795454545  15.783482142857146 8.181818181818182  15.428571428571427 8.181818181818182  C 15.073660714285714 8.181818181818182  14.770647321428573 8.314985795454545  14.51953125 8.581321022727272  C 14.268415178571427 8.84765625  14.142857142857142 9.169034090909088  14.142857142857142 9.545454545454545  C 14.142857142857142 9.921874999999998  14.268415178571427 10.24325284090909  14.51953125 10.509588068181818  C 14.770647321428573 10.775923295454545  15.073660714285714 10.90909090909091  15.428571428571427 10.90909090909091  C 15.783482142857146 10.90909090909091  16.086495535714285 10.775923295454545  16.337611607142858 10.509588068181818  Z M 9.909040178571427 3.69140625  C 10.16015625 3.4250710227272734  10.285714285714285 3.1036931818181817  10.285714285714285 2.7272727272727266  C 10.285714285714285 2.350852272727271  10.16015625 2.029474431818181  9.909040178571427 1.7631392045454546  C 9.657924107142858 1.4968039772727266  9.354910714285715 1.3636363636363642  9 1.3636363636363642  C 8.645089285714286 1.3636363636363642  8.342075892857144 1.4968039772727266  8.090959821428571 1.7631392045454546  C 7.83984375 2.029474431818181  7.7142857142857135 2.350852272727271  7.7142857142857135 2.7272727272727266  C 7.7142857142857135 3.1036931818181817  7.83984375 3.4250710227272734  8.090959821428571 3.69140625  C 8.342075892857144 3.9577414772727266  8.645089285714286 4.090909090909091  9 4.090909090909091  C 9.354910714285715 4.090909090909091  9.657924107142858 3.9577414772727266  9.909040178571427 3.69140625  Z M 14.409040178571427 5.736860795454545  C 14.66015625 5.470525568181818  14.785714285714285 5.149147727272727  14.785714285714285 4.772727272727273  C 14.785714285714285 4.396306818181817  14.66015625 4.074928977272727  14.409040178571427 3.80859375  C 14.157924107142858 3.5422585227272734  13.854910714285715 3.409090909090909  13.5 3.409090909090909  C 13.145089285714286 3.409090909090909  12.842075892857142 3.5422585227272734  12.590959821428573 3.80859375  C 12.33984375 4.074928977272727  12.214285714285715 4.396306818181817  12.214285714285715 4.772727272727273  C 12.214285714285715 5.149147727272727  12.33984375 5.470525568181818  12.590959821428573 5.736860795454545  C 12.842075892857142 6.003196022727273  13.145089285714286 6.136363636363636  13.5 6.136363636363636  C 13.854910714285715 6.136363636363636  14.157924107142858 6.003196022727273  14.409040178571427 5.736860795454545  Z M 17.286830357142858 5.838068181818182  C 17.76227678571429 7.017045454545454  18 8.252840909090908  18 9.545454545454545  C 18 11.399147727272728  17.527901785714285 13.11434659090909  16.583705357142858 14.691051136363637  C 16.456473214285715 14.897017045454545  16.275669642857146 15  16.041294642857142 15  L 1.9587053571428572 15  C 1.7243303571428572 15  1.543526785714286 14.897017045454545  1.4162946428571428 14.691051136363637  C 0.4720982142857143 13.121448863636363  0 11.406250000000002  0 9.545454545454545  C 0 8.252840909090908  0.23772321428571425 7.017045454545454  0.7131696428571428 5.838068181818182  C 1.1886160714285714 4.659090909090908  1.828125 3.643465909090909  2.631696428571429 2.791193181818181  C 3.4352678571428568 1.9389204545454546  4.392857142857143 1.2606534090909083  5.5044642857142865 0.7563920454545453  C 6.616071428571429 0.25213068181818066  7.78125 0  9 0  C 10.21875 0  11.383928571428573 0.25213068181818066  12.495535714285715 0.7563920454545453  C 13.60714285714286 1.2606534090909083  14.564732142857142 1.9389204545454546  15.368303571428573 2.791193181818181  C 16.171875000000004 3.643465909090909  16.81138392857143 4.659090909090908  17.286830357142858 5.838068181818182  Z " fill-rule="nonzero" fill="#ffffff" stroke="none" transform="matrix(1 0 0 1 1374 20 )" />
  </g>
</svg>