<?xml version="1.0" encoding="utf-8"?>
<svg version="1.1" xmlns:xlink="http://www.w3.org/1999/xlink" width="100px" height="35px" xmlns="http://www.w3.org/2000/svg">
  <g transform="matrix(1 0 0 1 -1427 -145 )">
    <path d="M 1428 150  A 4 4 0 0 1 1432 146 L 1522 146  A 4 4 0 0 1 1526 150 L 1526 175  A 4 4 0 0 1 1522 179 L 1432 179  A 4 4 0 0 1 1428 175 L 1428 150  Z " fill-rule="nonzero" fill="#409eff" stroke="none" fill-opacity="0.0784313725490196" />
    <path d="M 1427.5 150  A 4.5 4.5 0 0 1 1432 145.5 L 1522 145.5  A 4.5 4.5 0 0 1 1526.5 150 L 1526.5 175  A 4.5 4.5 0 0 1 1522 179.5 L 1432 179.5  A 4.5 4.5 0 0 1 1427.5 175 L 1427.5 150  Z " stroke-width="1" stroke="#7abbff" fill="none" stroke-opacity="0.996078431372549" />
  </g>
</svg>