<?xml version="1.0" encoding="utf-8"?>
<svg version="1.1" xmlns:xlink="http://www.w3.org/1999/xlink" width="35px" height="38px" xmlns="http://www.w3.org/2000/svg">
  <g transform="matrix(1 0 0 1 -618 -915 )">
    <path d="M 635.5 916  C 644.74 916  652 923.92  652 934  C 652 944.08  644.74 952  635.5 952  C 626.26 952  619 944.08  619 934  C 619 923.92  626.26 916  635.5 916  Z " fill-rule="nonzero" fill="#ffffff" stroke="none" />
    <path d="M 635.5 916  C 644.74 916  652 923.92  652 934  C 652 944.08  644.74 952  635.5 952  C 626.26 952  619 944.08  619 934  C 619 923.92  626.26 916  635.5 916  Z " stroke-width="2" stroke="#108ee9" fill="none" />
  </g>
</svg>