<?xml version="1.0" encoding="utf-8"?>
<svg version="1.1" xmlns:xlink="http://www.w3.org/1999/xlink" width="29px" height="27px" xmlns="http://www.w3.org/2000/svg">
  <g transform="matrix(1 0 0 1 -1759 -338 )">
    <path d="M 28.423295454545453 10.355113636363637  C 28.807765151515152 10.713068181818178  29 11.147727272727272  29 11.659090909090908  L 29 15.34090909090909  C 29 15.852272727272728  28.807765151515152 16.286931818181817  28.423295454545453 16.644886363636363  C 28.038825757575758 17.002840909090907  27.5719696969697 17.18181818181818  27.02272727272727 17.18181818181818  L 18.454545454545453 17.18181818181818  L 18.454545454545453 25.15909090909091  C 18.454545454545453 25.670454545454547  18.262310606060606 26.105113636363633  17.87784090909091 26.46306818181818  C 17.493371212121218 26.821022727272727  17.026515151515152 27  16.47727272727273 27  L 12.522727272727273 27  C 11.97348484848485 27  11.506628787878789 26.821022727272727  11.122159090909092 26.46306818181818  C 10.737689393939394 26.105113636363633  10.545454545454545 25.670454545454547  10.545454545454545 25.15909090909091  L 10.545454545454545 17.18181818181818  L 1.977272727272727 17.18181818181818  C 1.4280303030303032 17.18181818181818  0.9611742424242425 17.002840909090907  0.5767045454545454 16.644886363636363  C 0.19223484848484845 16.286931818181817  0 15.852272727272728  0 15.34090909090909  L 0 11.659090909090908  C 0 11.147727272727272  0.19223484848484845 10.713068181818178  0.5767045454545454 10.355113636363637  C 0.9611742424242425 9.99715909090909  1.4280303030303032 9.818181818181818  1.977272727272727 9.818181818181818  L 10.545454545454545 9.818181818181818  L 10.545454545454545 1.8409090909090922  C 10.545454545454545 1.3295454545454533  10.737689393939394 0.8948863636363621  11.122159090909092 0.5369318181818185  C 11.506628787878789 0.17897727272727182  11.97348484848485 0  12.522727272727273 0  L 16.47727272727273 0  C 17.026515151515152 0  17.493371212121218 0.17897727272727182  17.87784090909091 0.5369318181818185  C 18.262310606060606 0.8948863636363621  18.454545454545453 1.3295454545454533  18.454545454545453 1.8409090909090922  L 18.454545454545453 9.818181818181818  L 27.02272727272727 9.818181818181818  C 27.5719696969697 9.818181818181818  28.038825757575758 9.99715909090909  28.423295454545453 10.355113636363637  Z " fill-rule="nonzero" fill="#ffffff" stroke="none" transform="matrix(1 0 0 1 1759 338 )" />
  </g>
</svg>