<?xml version="1.0" encoding="utf-8"?>
<svg version="1.1" xmlns:xlink="http://www.w3.org/1999/xlink" width="100px" height="35px" xmlns="http://www.w3.org/2000/svg">
  <g transform="matrix(1 0 0 1 -1253 -459 )">
    <path d="M 1253.5 464  A 4.5 4.5 0 0 1 1258 459.5 L 1348 459.5  A 4.5 4.5 0 0 1 1352.5 464 L 1352.5 489  A 4.5 4.5 0 0 1 1348 493.5 L 1258 493.5  A 4.5 4.5 0 0 1 1253.5 489 L 1253.5 464  Z " fill-rule="nonzero" fill="#dd6161" stroke="none" />
    <path d="M 1253.5 464  A 4.5 4.5 0 0 1 1258 459.5 L 1348 459.5  A 4.5 4.5 0 0 1 1352.5 464 L 1352.5 489  A 4.5 4.5 0 0 1 1348 493.5 L 1258 493.5  A 4.5 4.5 0 0 1 1253.5 489 L 1253.5 464  Z " stroke-width="1" stroke="#dd6161" fill="none" />
  </g>
</svg>