<?xml version="1.0" encoding="utf-8"?>
<svg version="1.1" xmlns:xlink="http://www.w3.org/1999/xlink" width="125px" height="35px" xmlns="http://www.w3.org/2000/svg">
  <g transform="matrix(1 0 0 1 -1109 -459 )">
    <path d="M 1110 464  A 4 4 0 0 1 1114 460 L 1229 460  A 4 4 0 0 1 1233 464 L 1233 489  A 4 4 0 0 1 1229 493 L 1114 493  A 4 4 0 0 1 1110 489 L 1110 464  Z " fill-rule="nonzero" fill="#fef3f3" stroke="none" fill-opacity="0.996078431372549" />
    <path d="M 1109.5 464  A 4.5 4.5 0 0 1 1114 459.5 L 1229 459.5  A 4.5 4.5 0 0 1 1233.5 464 L 1233.5 489  A 4.5 4.5 0 0 1 1229 493.5 L 1114 493.5  A 4.5 4.5 0 0 1 1109.5 489 L 1109.5 464  Z " stroke-width="1" stroke="#f89898" fill="none" stroke-opacity="0.996078431372549" />
  </g>
</svg>