<?xml version="1.0" encoding="utf-8"?>
<svg version="1.1" xmlns:xlink="http://www.w3.org/1999/xlink" width="125px" height="35px" xmlns="http://www.w3.org/2000/svg">
  <g transform="matrix(1 0 0 1 -1109 -459 )">
    <path d="M 1109.5 464  A 4.5 4.5 0 0 1 1114 459.5 L 1229 459.5  A 4.5 4.5 0 0 1 1233.5 464 L 1233.5 489  A 4.5 4.5 0 0 1 1229 493.5 L 1114 493.5  A 4.5 4.5 0 0 1 1109.5 489 L 1109.5 464  Z " fill-rule="nonzero" fill="#f56c6c" stroke="none" />
    <path d="M 1109.5 464  A 4.5 4.5 0 0 1 1114 459.5 L 1229 459.5  A 4.5 4.5 0 0 1 1233.5 464 L 1233.5 489  A 4.5 4.5 0 0 1 1229 493.5 L 1114 493.5  A 4.5 4.5 0 0 1 1109.5 489 L 1109.5 464  Z " stroke-width="1" stroke="#f56c6c" fill="none" />
  </g>
</svg>