<?xml version="1.0" encoding="utf-8"?>
<svg version="1.1" xmlns:xlink="http://www.w3.org/1999/xlink" width="100px" height="35px" xmlns="http://www.w3.org/2000/svg">
  <g transform="matrix(1 0 0 1 -1253 -459 )">
    <path d="M 1254 464  A 4 4 0 0 1 1258 460 L 1348 460  A 4 4 0 0 1 1352 464 L 1352 489  A 4 4 0 0 1 1348 493 L 1258 493  A 4 4 0 0 1 1254 489 L 1254 464  Z " fill-rule="nonzero" fill="#fef3f3" stroke="none" fill-opacity="0.996078431372549" />
    <path d="M 1253.5 464  A 4.5 4.5 0 0 1 1258 459.5 L 1348 459.5  A 4.5 4.5 0 0 1 1352.5 464 L 1352.5 489  A 4.5 4.5 0 0 1 1348 493.5 L 1258 493.5  A 4.5 4.5 0 0 1 1253.5 489 L 1253.5 464  Z " stroke-width="1" stroke="#f89898" fill="none" stroke-opacity="0.996078431372549" />
  </g>
</svg>