<?xml version="1.0" encoding="utf-8"?>
<svg version="1.1" xmlns:xlink="http://www.w3.org/1999/xlink" width="60px" height="25px" xmlns="http://www.w3.org/2000/svg">
  <g transform="matrix(1 0 0 1 -1542 -156 )">
    <path d="M 1543 161  A 4 4 0 0 1 1547 157 L 1597 157  A 4 4 0 0 1 1601 161 L 1601 176  A 4 4 0 0 1 1597 180 L 1547 180  A 4 4 0 0 1 1543 176 L 1543 161  Z " fill-rule="nonzero" fill="#d7d7d7" stroke="none" />
    <path d="M 1542.5 161  A 4.5 4.5 0 0 1 1547 156.5 L 1597 156.5  A 4.5 4.5 0 0 1 1601.5 161 L 1601.5 176  A 4.5 4.5 0 0 1 1597 180.5 L 1547 180.5  A 4.5 4.5 0 0 1 1542.5 176 L 1542.5 161  Z " stroke-width="1" stroke="#f2f2f2" fill="none" stroke-opacity="0.996078431372549" />
  </g>
</svg>