<?xml version="1.0" encoding="utf-8"?>
<svg version="1.1" xmlns:xlink="http://www.w3.org/1999/xlink" width="190px" height="40px" xmlns="http://www.w3.org/2000/svg">
  <g transform="matrix(1 0 0 1 -1147 -911 )">
    <path d="M 1148 916  A 4 4 0 0 1 1152 912 L 1332 912  A 4 4 0 0 1 1336 916 L 1336 946  A 4 4 0 0 1 1332 950 L 1152 950  A 4 4 0 0 1 1148 946 L 1148 916  Z " fill-rule="nonzero" fill="#fef3f3" stroke="none" fill-opacity="0.996078431372549" />
    <path d="M 1147.5 916  A 4.5 4.5 0 0 1 1152 911.5 L 1332 911.5  A 4.5 4.5 0 0 1 1336.5 916 L 1336.5 946  A 4.5 4.5 0 0 1 1332 950.5 L 1152 950.5  A 4.5 4.5 0 0 1 1147.5 946 L 1147.5 916  Z " stroke-width="1" stroke="#f89898" fill="none" stroke-opacity="0.996078431372549" />
  </g>
</svg>