<?xml version="1.0" encoding="utf-8"?>
<svg version="1.1" xmlns:xlink="http://www.w3.org/1999/xlink" width="100px" height="40px" xmlns="http://www.w3.org/2000/svg">
  <defs>
    <mask fill="white" id="clip39">
      <path d="M 0 34.285714285714285  L 0 5.7142857142857135  C 0 2.514285714285701  2.2000000000000455 0  5 0  L 49.923076923076906 0  L 95 0  C 97.79999999999995 0  100 2.514285714285701  100 5.7142857142857135  L 100 34.285714285714285  C 100 37.4857142857143  97.79999999999995 40  95 40  L 5 40  C 2.2000000000000455 40  0 37.4857142857143  0 34.285714285714285  Z " fill-rule="evenodd" />
    </mask>
  </defs>
  <g transform="matrix(1 0 0 1 -1427 -145 )">
    <path d="M 0 34.285714285714285  L 0 5.7142857142857135  C 0 2.514285714285701  2.2000000000000455 0  5 0  L 49.923076923076906 0  L 95 0  C 97.79999999999995 0  100 2.514285714285701  100 5.7142857142857135  L 100 34.285714285714285  C 100 37.4857142857143  97.79999999999995 40  95 40  L 5 40  C 2.2000000000000455 40  0 37.4857142857143  0 34.285714285714285  Z " fill-rule="nonzero" fill="#ffffff" stroke="none" transform="matrix(1 0 0 1 1427 145 )" />
    <path d="M 0 34.285714285714285  L 0 5.7142857142857135  C 0 2.514285714285701  2.2000000000000455 0  5 0  L 49.923076923076906 0  L 95 0  C 97.79999999999995 0  100 2.514285714285701  100 5.7142857142857135  L 100 34.285714285714285  C 100 37.4857142857143  97.79999999999995 40  95 40  L 5 40  C 2.2000000000000455 40  0 37.4857142857143  0 34.285714285714285  Z " stroke-width="2" stroke="#409eff" fill="none" transform="matrix(1 0 0 1 1427 145 )" mask="url(#clip39)" />
  </g>
</svg>