<?xml version="1.0" encoding="utf-8"?>
<svg version="1.1" xmlns:xlink="http://www.w3.org/1999/xlink" width="100px" height="40px" xmlns="http://www.w3.org/2000/svg">
  <defs>
    <mask fill="white" id="clip293">
      <path d="M 0 34.2857142857143  L 0 5.71428571428571  C 0 2.5142857142857  2.20000000000005 0  5 0  L 49.9230769230769 0  L 95 0  C 97.8 0  100 2.5142857142857  100 5.71428571428571  L 100 34.2857142857143  C 100 37.4857142857143  97.8 40  95 40  L 5 40  C 2.20000000000005 40  0 37.4857142857143  0 34.2857142857143  Z " fill-rule="evenodd" />
    </mask>
  </defs>
  <g transform="matrix(1 0 0 1 -1427 -145 )">
    <path d="M 0 34.2857142857143  L 0 5.71428571428571  C 0 2.5142857142857  2.20000000000005 0  5 0  L 49.9230769230769 0  L 95 0  C 97.8 0  100 2.5142857142857  100 5.71428571428571  L 100 34.2857142857143  C 100 37.4857142857143  97.8 40  95 40  L 5 40  C 2.20000000000005 40  0 37.4857142857143  0 34.2857142857143  Z " fill-rule="nonzero" fill="#409eff" stroke="none" fill-opacity="0.0784313725490196" transform="matrix(1 0 0 1 1427 145 )" />
    <path d="M 0 34.2857142857143  L 0 5.71428571428571  C 0 2.5142857142857  2.20000000000005 0  5 0  L 49.9230769230769 0  L 95 0  C 97.8 0  100 2.5142857142857  100 5.71428571428571  L 100 34.2857142857143  C 100 37.4857142857143  97.8 40  95 40  L 5 40  C 2.20000000000005 40  0 37.4857142857143  0 34.2857142857143  Z " stroke-width="2" stroke="#7abbff" fill="none" stroke-opacity="0.996078431372549" transform="matrix(1 0 0 1 1427 145 )" mask="url(#clip293)" />
  </g>
</svg>