<?xml version="1.0" encoding="utf-8"?>
<svg version="1.1" xmlns:xlink="http://www.w3.org/1999/xlink" width="190px" height="40px" xmlns="http://www.w3.org/2000/svg">
  <g transform="matrix(1 0 0 1 -1147 -911 )">
    <path d="M 1147.5 916  A 4.5 4.5 0 0 1 1152 911.5 L 1332 911.5  A 4.5 4.5 0 0 1 1336.5 916 L 1336.5 946  A 4.5 4.5 0 0 1 1332 950.5 L 1152 950.5  A 4.5 4.5 0 0 1 1147.5 946 L 1147.5 916  Z " fill-rule="nonzero" fill="#dd6161" stroke="none" />
    <path d="M 1147.5 916  A 4.5 4.5 0 0 1 1152 911.5 L 1332 911.5  A 4.5 4.5 0 0 1 1336.5 916 L 1336.5 946  A 4.5 4.5 0 0 1 1332 950.5 L 1152 950.5  A 4.5 4.5 0 0 1 1147.5 946 L 1147.5 916  Z " stroke-width="1" stroke="#dd6161" fill="none" />
  </g>
</svg>