<?xml version="1.0" encoding="utf-8"?>
<svg version="1.1" xmlns:xlink="http://www.w3.org/1999/xlink" width="152px" height="40px" xmlns="http://www.w3.org/2000/svg">
  <g transform="matrix(1 0 0 1 -1367 -911 )">
    <path d="M 1368 916  A 4 4 0 0 1 1372 912 L 1514 912  A 4 4 0 0 1 1518 916 L 1518 946  A 4 4 0 0 1 1514 950 L 1372 950  A 4 4 0 0 1 1368 946 L 1368 916  Z " fill-rule="nonzero" fill="#fef3f3" stroke="none" fill-opacity="0.996078431372549" />
    <path d="M 1367.5 916  A 4.5 4.5 0 0 1 1372 911.5 L 1514 911.5  A 4.5 4.5 0 0 1 1518.5 916 L 1518.5 946  A 4.5 4.5 0 0 1 1514 950.5 L 1372 950.5  A 4.5 4.5 0 0 1 1367.5 946 L 1367.5 916  Z " stroke-width="1" stroke="#f89898" fill="none" stroke-opacity="0.996078431372549" />
  </g>
</svg>