<?xml version="1.0" encoding="utf-8"?>
<svg version="1.1" xmlns:xlink="http://www.w3.org/1999/xlink" width="100px" height="40px" xmlns="http://www.w3.org/2000/svg">
  <g transform="matrix(1 0 0 1 -797 -834 )">
    <path d="M 798 837  A 2 2 0 0 1 800 835 L 894 835  A 2 2 0 0 1 896 837 L 896 871  A 2 2 0 0 1 894 873 L 800 873  A 2 2 0 0 1 798 871 L 798 837  Z " fill-rule="nonzero" fill="#f0f7ff" stroke="none" />
    <path d="M 797.5 837  A 2.5 2.5 0 0 1 800 834.5 L 894 834.5  A 2.5 2.5 0 0 1 896.5 837 L 896.5 871  A 2.5 2.5 0 0 1 894 873.5 L 800 873.5  A 2.5 2.5 0 0 1 797.5 871 L 797.5 837  Z " stroke-width="1" stroke="#7abbff" fill="none" stroke-opacity="0.996078431372549" />
  </g>
</svg>