<?xml version="1.0" encoding="utf-8"?>
<svg version="1.1" xmlns:xlink="http://www.w3.org/1999/xlink" width="12px" height="12px" viewBox="644 465  12 12" xmlns="http://www.w3.org/2000/svg">
  <path d="M 650 465  C 653.36 465  656 467.64  656 471  C 656 474.36  653.36 477  650 477  C 646.64 477  644 474.36  644 471  C 644 467.64  646.64 465  650 465  Z " fill-rule="nonzero" fill="#f0f0f0" stroke="none" />
  <path d="M 650 465.5  C 653.08 465.5  655.5 467.92  655.5 471  C 655.5 474.08  653.08 476.5  650 476.5  C 646.92 476.5  644.5 474.08  644.5 471  C 644.5 467.92  646.92 465.5  650 465.5  Z " stroke-width="1" stroke="#f2f2f2" fill="none" />
  <path d="M 650 474  C 648.32 474  647 472.68  647 471  C 647 469.32  648.32 468  650 468  C 651.68 468  653 469.32  653 471  C 653 472.68  651.68 474  650 474  " fill-rule="nonzero" fill="#f2f2f2" stroke="none" />
</svg>