<?xml version="1.0" encoding="utf-8"?>
<svg version="1.1" xmlns:xlink="http://www.w3.org/1999/xlink" width="110px" height="40px" xmlns="http://www.w3.org/2000/svg">
  <defs>
    <mask fill="white" id="clip283">
      <path d="M 0 35  L 0 5  C 0 2.20000000000005  2.20000000000005 0  5 0  L 65.4545454545455 0  L 105 0  C 107.8 0  110 2.20000000000005  110 5  L 110 35  C 110 37.8  107.8 40  105 40  L 5 40  C 2.20000000000005 40  0 37.8  0 35  Z " fill-rule="evenodd" />
    </mask>
  </defs>
  <g transform="matrix(1 0 0 1 -1066 -668 )">
    <path d="M 0 35  L 0 5  C 0 2.20000000000005  2.20000000000005 0  5 0  L 65.4545454545455 0  L 105 0  C 107.8 0  110 2.20000000000005  110 5  L 110 35  C 110 37.8  107.8 40  105 40  L 5 40  C 2.20000000000005 40  0 37.8  0 35  Z " fill-rule="nonzero" fill="#f0f7ff" stroke="none" transform="matrix(1 0 0 1 1066 668 )" />
    <path d="M 0 35  L 0 5  C 0 2.20000000000005  2.20000000000005 0  5 0  L 65.4545454545455 0  L 105 0  C 107.8 0  110 2.20000000000005  110 5  L 110 35  C 110 37.8  107.8 40  105 40  L 5 40  C 2.20000000000005 40  0 37.8  0 35  Z " stroke-width="2" stroke="#7abbff" fill="none" transform="matrix(1 0 0 1 1066 668 )" mask="url(#clip283)" />
  </g>
</svg>