<?xml version="1.0" encoding="utf-8"?>
<svg version="1.1" xmlns:xlink="http://www.w3.org/1999/xlink" width="40px" height="30px" xmlns="http://www.w3.org/2000/svg">
  <g transform="matrix(1 0 0 1 -94 -788 )">
    <path d="M 18.6547085201794 22.5  L 19.9103139013453 22.5  L 22.5112107623318 20.0284090909091  L 19.1031390134529 16.7897727272727  L 16.5022421524664 19.2613636363636  L 16.5022421524664 20.4545454545455  L 18.6547085201794 20.4545454545455  L 18.6547085201794 22.5  Z M 29.7533632286996 7.86221590909091  C 30.0074738415546 7.62073863636363  30.0149476831091 7.38636363636363  29.7757847533632 7.15909090909091  C 29.5366218236173 6.93181818181818  29.2899850523169 6.93892045454545  29.0358744394619 7.18039772727273  L 21.1883408071749 14.6377840909091  C 20.9342301943199 14.8792613636364  20.9267563527653 15.1136363636364  21.1659192825112 15.3409090909091  C 21.4050822122571 15.5681818181818  21.6517189835576 15.5610795454545  21.9058295964126 15.3196022727273  L 29.7533632286996 7.86221590909091  Z M 31.1210762331839 19.1974431818182  C 31.4200298953662 19.3110795454545  31.5695067264574 19.5170454545455  31.5695067264574 19.8153409090909  L 31.5695067264574 23.8636363636364  C 31.5695067264574 25.5539772727273  30.9379671150972 26.9992897727273  29.6748878923767 28.1995738636364  C 28.4118086696562 29.3998579545455  26.8908819133034 30  25.1121076233184 30  L 6.45739910313901 30  C 4.67862481315396 30  3.1576980568012 29.3998579545455  1.89461883408072 28.1995738636364  C 0.631539611360239 26.9992897727273  0 25.5539772727273  0 23.8636363636364  L 0 6.13636363636364  C 0 4.44602272727272  0.631539611360239 3.00071022727273  1.89461883408072 1.80042613636364  C 3.1576980568012 0.600142045454543  4.67862481315396 0  6.45739910313901 0  L 25.1121076233184 0  C 26.0538116591928 0  26.9282511210762 0.177556818181817  27.7354260089686 0.532670454545453  C 27.9596412556054 0.632102272727271  28.0941704035874 0.795454545454545  28.1390134529148 1.02272727272727  C 28.1838565022422 1.26420454545454  28.1165919282511 1.47017045454545  27.9372197309417 1.640625  L 26.8385650224215 2.68465909090909  C 26.6292974588939 2.88352272727273  26.390134529148 2.94034090909091  26.1210762331839 2.85511363636364  C 25.7772795216741 2.76988636363636  25.440956651719 2.72727272727273  25.1121076233184 3  L 6.45739910313901 3  C 5.47085201793722 2.72727272727273  4.62630792227205 3.06107954545454  3.9237668161435 3.72869318181818  C 3.22122571001495 4.39630681818182  2.86995515695067 5.19886363636364  3 6.13636363636364  L 3 23.8636363636364  C 2.86995515695067 24.8011363636364  3.22122571001495 25.6036931818182  3.9237668161435 26.2713068181818  C 4.62630792227205 26.9389204545455  5.47085201793722 27.2727272727273  6.45739910313901 27  L 25.1121076233184 27  C 26.0986547085202 27.2727272727273  26.9431988041854 26.9389204545455  27.6457399103139 26.2713068181818  C 28.3482810164425 25.6036931818182  28.6995515695067 24.8011363636364  28.6995515695067 23.8636363636364  L 28.6995515695067 21.1789772727273  C 28.6995515695067 20.9943181818182  28.7668161434978 20.8380681818182  28.9013452914798 20.7102272727273  L 30.3363228699552 19.3465909090909  C 30.5605381165919 19.1335227272727  30.8221225710015 19.0838068181818  31.1210762331839 19.1974431818182  Z M 14.3497757847534 18.4090909090909  L 29.4170403587444 4.09090909090909  L 35.8744394618834 10.2272727272727  L 20.8071748878924 24.5454545454545  L 14.3497757847534 24.5454545454545  L 14.3497757847534 18.4090909090909  Z M 40 5.45454545454545  C 40 6.02272727272727  39.7907324364723 6.50568181818182  39.372197309417 6.90340909090909  L 37.3094170403587 8.86363636363636  L 30.8520179372197 2.72727272727273  L 32.914798206278 0.767045454545453  C 33.3333333333333 0.369318181818179  33.8415545590434 0.170454545454547  34.4394618834081 0.170454545454547  C 35.0373692077728 0.170454545454547  35.5455904334828 0.369318181818179  35.9641255605381 0.767045454545453  L 39.372197309417 4.00568181818182  C 39.7907324364723 4.40340909090909  40 4.88636363636363  40 5.45454545454545  Z " fill-rule="nonzero" fill="#409eff" stroke="none" transform="matrix(1 0 0 1 94 788 )" />
  </g>
</svg>