<?xml version="1.0" encoding="utf-8"?>
<svg version="1.1" xmlns:xlink="http://www.w3.org/1999/xlink" width="1530px" height="324px" xmlns="http://www.w3.org/2000/svg">
  <defs>
    <filter x="-5px" y="-5px" width="1530px" height="324px" filterUnits="userSpaceOnUse" id="filter13">
      <feOffset dx="0" dy="0" in="SourceAlpha" result="shadowOffsetInner" />
      <feGaussianBlur stdDeviation="2.5" in="shadowOffsetInner" result="shadowGaussian" />
      <feComposite in2="shadowGaussian" operator="atop" in="SourceAlpha" result="shadowComposite" />
      <feColorMatrix type="matrix" values="0 0 0 0 0  0 0 0 0 0  0 0 0 0 0  0 0 0 0.0470588235294118 0  " in="shadowComposite" />
    </filter>
    <g id="widget14">
      <path d="M 0.5 10  A 9.5 9.5 0 0 1 10 0.5 L 1510 0.5  A 9.5 9.5 0 0 1 1519.5 10 L 1519.5 304  A 9.5 9.5 0 0 1 1510 313.5 L 10 313.5  A 9.5 9.5 0 0 1 0.5 304 L 0.5 10  Z " fill-rule="nonzero" fill="#ffffff" stroke="none" fill-opacity="0" />
      <path d="M 0.5 10  A 9.5 9.5 0 0 1 10 0.5 L 1510 0.5  A 9.5 9.5 0 0 1 1519.5 10 L 1519.5 304  A 9.5 9.5 0 0 1 1510 313.5 L 10 313.5  A 9.5 9.5 0 0 1 0.5 304 L 0.5 10  Z " stroke-width="1" stroke="#e9e9e9" fill="none" />
    </g>
  </defs>
  <g transform="matrix(1 0 0 1 5 5 )">
    <use xlink:href="#widget14" filter="url(#filter13)" />
    <use xlink:href="#widget14" />
  </g>
</svg>