<?xml version="1.0" encoding="utf-8"?>
<svg version="1.1" xmlns:xlink="http://www.w3.org/1999/xlink" width="180px" height="35px" xmlns="http://www.w3.org/2000/svg">
  <g transform="matrix(1 0 0 1 -1153 -733 )">
    <path d="M 1154 738  A 4 4 0 0 1 1158 734 L 1328 734  A 4 4 0 0 1 1332 738 L 1332 763  A 4 4 0 0 1 1328 767 L 1158 767  A 4 4 0 0 1 1154 763 L 1154 738  Z " fill-rule="nonzero" fill="#fef3f3" stroke="none" fill-opacity="0.996078431372549" />
    <path d="M 1153.5 738  A 4.5 4.5 0 0 1 1158 733.5 L 1328 733.5  A 4.5 4.5 0 0 1 1332.5 738 L 1332.5 763  A 4.5 4.5 0 0 1 1328 767.5 L 1158 767.5  A 4.5 4.5 0 0 1 1153.5 763 L 1153.5 738  Z " stroke-width="1" stroke="#f89898" fill="none" stroke-opacity="0.996078431372549" />
  </g>
</svg>