<?xml version="1.0" encoding="utf-8"?>
<svg version="1.1" xmlns:xlink="http://www.w3.org/1999/xlink" width="134px" height="35px" xmlns="http://www.w3.org/2000/svg">
  <g transform="matrix(1 0 0 1 -1353 -733 )">
    <path d="M 1354 738  A 4 4 0 0 1 1358 734 L 1482 734  A 4 4 0 0 1 1486 738 L 1486 763  A 4 4 0 0 1 1482 767 L 1358 767  A 4 4 0 0 1 1354 763 L 1354 738  Z " fill-rule="nonzero" fill="#fef3f3" stroke="none" fill-opacity="0.996078431372549" />
    <path d="M 1353.5 738  A 4.5 4.5 0 0 1 1358 733.5 L 1482 733.5  A 4.5 4.5 0 0 1 1486.5 738 L 1486.5 763  A 4.5 4.5 0 0 1 1482 767.5 L 1358 767.5  A 4.5 4.5 0 0 1 1353.5 763 L 1353.5 738  Z " stroke-width="1" stroke="#f89898" fill="none" stroke-opacity="0.996078431372549" />
  </g>
</svg>