<?xml version="1.0" encoding="utf-8"?>
<svg version="1.1" xmlns:xlink="http://www.w3.org/1999/xlink" width="134px" height="35px" xmlns="http://www.w3.org/2000/svg">
  <g transform="matrix(1 0 0 1 -1353 -733 )">
    <path d="M 1353.5 738  A 4.5 4.5 0 0 1 1358 733.5 L 1482 733.5  A 4.5 4.5 0 0 1 1486.5 738 L 1486.5 763  A 4.5 4.5 0 0 1 1482 767.5 L 1358 767.5  A 4.5 4.5 0 0 1 1353.5 763 L 1353.5 738  Z " fill-rule="nonzero" fill="#dd6161" stroke="none" />
    <path d="M 1353.5 738  A 4.5 4.5 0 0 1 1358 733.5 L 1482 733.5  A 4.5 4.5 0 0 1 1486.5 738 L 1486.5 763  A 4.5 4.5 0 0 1 1482 767.5 L 1358 767.5  A 4.5 4.5 0 0 1 1353.5 763 L 1353.5 738  Z " stroke-width="1" stroke="#dd6161" fill="none" />
  </g>
</svg>