<?xml version="1.0" encoding="utf-8"?>
<svg version="1.1" xmlns:xlink="http://www.w3.org/1999/xlink" width="180px" height="40px" xmlns="http://www.w3.org/2000/svg">
  <g transform="matrix(1 0 0 1 -1150 -718 )">
    <path d="M 1151 723  A 4 4 0 0 1 1155 719 L 1325 719  A 4 4 0 0 1 1329 723 L 1329 753  A 4 4 0 0 1 1325 757 L 1155 757  A 4 4 0 0 1 1151 753 L 1151 723  Z " fill-rule="nonzero" fill="#fef3f3" stroke="none" fill-opacity="0.996078431372549" />
    <path d="M 1150.5 723  A 4.5 4.5 0 0 1 1155 718.5 L 1325 718.5  A 4.5 4.5 0 0 1 1329.5 723 L 1329.5 753  A 4.5 4.5 0 0 1 1325 757.5 L 1155 757.5  A 4.5 4.5 0 0 1 1150.5 753 L 1150.5 723  Z " stroke-width="1" stroke="#f89898" fill="none" stroke-opacity="0.996078431372549" />
  </g>
</svg>