<?xml version="1.0" encoding="utf-8"?>
<svg version="1.1" xmlns:xlink="http://www.w3.org/1999/xlink" width="134px" height="40px" xmlns="http://www.w3.org/2000/svg">
  <g transform="matrix(1 0 0 1 -1350 -757 )">
    <path d="M 1350.5 762  A 4.5 4.5 0 0 1 1355 757.5 L 1479 757.5  A 4.5 4.5 0 0 1 1483.5 762 L 1483.5 792  A 4.5 4.5 0 0 1 1479 796.5 L 1355 796.5  A 4.5 4.5 0 0 1 1350.5 792 L 1350.5 762  Z " fill-rule="nonzero" fill="#dd6161" stroke="none" />
    <path d="M 1350.5 762  A 4.5 4.5 0 0 1 1355 757.5 L 1479 757.5  A 4.5 4.5 0 0 1 1483.5 762 L 1483.5 792  A 4.5 4.5 0 0 1 1479 796.5 L 1355 796.5  A 4.5 4.5 0 0 1 1350.5 792 L 1350.5 762  Z " stroke-width="1" stroke="#dd6161" fill="none" />
  </g>
</svg>