<?xml version="1.0" encoding="utf-8"?>
<svg version="1.1" xmlns:xlink="http://www.w3.org/1999/xlink" width="180px" height="40px" xmlns="http://www.w3.org/2000/svg">
  <g transform="matrix(1 0 0 1 -1150 -757 )">
    <path d="M 1150.5 762  A 4.5 4.5 0 0 1 1155 757.5 L 1325 757.5  A 4.5 4.5 0 0 1 1329.5 762 L 1329.5 792  A 4.5 4.5 0 0 1 1325 796.5 L 1155 796.5  A 4.5 4.5 0 0 1 1150.5 792 L 1150.5 762  Z " fill-rule="nonzero" fill="#dd6161" stroke="none" />
    <path d="M 1150.5 762  A 4.5 4.5 0 0 1 1155 757.5 L 1325 757.5  A 4.5 4.5 0 0 1 1329.5 762 L 1329.5 792  A 4.5 4.5 0 0 1 1325 796.5 L 1155 796.5  A 4.5 4.5 0 0 1 1150.5 792 L 1150.5 762  Z " stroke-width="1" stroke="#dd6161" fill="none" />
  </g>
</svg>