<?xml version="1.0" encoding="utf-8"?>
<svg version="1.1" xmlns:xlink="http://www.w3.org/1999/xlink" width="134px" height="40px" xmlns="http://www.w3.org/2000/svg">
  <g transform="matrix(1 0 0 1 -1350 -757 )">
    <path d="M 1351 762  A 4 4 0 0 1 1355 758 L 1479 758  A 4 4 0 0 1 1483 762 L 1483 792  A 4 4 0 0 1 1479 796 L 1355 796  A 4 4 0 0 1 1351 792 L 1351 762  Z " fill-rule="nonzero" fill="#fef3f3" stroke="none" fill-opacity="0.996078431372549" />
    <path d="M 1350.5 762  A 4.5 4.5 0 0 1 1355 757.5 L 1479 757.5  A 4.5 4.5 0 0 1 1483.5 762 L 1483.5 792  A 4.5 4.5 0 0 1 1479 796.5 L 1355 796.5  A 4.5 4.5 0 0 1 1350.5 792 L 1350.5 762  Z " stroke-width="1" stroke="#f89898" fill="none" stroke-opacity="0.996078431372549" />
  </g>
</svg>