<?xml version="1.0" encoding="utf-8"?>
<svg version="1.1" xmlns:xlink="http://www.w3.org/1999/xlink" width="110px" height="25px" xmlns="http://www.w3.org/2000/svg">
  <defs>
    <mask fill="white" id="clip122">
      <path d="M 0 20  L 0 5  C 0 2.2000000000000455  3.967213114754088 0  9.016393442622956 0  L 26.33653846153851 0  L 62.91438979963581 0  L 100.98360655737704 0  C 106.03278688524591 0  110 2.2000000000000455  110 5  L 110 20  C 110 22.799999999999955  106.03278688524591 25  100.98360655737704 25  L 9.016393442622956 25  C 3.967213114754088 25  0 22.799999999999955  0 20  Z " fill-rule="evenodd" />
    </mask>
  </defs>
  <g transform="matrix(1 0 0 1 -1170 -163 )">
    <path d="M 0 20  L 0 5  C 0 2.2000000000000455  3.967213114754088 0  9.016393442622956 0  L 26.33653846153851 0  L 62.91438979963581 0  L 100.98360655737704 0  C 106.03278688524591 0  110 2.2000000000000455  110 5  L 110 20  C 110 22.799999999999955  106.03278688524591 25  100.98360655737704 25  L 9.016393442622956 25  C 3.967213114754088 25  0 22.799999999999955  0 20  Z " fill-rule="nonzero" fill="#f0f7ff" stroke="none" transform="matrix(1 0 0 1 1170 163 )" />
    <path d="M 0 20  L 0 5  C 0 2.2000000000000455  3.967213114754088 0  9.016393442622956 0  L 26.33653846153851 0  L 62.91438979963581 0  L 100.98360655737704 0  C 106.03278688524591 0  110 2.2000000000000455  110 5  L 110 20  C 110 22.799999999999955  106.03278688524591 25  100.98360655737704 25  L 9.016393442622956 25  C 3.967213114754088 25  0 22.799999999999955  0 20  Z " stroke-width="2" stroke="#7abbff" fill="none" transform="matrix(1 0 0 1 1170 163 )" mask="url(#clip122)" />
  </g>
</svg>