<?xml version="1.0" encoding="utf-8"?>
<svg version="1.1" xmlns:xlink="http://www.w3.org/1999/xlink" width="100px" height="25px" xmlns="http://www.w3.org/2000/svg">
  <g transform="matrix(1 0 0 1 -1420 -163 )">
    <path d="M 1420.5 168  A 4.5 4.5 0 0 1 1425 163.5 L 1515 163.5  A 4.5 4.5 0 0 1 1519.5 168 L 1519.5 183  A 4.5 4.5 0 0 1 1515 187.5 L 1425 187.5  A 4.5 4.5 0 0 1 1420.5 183 L 1420.5 168  Z " fill-rule="nonzero" fill="#dd6161" stroke="none" />
    <path d="M 1420.5 168  A 4.5 4.5 0 0 1 1425 163.5 L 1515 163.5  A 4.5 4.5 0 0 1 1519.5 168 L 1519.5 183  A 4.5 4.5 0 0 1 1515 187.5 L 1425 187.5  A 4.5 4.5 0 0 1 1420.5 183 L 1420.5 168  Z " stroke-width="1" stroke="#dd6161" fill="none" />
  </g>
</svg>