<?xml version="1.0" encoding="utf-8"?>
<svg version="1.1" xmlns:xlink="http://www.w3.org/1999/xlink" width="110px" height="25px" xmlns="http://www.w3.org/2000/svg">
  <defs>
    <mask fill="white" id="clip105">
      <path d="M 0 20  L 0 5  C 0 2.20000000000005  3.96721311475409 0  9.01639344262296 0  L 26.3365384615385 0  L 62.9143897996358 0  L 100.983606557377 0  C 106.032786885246 0  110 2.20000000000005  110 5  L 110 20  C 110 22.8  106.032786885246 25  100.983606557377 25  L 9.01639344262296 25  C 3.96721311475409 25  0 22.8  0 20  Z " fill-rule="evenodd" />
    </mask>
  </defs>
  <g transform="matrix(1 0 0 1 -1170 -163 )">
    <path d="M 0 20  L 0 5  C 0 2.20000000000005  3.96721311475409 0  9.01639344262296 0  L 26.3365384615385 0  L 62.9143897996358 0  L 100.983606557377 0  C 106.032786885246 0  110 2.20000000000005  110 5  L 110 20  C 110 22.8  106.032786885246 25  100.983606557377 25  L 9.01639344262296 25  C 3.96721311475409 25  0 22.8  0 20  Z " fill-rule="nonzero" fill="#409eff" stroke="none" transform="matrix(1 0 0 1 1170 163 )" />
    <path d="M 0 20  L 0 5  C 0 2.20000000000005  3.96721311475409 0  9.01639344262296 0  L 26.3365384615385 0  L 62.9143897996358 0  L 100.983606557377 0  C 106.032786885246 0  110 2.20000000000005  110 5  L 110 20  C 110 22.8  106.032786885246 25  100.983606557377 25  L 9.01639344262296 25  C 3.96721311475409 25  0 22.8  0 20  Z " stroke-width="2" stroke="#409eff" fill="none" transform="matrix(1 0 0 1 1170 163 )" mask="url(#clip105)" />
  </g>
</svg>