<?xml version="1.0" encoding="utf-8"?>
<svg version="1.1" xmlns:xlink="http://www.w3.org/1999/xlink" width="100px" height="25px" xmlns="http://www.w3.org/2000/svg">
  <g transform="matrix(1 0 0 1 -1420 -163 )">
    <path d="M 1421 168  A 4 4 0 0 1 1425 164 L 1515 164  A 4 4 0 0 1 1519 168 L 1519 183  A 4 4 0 0 1 1515 187 L 1425 187  A 4 4 0 0 1 1421 183 L 1421 168  Z " fill-rule="nonzero" fill="#fef3f3" stroke="none" fill-opacity="0.996078431372549" />
    <path d="M 1420.5 168  A 4.5 4.5 0 0 1 1425 163.5 L 1515 163.5  A 4.5 4.5 0 0 1 1519.5 168 L 1519.5 183  A 4.5 4.5 0 0 1 1515 187.5 L 1425 187.5  A 4.5 4.5 0 0 1 1420.5 183 L 1420.5 168  Z " stroke-width="1" stroke="#f89898" fill="none" stroke-opacity="0.996078431372549" />
  </g>
</svg>