<?xml version="1.0" encoding="utf-8"?>
<svg version="1.1" xmlns:xlink="http://www.w3.org/1999/xlink" width="164px" height="40px" xmlns="http://www.w3.org/2000/svg">
  <g transform="matrix(1 0 0 1 -1197 -1042 )">
    <path d="M 1197.5 1047  A 4.5 4.5 0 0 1 1202 1042.5 L 1356 1042.5  A 4.5 4.5 0 0 1 1360.5 1047 L 1360.5 1077  A 4.5 4.5 0 0 1 1356 1081.5 L 1202 1081.5  A 4.5 4.5 0 0 1 1197.5 1077 L 1197.5 1047  Z " fill-rule="nonzero" fill="#dd6161" stroke="none" />
    <path d="M 1197.5 1047  A 4.5 4.5 0 0 1 1202 1042.5 L 1356 1042.5  A 4.5 4.5 0 0 1 1360.5 1047 L 1360.5 1077  A 4.5 4.5 0 0 1 1356 1081.5 L 1202 1081.5  A 4.5 4.5 0 0 1 1197.5 1077 L 1197.5 1047  Z " stroke-width="1" stroke="#dd6161" fill="none" />
  </g>
</svg>