<?xml version="1.0" encoding="utf-8"?>
<svg version="1.1" xmlns:xlink="http://www.w3.org/1999/xlink" width="109px" height="40px" xmlns="http://www.w3.org/2000/svg">
  <g transform="matrix(1 0 0 1 -1408 -150 )">
    <path d="M 1408.5 155  A 4.5 4.5 0 0 1 1413 150.5 L 1512 150.5  A 4.5 4.5 0 0 1 1516.5 155 L 1516.5 185  A 4.5 4.5 0 0 1 1512 189.5 L 1413 189.5  A 4.5 4.5 0 0 1 1408.5 185 L 1408.5 155  Z " fill-rule="nonzero" fill="#409eff" stroke="none" fill-opacity="0.0784313725490196" />
    <path d="M 1408.5 155  A 4.5 4.5 0 0 1 1413 150.5 L 1512 150.5  A 4.5 4.5 0 0 1 1516.5 155 L 1516.5 185  A 4.5 4.5 0 0 1 1512 189.5 L 1413 189.5  A 4.5 4.5 0 0 1 1408.5 185 L 1408.5 155  Z " stroke-width="1" stroke="#409eff" fill="none" />
  </g>
</svg>