<?xml version="1.0" encoding="utf-8"?>
<svg version="1.1" xmlns:xlink="http://www.w3.org/1999/xlink" width="131px" height="40px" xmlns="http://www.w3.org/2000/svg">
  <g transform="matrix(1 0 0 1 -1386 -1042 )">
    <path d="M 1387 1047  A 4 4 0 0 1 1391 1043 L 1512 1043  A 4 4 0 0 1 1516 1047 L 1516 1077  A 4 4 0 0 1 1512 1081 L 1391 1081  A 4 4 0 0 1 1387 1077 L 1387 1047  Z " fill-rule="nonzero" fill="#fef3f3" stroke="none" fill-opacity="0.996078431372549" />
    <path d="M 1386.5 1047  A 4.5 4.5 0 0 1 1391 1042.5 L 1512 1042.5  A 4.5 4.5 0 0 1 1516.5 1047 L 1516.5 1077  A 4.5 4.5 0 0 1 1512 1081.5 L 1391 1081.5  A 4.5 4.5 0 0 1 1386.5 1077 L 1386.5 1047  Z " stroke-width="1" stroke="#f89898" fill="none" stroke-opacity="0.996078431372549" />
  </g>
</svg>