<?xml version="1.0" encoding="utf-8"?>
<svg version="1.1" xmlns:xlink="http://www.w3.org/1999/xlink" width="131px" height="40px" xmlns="http://www.w3.org/2000/svg">
  <g transform="matrix(1 0 0 1 -1386 -1042 )">
    <path d="M 1386.5 1047  A 4.5 4.5 0 0 1 1391 1042.5 L 1512 1042.5  A 4.5 4.5 0 0 1 1516.5 1047 L 1516.5 1077  A 4.5 4.5 0 0 1 1512 1081.5 L 1391 1081.5  A 4.5 4.5 0 0 1 1386.5 1077 L 1386.5 1047  Z " fill-rule="nonzero" fill="#f56c6c" stroke="none" />
    <path d="M 1386.5 1047  A 4.5 4.5 0 0 1 1391 1042.5 L 1512 1042.5  A 4.5 4.5 0 0 1 1516.5 1047 L 1516.5 1077  A 4.5 4.5 0 0 1 1512 1081.5 L 1391 1081.5  A 4.5 4.5 0 0 1 1386.5 1077 L 1386.5 1047  Z " stroke-width="1" stroke="#f56c6c" fill="none" />
  </g>
</svg>