<?xml version="1.0" encoding="utf-8"?>
<svg version="1.1" xmlns:xlink="http://www.w3.org/1999/xlink" width="100px" height="40px" xmlns="http://www.w3.org/2000/svg">
  <g transform="matrix(1 0 0 1 -797 -834 )">
    <path d="M 797.5 837  A 2.5 2.5 0 0 1 800 834.5 L 894 834.5  A 2.5 2.5 0 0 1 896.5 837 L 896.5 871  A 2.5 2.5 0 0 1 894 873.5 L 800 873.5  A 2.5 2.5 0 0 1 797.5 871 L 797.5 837  Z " fill-rule="nonzero" fill="#f9f9f9" stroke="none" />
    <path d="M 797.5 837  A 2.5 2.5 0 0 1 800 834.5 L 894 834.5  A 2.5 2.5 0 0 1 896.5 837 L 896.5 871  A 2.5 2.5 0 0 1 894 873.5 L 800 873.5  A 2.5 2.5 0 0 1 797.5 871 L 797.5 837  Z " stroke-width="1" stroke="#e4e4e4" fill="none" />
  </g>
</svg>