<?xml version="1.0" encoding="utf-8"?>
<svg version="1.1" xmlns:xlink="http://www.w3.org/1999/xlink" width="140px" height="40px" xmlns="http://www.w3.org/2000/svg">
  <g transform="matrix(1 0 0 1 -52 -98 )">
    <path d="M 53 103  A 4 4 0 0 1 57 99 L 187 99  A 4 4 0 0 1 191 103 L 191 133  A 4 4 0 0 1 187 137 L 57 137  A 4 4 0 0 1 53 133 L 53 103  Z " fill-rule="nonzero" fill="#ffffff" stroke="none" fill-opacity="0.10980392156862745" />
    <path d="M 52.5 103  A 4.5 4.5 0 0 1 57 98.5 L 187 98.5  A 4.5 4.5 0 0 1 191.5 103 L 191.5 133  A 4.5 4.5 0 0 1 187 137.5 L 57 137.5  A 4.5 4.5 0 0 1 52.5 133 L 52.5 103  Z " stroke-width="1" stroke="#f2f2f2" fill="none" stroke-opacity="0.996078431372549" />
  </g>
</svg>