<?xml version="1.0" encoding="utf-8"?>
<svg version="1.1" xmlns:xlink="http://www.w3.org/1999/xlink" width="30px" height="30px" xmlns="http://www.w3.org/2000/svg">
  <g transform="matrix(1 0 0 1 -1870 -101 )">
    <path d="M 29.23828125 1.34765625  C 29.74609375 1.56901041666667  30 1.953125  30 2.5  L 30 11.25  C 30 11.5885416666667  29.8763020833333 11.8815104166667  29.62890625 12.12890625  C 29.3815104166667 12.3763020833333  29.0885416666667 12.5  28.75 12.5  L 20 12.5  C 19.453125 12.5  19.0690104166667 12.2395833333333  18.84765625 11.71875  C 18.6263020833333 11.2109375  18.7174479166667 10.76171875  19.12109375 10.37109375  L 21.81640625 7.67578125  C 19.8893229166667 5.89192708333333  17.6171875 5  15 5  C 13.6458333333333 5  12.353515625 5.263671875  11.123046875 5.791015625  C 9.892578125 6.318359375  8.828125 7.03125  7.9296875 7.9296875  C 7.03125 8.828125  6.318359375 9.892578125  5.791015625 11.123046875  C 5.263671875 12.353515625  5 13.6458333333333  5 15  C 5 16.3541666666667  5.263671875 17.646484375  5.791015625 18.876953125  C 6.318359375 20.107421875  7.03125 21.171875  7.9296875 22.0703125  C 8.828125 22.96875  9.892578125 23.681640625  11.123046875 24.208984375  C 12.353515625 24.736328125  13.6458333333333 25  15 25  C 16.5494791666667 25  18.0143229166667 24.6614583333333  19.39453125 23.984375  C 20.7747395833333 23.3072916666667  21.9401041666667 22.3502604166667  22.890625 21.11328125  C 22.9817708333333 20.9830729166667  23.1315104166667 20.9049479166667  23.33984375 20.87890625  C 23.53515625 20.87890625  23.6979166666667 20.9375  23.828125 21.0546875  L 26.50390625 23.75  C 26.62109375 23.8541666666667  26.6829427083333 23.9876302083333  26.689453125 24.150390625  C 26.6959635416667 24.3131510416667  26.6471354166667 24.4596354166667  26.54296875 24.58984375  C 25.1236979166667 26.30859375  23.4049479166667 27.6399739583333  21.38671875 28.583984375  C 19.3684895833333 29.5279947916667  17.2395833333333 30  15 30  C 12.96875 30  11.0286458333333 29.6028645833333  9.1796875 28.80859375  C 7.33072916666667 28.0143229166667  5.73567708333333 26.9466145833333  4.39453125 25.60546875  C 3.05338541666667 24.2643229166667  1.98567708333333 22.6692708333333  1.19140625 20.8203125  C 0.397135416666667 18.9713541666667  0 17.03125  0 15  C 0 12.96875  0.397135416666667 11.0286458333333  1.19140625 9.1796875  C 1.98567708333333 7.33072916666667  3.05338541666667 5.73567708333333  4.39453125 4.39453125  C 5.73567708333333 3.05338541666667  7.33072916666667 1.98567708333333  9.1796875 1.19140625  C 11.0286458333333 0.397135416666666  12.96875 0  15 0  C 16.9140625 0  18.7662760416667 0.361328125000001  20.556640625 1.083984375  C 22.3470052083333 1.806640625  23.9388020833333 2.82552083333333  25.33203125 4.140625  L 27.87109375 1.62109375  C 28.2486979166667 1.21744791666667  28.7044270833333 1.12630208333333  29.23828125 1.34765625  Z " fill-rule="nonzero" fill="#ffffff" stroke="none" transform="matrix(1 0 0 1 1870 101 )" />
  </g>
</svg>