<?xml version="1.0" encoding="utf-8"?>
<svg version="1.1" xmlns:xlink="http://www.w3.org/1999/xlink" width="30px" height="10px" xmlns="http://www.w3.org/2000/svg">
  <g transform="matrix(1 0 0 1 -1810 -111 )">
    <path d="M 29.2131696428571 0.91796875  C 29.7377232142857 1.52994791666667  30 2.265625  30 3.125  L 30 6.875  C 30 7.734375  29.7377232142857 8.47005208333334  29.2131696428571 9.08203125  C 28.6886160714286 9.69401041666666  28.0580357142857 10  27.3214285714286 10  L 2.67857142857143 10  C 1.94196428571429 10  1.31138392857143 9.69401041666666  0.786830357142857 9.08203125  C 0.262276785714286 8.47005208333334  0 7.734375  0 6.875  L 0 3.125  C 0 2.265625  0.262276785714286 1.52994791666667  0.786830357142857 0.91796875  C 1.31138392857143 0.305989583333335  1.94196428571429 0  2.67857142857143 0  L 27.3214285714286 0  C 28.0580357142857 0  28.6886160714286 0.305989583333335  29.2131696428571 0.91796875  Z " fill-rule="nonzero" fill="#ffffff" stroke="none" transform="matrix(1 0 0 1 1810 111 )" />
  </g>
</svg>