<?xml version="1.0" encoding="utf-8"?>
<svg version="1.1" xmlns:xlink="http://www.w3.org/1999/xlink" width="30px" height="30px" xmlns="http://www.w3.org/2000/svg">
  <g transform="matrix(1 0 0 1 -1870 -101 )">
    <path d="M 29.23828125 1.34765625  C 29.74609375 1.5690104166666663  30 1.953124999999999  30 2.500000000000001  L 30 11.25  C 30 11.588541666666666  29.876302083333332 11.881510416666666  29.62890625 12.12890625  C 29.38151041666667 12.376302083333334  29.08854166666667 12.499999999999998  28.75 12.499999999999998  L 20 12.499999999999998  C 19.453125 12.499999999999998  19.069010416666668 12.239583333333336  18.84765625 11.71875  C 18.626302083333336 11.210937499999998  18.71744791666667 10.761718750000002  19.12109375 10.37109375  L 21.81640625 7.67578125  C 19.88932291666667 5.8919270833333295  17.6171875 4.999999999999999  15 4.999999999999999  C 13.645833333333336 4.999999999999999  12.353515625 5.263671874999999  11.123046875 5.791015624999999  C 9.892578125 6.318359374999999  8.828125 7.03125  7.929687500000001 7.929687499999999  C 7.03125 8.828125000000002  6.318359375 9.892578124999998  5.791015625 11.123046874999998  C 5.263671875 12.353515624999998  5 13.645833333333332  5 15  C 5 16.354166666666664  5.263671875 17.646484374999996  5.791015625 18.876953124999996  C 6.318359375 20.107421874999996  7.03125 21.171875000000004  7.929687500000001 22.070312499999996  C 8.828125 22.96875  9.892578125 23.681640625  11.123046875 24.208984375  C 12.353515625 24.736328125  13.645833333333336 25  15 25  C 16.549479166666668 25  18.014322916666668 24.661458333333336  19.39453125 23.984375  C 20.774739583333336 23.307291666666668  21.94010416666667 22.350260416666668  22.890625 21.113281250000004  C 22.981770833333332 20.983072916666664  23.13151041666667 20.904947916666664  23.33984375 20.878906250000004  C 23.53515625 20.878906250000004  23.69791666666667 20.937500000000004  23.828125 21.054687500000004  L 26.50390625 23.75  C 26.62109375 23.854166666666664  26.682942708333336 23.987630208333336  26.689453125 24.150390625  C 26.695963541666668 24.313151041666664  26.64713541666667 24.459635416666664  26.54296875 24.58984375  C 25.12369791666667 26.30859375  23.40494791666667 27.639973958333332  21.38671875 28.583984375  C 19.368489583333336 29.527994791666664  17.239583333333332 30  15 30  C 12.96875 30  11.028645833333336 29.602864583333332  9.1796875 28.80859375  C 7.330729166666668 28.014322916666664  5.735677083333334 26.946614583333336  4.39453125 25.60546875  C 3.053385416666667 24.264322916666664  1.9856770833333335 22.669270833333336  1.1914062500000002 20.820312500000004  C 0.39713541666666674 18.971354166666664  0 17.031249999999996  0 15  C 0 12.968749999999998  0.39713541666666674 11.028645833333334  1.1914062500000002 9.179687500000002  C 1.9856770833333335 7.330729166666665  3.053385416666667 5.735677083333331  4.39453125 4.39453125  C 5.735677083333334 3.053385416666665  7.330729166666668 1.9856770833333315  9.1796875 1.191406249999999  C 11.028645833333336 0.3971354166666663  12.96875 0  15 0  C 16.9140625 0  18.76627604166667 0.3613281250000011  20.556640625 1.083984375  C 22.347005208333336 1.806640624999999  23.938802083333336 2.8255208333333304  25.33203125 4.140625000000001  L 27.87109375 1.621093750000001  C 28.248697916666668 1.2174479166666663  28.704427083333336 1.1263020833333304  29.23828125 1.34765625  Z " fill-rule="nonzero" fill="#ffffff" stroke="none" transform="matrix(1 0 0 1 1870 101 )" />
  </g>
</svg>