<?xml version="1.0" encoding="utf-8"?>
<svg version="1.1" xmlns:xlink="http://www.w3.org/1999/xlink" width="30px" height="10px" xmlns="http://www.w3.org/2000/svg">
  <g transform="matrix(1 0 0 1 -1810 -111 )">
    <path d="M 29.213169642857142 0.91796875  C 29.73772321428572 1.5299479166666652  30 2.265625  30 3.125  L 30 6.875  C 30 7.734375  29.73772321428572 8.470052083333336  29.213169642857142 9.08203125  C 28.688616071428577 9.694010416666664  28.05803571428572 10  27.32142857142857 10  L 2.678571428571429 10  C 1.9419642857142858 10  1.3113839285714286 9.694010416666664  0.7868303571428572 9.08203125  C 0.2622767857142857 8.470052083333336  0 7.734375  0 6.875  L 0 3.125  C 0 2.265625  0.2622767857142857 1.5299479166666652  0.7868303571428572 0.91796875  C 1.3113839285714286 0.3059895833333348  1.9419642857142858 0  2.678571428571429 0  L 27.32142857142857 0  C 28.05803571428572 0  28.688616071428577 0.3059895833333348  29.213169642857142 0.91796875  Z " fill-rule="nonzero" fill="#ffffff" stroke="none" transform="matrix(1 0 0 1 1810 111 )" />
  </g>
</svg>