<?xml version="1.0" encoding="utf-8"?>
<svg version="1.1" xmlns:xlink="http://www.w3.org/1999/xlink" width="27px" height="27px" xmlns="http://www.w3.org/2000/svg">
  <g>
    <path d="M 6.75 18  L 6.75 24.75  L 20.25 24.75  L 20.25 18  L 6.75 18  Z M 22.5 17.437499999999996  L 22.5 24.75  L 24.75 24.75  L 24.75 9.000000000000002  C 24.75 8.835937499999996  24.69140625 8.6103515625  24.57421875 8.323242187499998  C 24.457031250000004 8.036132812499998  24.339843750000004 7.8339843749999964  24.22265625 7.716796874999999  L 19.283203125 2.777343750000001  C 19.166015625000004 2.660156249999998  18.966796875 2.5429687499999973  18.685546875 2.42578125  C 18.404296875 2.3085937499999996  18.17578125 2.250000000000001  18 2.250000000000001  L 18 9.562499999999998  C 18 10.03125  17.8359375 10.4296875  17.5078125 10.7578125  C 17.1796875 11.0859375  16.78125 11.249999999999998  16.3125 11.249999999999998  L 6.1875 11.249999999999998  C 5.718750000000001 11.249999999999998  5.320312500000001 11.0859375  4.9921875 10.7578125  C 4.664062500000001 10.4296875  4.5 10.03125  4.5 9.562499999999998  L 4.5 2.250000000000001  L 2.25 2.250000000000001  L 2.25 24.75  L 4.5 24.75  L 4.5 17.437499999999996  C 4.5 16.968749999999996  4.664062500000001 16.570312499999996  4.9921875 16.2421875  C 5.320312500000001 15.914062499999996  5.718750000000001 15.749999999999998  6.1875 15.749999999999998  L 20.8125 15.749999999999998  C 21.281250000000004 15.749999999999998  21.6796875 15.914062499999996  22.0078125 16.2421875  C 22.335937500000004 16.570312499999996  22.5 16.968749999999996  22.5 17.437499999999996  Z M 15.5830078125 8.8330078125  C 15.694335937500002 8.721679687499998  15.750000000000002 8.589843749999998  15.750000000000002 8.4375  L 15.750000000000002 2.812499999999999  C 15.750000000000002 2.660156249999998  15.694335937500002 2.528320312499998  15.5830078125 2.416992187499999  C 15.471679687500002 2.3056640624999973  15.339843750000002 2.250000000000001  15.1875 2.250000000000001  L 11.8125 2.250000000000001  C 11.66015625 2.250000000000001  11.5283203125 2.3056640624999973  11.4169921875 2.416992187499999  C 11.305664062500002 2.528320312499998  11.25 2.660156249999998  11.25 2.812499999999999  L 11.25 8.4375  C 11.25 8.589843749999998  11.305664062500002 8.721679687499998  11.4169921875 8.8330078125  C 11.5283203125 8.944335937499998  11.66015625 9.000000000000002  11.8125 9.000000000000002  L 15.1875 9.000000000000002  C 15.339843750000002 9.000000000000002  15.471679687500002 8.944335937499998  15.5830078125 8.8330078125  Z M 26.6484375 7.453124999999999  C 26.8828125 8.015625  27 8.53125  27 9.000000000000002  L 27 25.3125  C 27 25.78125  26.8359375 26.179687499999996  26.5078125 26.5078125  C 26.179687500000004 26.8359375  25.78125 27  25.3125 27  L 1.6875 27  C 1.2187500000000002 27  0.8203125000000001 26.8359375  0.49218750000000006 26.5078125  C 0.16406249999999997 26.179687499999996  0 25.78125  0 25.3125  L 0 1.6875  C 0 1.2187499999999987  0.16406249999999997 0.8203124999999963  0.49218750000000006 0.492187499999999  C 0.8203125000000001 0.16406249999999867  1.2187500000000002 0  1.6875 0  L 18 0  C 18.46875 0  18.984375 0.11718749999999734  19.546875 0.351562500000001  C 20.109375 0.5859374999999987  20.554687500000004 0.8671874999999977  20.8828125 1.1953125000000009  L 25.8046875 6.1171875  C 26.132812500000004 6.445312499999997  26.4140625 6.890625000000001  26.6484375 7.453124999999999  Z " fill-rule="nonzero" fill="#ffffff" stroke="none" />
  </g>
</svg>