<?xml version="1.0" encoding="utf-8"?>
<svg version="1.1" xmlns:xlink="http://www.w3.org/1999/xlink" width="114px" height="40px" xmlns="http://www.w3.org/2000/svg">
  <g transform="matrix(1 0 0 1 -1313 -374 )">
    <path d="M 1313.5 379  A 4.5 4.5 0 0 1 1318 374.5 L 1422 374.5  A 4.5 4.5 0 0 1 1426.5 379 L 1426.5 409  A 4.5 4.5 0 0 1 1422 413.5 L 1318 413.5  A 4.5 4.5 0 0 1 1313.5 409 L 1313.5 379  Z " fill-rule="nonzero" fill="#f0f7ff" stroke="none" />
    <path d="M 1313.5 379  A 4.5 4.5 0 0 1 1318 374.5 L 1422 374.5  A 4.5 4.5 0 0 1 1426.5 379 L 1426.5 409  A 4.5 4.5 0 0 1 1422 413.5 L 1318 413.5  A 4.5 4.5 0 0 1 1313.5 409 L 1313.5 379  Z " stroke-width="1" stroke="#409eff" fill="none" />
  </g>
</svg>