<?xml version="1.0" encoding="utf-8"?>
<svg version="1.1" xmlns:xlink="http://www.w3.org/1999/xlink" width="60px" height="25px" xmlns="http://www.w3.org/2000/svg">
  <g transform="matrix(1 0 0 1 -1165 -15 )">
    <path d="M 1166 20  A 4 4 0 0 1 1170 16 L 1220 16  A 4 4 0 0 1 1224 20 L 1224 35  A 4 4 0 0 1 1220 39 L 1170 39  A 4 4 0 0 1 1166 35 L 1166 20  Z " fill-rule="nonzero" fill="#fef3f3" stroke="none" fill-opacity="0.996078431372549" />
    <path d="M 1165.5 20  A 4.5 4.5 0 0 1 1170 15.5 L 1220 15.5  A 4.5 4.5 0 0 1 1224.5 20 L 1224.5 35  A 4.5 4.5 0 0 1 1220 39.5 L 1170 39.5  A 4.5 4.5 0 0 1 1165.5 35 L 1165.5 20  Z " stroke-width="1" stroke="#f89898" fill="none" stroke-opacity="0.996078431372549" />
  </g>
</svg>