<?xml version="1.0" encoding="utf-8"?>
<svg version="1.1" xmlns:xlink="http://www.w3.org/1999/xlink" width="28px" height="28px" xmlns="http://www.w3.org/2000/svg">
  <g transform="matrix(1 0 0 1 -278 -399 )">
    <path d="M 292 400  C 299.28 400  305 405.72  305 413  C 305 420.28  299.28 426  292 426  C 284.72 426  279 420.28  279 413  C 279 405.72  284.72 400  292 400  Z " fill-rule="nonzero" fill="#108ee9" stroke="none" />
    <path d="M 292 400  C 299.28 400  305 405.72  305 413  C 305 420.28  299.28 426  292 426  C 284.72 426  279 420.28  279 413  C 279 405.72  284.72 400  292 400  Z " stroke-width="2" stroke="#108ee9" fill="none" />
  </g>
</svg>