<?xml version="1.0" encoding="utf-8"?>
<svg version="1.1" xmlns:xlink="http://www.w3.org/1999/xlink" width="28px" height="28px" xmlns="http://www.w3.org/2000/svg">
  <g transform="matrix(1 0 0 1 -441 -399 )">
    <path d="M 455 400  C 462.28 400  468 405.72  468 413  C 468 420.28  462.28 426  455 426  C 447.72 426  442 420.28  442 413  C 442 405.72  447.72 400  455 400  Z " fill-rule="nonzero" fill="#ffffff" stroke="none" fill-opacity="0" />
    <path d="M 455 400  C 462.28 400  468 405.72  468 413  C 468 420.28  462.28 426  455 426  C 447.72 426  442 420.28  442 413  C 442 405.72  447.72 400  455 400  Z " stroke-width="2" stroke="#cccccc" fill="none" />
  </g>
</svg>