<?xml version="1.0" encoding="utf-8"?>
<svg version="1.1" xmlns:xlink="http://www.w3.org/1999/xlink" width="28px" height="28px" xmlns="http://www.w3.org/2000/svg">
  <g transform="matrix(1 0 0 1 -128 -399 )">
    <path d="M 142 400  C 149.28 400  155 405.72  155 413  C 155 420.28  149.28 426  142 426  C 134.72 426  129 420.28  129 413  C 129 405.72  134.72 400  142 400  Z " fill-rule="nonzero" fill="#ffffff" stroke="none" />
    <path d="M 142 400  C 149.28 400  155 405.72  155 413  C 155 420.28  149.28 426  142 426  C 134.72 426  129 420.28  129 413  C 129 405.72  134.72 400  142 400  Z " stroke-width="2" stroke="#108ee9" fill="none" />
  </g>
</svg>