<?xml version="1.0" encoding="utf-8"?>
<svg version="1.1" xmlns:xlink="http://www.w3.org/1999/xlink" width="150px" height="35px" xmlns="http://www.w3.org/2000/svg">
  <g transform="matrix(1 0 0 1 -197 -384 )">
    <path d="M 0 30  L 0 5  C 0 2.1999999999999886  3.3000000000000704 0  7.4999999999999485 0  L 55.258064516129025 0  L 56.65384615384606 0  L 68.70229007633587 0  L 87.98714343109681 0  L 142.50000000000006 0  C 146.69999999999993 0  150 2.1999999999999886  150 5  L 150 30  C 150 32.80000000000001  146.69999999999993 35  142.50000000000006 35  L 91.54838709677425 35  L 91.0004017677782 35  L 7.4999999999999485 35  C 3.3000000000000704 35  0 32.80000000000001  0 30  Z " fill-rule="nonzero" fill="#5cb85c" stroke="none" transform="matrix(1 0 0 1 197 384 )" />
  </g>
</svg>