<?xml version="1.0" encoding="utf-8"?>
<svg version="1.1" xmlns:xlink="http://www.w3.org/1999/xlink" width="150px" height="35px" xmlns="http://www.w3.org/2000/svg">
  <g transform="matrix(1 0 0 1 -56 -384 )">
    <path d="M 0 30  L 0 5  C 0 2.19999999999999  3.30000000000007 0  7.49999999999995 0  L 55.258064516129 0  L 56.6538461538461 0  L 68.7022900763359 0  L 87.9871434310968 0  L 142.5 0  C 146.7 0  150 2.19999999999999  150 5  L 150 30  C 150 32.8  146.7 35  142.5 35  L 91.5483870967742 35  L 91.0004017677782 35  L 7.49999999999995 35  C 3.30000000000007 35  0 32.8  0 30  Z " fill-rule="nonzero" fill="#66b1ff" stroke="none" transform="matrix(1 0 0 1 56 384 )" />
  </g>
</svg>